M48
;GenerationSoftware,Autodesk,EAGLE,9.6.2*%
;CreationDate,2021-01-21T23:02:03Z*%
FMAT,2
ICI,OFF
METRIC,TZ,000.000
T3C0.381
T2C1.016
T1C3.302
%
G90
M71
T1
X178308Y28448
X2540Y22860
X22860Y22860
X2540Y2540
X22860Y2540
X28448Y22860
X48768Y22860
X28448Y2540
X48768Y2540
X54356Y22860
X74676Y22860
X54356Y2540
X74676Y2540
X80264Y22860
X100584Y22860
X80264Y2540
X100584Y2540
X106172Y22860
X126492Y22860
X106172Y2540
X126492Y2540
X132080Y22860
X152400Y22860
X132080Y2540
X152400Y2540
X157988Y22860
X178308Y22860
X157988Y2540
X178308Y2540
X2540Y48768
X22860Y48768
X2540Y28448
X22860Y28448
X28448Y48768
X48768Y48768
X28448Y28448
X48768Y28448
X54356Y48768
X74676Y48768
X54356Y28448
X74676Y28448
X80264Y48768
X100584Y48768
X80264Y28448
X100584Y28448
X106172Y48768
X126492Y48768
X106172Y28448
X126492Y28448
X132080Y48768
X152400Y48768
X132080Y28448
X152400Y28448
X157988Y48768
X178308Y48768
X157988Y28448
X178308Y80264
X2540Y74676
X22860Y74676
X2540Y54356
X22860Y54356
X28448Y74676
X48768Y74676
X28448Y54356
X48768Y54356
X54356Y74676
X74676Y74676
X54356Y54356
X74676Y54356
X80264Y74676
X100584Y74676
X80264Y54356
X100584Y54356
X106172Y74676
X126492Y74676
X106172Y54356
X126492Y54356
X132080Y74676
X152400Y74676
X132080Y54356
X152400Y54356
X157988Y74676
X178308Y74676
X157988Y54356
X178308Y54356
X2540Y100584
X22860Y100584
X2540Y80264
X22860Y80264
X28448Y100584
X48768Y100584
X28448Y80264
X48768Y80264
X54356Y100584
X74676Y100584
X54356Y80264
X74676Y80264
X80264Y100584
X100584Y100584
X80264Y80264
X100584Y80264
X106172Y100584
X126492Y100584
X106172Y80264
X126492Y80264
X132080Y100584
X152400Y100584
X132080Y80264
X152400Y80264
X157988Y100584
X178308Y100584
X157988Y80264
X178308Y106172
X2540Y126492
X22860Y126492
X2540Y106172
X22860Y106172
X28448Y126492
X48768Y126492
X28448Y106172
X48768Y106172
X54356Y126492
X74676Y126492
X54356Y106172
X74676Y106172
X80264Y126492
X100584Y126492
X80264Y106172
X100584Y106172
X106172Y126492
X126492Y126492
X106172Y106172
X126492Y106172
X132080Y126492
X152400Y126492
X132080Y106172
X152400Y106172
X157988Y126492
X178308Y126492
X157988Y106172
T2
X116332Y50038
X15240Y24130
X12700Y24130
X10160Y24130
X6350Y1270
X8890Y1270
X11430Y1270
X13970Y1270
X16510Y1270
X19050Y1270
X41148Y24130
X38608Y24130
X36068Y24130
X32258Y1270
X34798Y1270
X37338Y1270
X39878Y1270
X42418Y1270
X44958Y1270
X67056Y24130
X64516Y24130
X61976Y24130
X58166Y1270
X60706Y1270
X63246Y1270
X65786Y1270
X68326Y1270
X70866Y1270
X92964Y24130
X90424Y24130
X87884Y24130
X84074Y1270
X86614Y1270
X89154Y1270
X91694Y1270
X94234Y1270
X96774Y1270
X118872Y24130
X116332Y24130
X113792Y24130
X109982Y1270
X112522Y1270
X115062Y1270
X117602Y1270
X120142Y1270
X122682Y1270
X144780Y24130
X142240Y24130
X139700Y24130
X135890Y1270
X138430Y1270
X140970Y1270
X143510Y1270
X146050Y1270
X148590Y1270
X170688Y24130
X168148Y24130
X165608Y24130
X161798Y1270
X164338Y1270
X166878Y1270
X169418Y1270
X171958Y1270
X174498Y1270
X15240Y50038
X12700Y50038
X10160Y50038
X6350Y27178
X8890Y27178
X11430Y27178
X13970Y27178
X16510Y27178
X19050Y27178
X41148Y50038
X38608Y50038
X36068Y50038
X32258Y27178
X34798Y27178
X37338Y27178
X39878Y27178
X42418Y27178
X44958Y27178
X67056Y50038
X64516Y50038
X61976Y50038
X58166Y27178
X60706Y27178
X63246Y27178
X65786Y27178
X68326Y27178
X70866Y27178
X92964Y50038
X90424Y50038
X87884Y50038
X84074Y27178
X86614Y27178
X89154Y27178
X91694Y27178
X94234Y27178
X96774Y27178
X118872Y50038
X113792Y50038
X109982Y27178
X112522Y27178
X115062Y27178
X117602Y27178
X120142Y27178
X122682Y27178
X144780Y50038
X142240Y50038
X139700Y50038
X135890Y27178
X138430Y27178
X140970Y27178
X143510Y27178
X146050Y27178
X148590Y27178
X170688Y50038
X168148Y50038
X165608Y50038
X161798Y27178
X164338Y27178
X166878Y27178
X169418Y27178
X171958Y27178
X174498Y27178
X15240Y75946
X12700Y75946
X10160Y75946
X6350Y53086
X8890Y53086
X11430Y53086
X13970Y53086
X16510Y53086
X19050Y53086
X41148Y75946
X38608Y75946
X36068Y75946
X32258Y53086
X34798Y53086
X37338Y53086
X39878Y53086
X42418Y53086
X44958Y53086
X67056Y75946
X64516Y75946
X61976Y75946
X58166Y53086
X60706Y53086
X63246Y53086
X65786Y53086
X68326Y53086
X70866Y53086
X92964Y75946
X90424Y75946
X87884Y75946
X84074Y53086
X86614Y53086
X89154Y53086
X91694Y53086
X94234Y53086
X96774Y53086
X118872Y75946
X116332Y75946
X113792Y75946
X109982Y53086
X112522Y53086
X115062Y53086
X117602Y53086
X120142Y53086
X122682Y53086
X144780Y75946
X142240Y75946
X139700Y75946
X135890Y53086
X138430Y53086
X140970Y53086
X143510Y53086
X146050Y53086
X148590Y53086
X170688Y75946
X168148Y75946
X165608Y75946
X161798Y53086
X164338Y53086
X166878Y53086
X169418Y53086
X171958Y53086
X174498Y53086
X15240Y101854
X12700Y101854
X10160Y101854
X6350Y78994
X8890Y78994
X11430Y78994
X13970Y78994
X16510Y78994
X19050Y78994
X41148Y101854
X38608Y101854
X36068Y101854
X32258Y78994
X34798Y78994
X37338Y78994
X39878Y78994
X42418Y78994
X44958Y78994
X67056Y101854
X64516Y101854
X61976Y101854
X58166Y78994
X60706Y78994
X63246Y78994
X65786Y78994
X68326Y78994
X70866Y78994
X92964Y101854
X90424Y101854
X87884Y101854
X84074Y78994
X86614Y78994
X89154Y78994
X91694Y78994
X94234Y78994
X96774Y78994
X118872Y101854
X116332Y101854
X113792Y101854
X109982Y78994
X112522Y78994
X115062Y78994
X117602Y78994
X120142Y78994
X122682Y78994
X144780Y101854
X142240Y101854
X139700Y101854
X135890Y78994
X138430Y78994
X140970Y78994
X143510Y78994
X146050Y78994
X148590Y78994
X170688Y101854
X168148Y101854
X165608Y101854
X161798Y78994
X164338Y78994
X166878Y78994
X169418Y78994
X171958Y78994
X174498Y78994
X15240Y127762
X12700Y127762
X10160Y127762
X6350Y104902
X8890Y104902
X11430Y104902
X13970Y104902
X16510Y104902
X19050Y104902
X41148Y127762
X38608Y127762
X36068Y127762
X32258Y104902
X34798Y104902
X37338Y104902
X39878Y104902
X42418Y104902
X44958Y104902
X67056Y127762
X64516Y127762
X61976Y127762
X58166Y104902
X60706Y104902
X63246Y104902
X65786Y104902
X68326Y104902
X70866Y104902
X92964Y127762
X90424Y127762
X87884Y127762
X84074Y104902
X86614Y104902
X89154Y104902
X91694Y104902
X94234Y104902
X96774Y104902
X118872Y127762
X116332Y127762
X113792Y127762
X109982Y104902
X112522Y104902
X115062Y104902
X117602Y104902
X120142Y104902
X122682Y104902
X144780Y127762
X142240Y127762
X139700Y127762
X135890Y104902
X138430Y104902
X140970Y104902
X143510Y104902
X146050Y104902
X148590Y104902
X170688Y127762
X168148Y127762
X165608Y127762
X161798Y104902
X164338Y104902
X166878Y104902
X169418Y104902
X171958Y104902
X174498Y104902
T3
X144399Y41796
X144018Y40132
X145694Y41796
X145402Y39299
X140335Y39370
X145923Y36322
X148209Y40132
X139573Y38608
X145923Y34544
X147947Y39108
X144018Y35306
X139700Y36703
X141592Y35276
X162433Y39116
X162433Y36449
X169037Y32893
X168148Y42418
X165608Y41656
X178651Y33211
X159004Y40640
X161417Y41402
X170815Y31369
X174371Y33528
X175006Y35179
X179705Y44323
X175387Y41402
X158369Y34163
X164236Y36576
X161163Y34925
X156210Y32639
X174904Y46228
X165608Y30988
X165481Y45847
X172339Y45720
X170955Y42545
X170955Y40500
X170307Y41796
X169926Y40132
X171602Y41796
X171310Y39299
X166243Y39370
X171831Y36322
X174117Y40132
X165481Y38608
X171831Y34544
X173855Y39108
X169926Y35306
X165608Y36703
X167500Y35276
X6985Y65024
X6985Y62357
X13589Y58801
X12700Y68326
X10160Y67564
X23203Y59118
X3556Y66548
X5969Y67310
X15367Y57277
X18923Y59436
X19558Y61087
X24257Y70231
X19939Y67310
X2921Y60071
X8788Y62484
X5715Y60833
X762Y58547
X19456Y72136
X10160Y56896
X10033Y71755
X16891Y71628
X15507Y68453
X15507Y66408
X14859Y67704
X14478Y66040
X16154Y67704
X15862Y65207
X10795Y65278
X16383Y62230
X18669Y66040
X10033Y64516
X16383Y60452
X18407Y65016
X14478Y61214
X10160Y62611
X12052Y61184
X32893Y65024
X32893Y62357
X39497Y58801
X38608Y68326
X36068Y67564
X49111Y59118
X29464Y66548
X31877Y67310
X41275Y57277
X44831Y59436
X45466Y61087
X50165Y70231
X45847Y67310
X28829Y60071
X34696Y62484
X31623Y60833
X26670Y58547
X45364Y72136
X36068Y56896
X35941Y71755
X42799Y71628
X41415Y68453
X41415Y66408
X40767Y67704
X40386Y66040
X42062Y67704
X41770Y65207
X36703Y65278
X42291Y62230
X44577Y66040
X35941Y64516
X42291Y60452
X44315Y65016
X40386Y61214
X36068Y62611
X37960Y61184
X58801Y65024
X58801Y62357
X65405Y58801
X64516Y68326
X61976Y67564
X75019Y59118
X55372Y66548
X57785Y67310
X67183Y57277
X70739Y59436
X71374Y61087
X76073Y70231
X71755Y67310
X54737Y60071
X60604Y62484
X57531Y60833
X52578Y58547
X71272Y72136
X61976Y56896
X61849Y71755
X68707Y71628
X67323Y68453
X67323Y66408
X66675Y67704
X66294Y66040
X67970Y67704
X67678Y65207
X62611Y65278
X68199Y62230
X70485Y66040
X61849Y64516
X68199Y60452
X70223Y65016
X66294Y61214
X61976Y62611
X63868Y61184
X84709Y65024
X84709Y62357
X91313Y58801
X90424Y68326
X87884Y67564
X100927Y59118
X81280Y66548
X83693Y67310
X93091Y57277
X96647Y59436
X97282Y61087
X101981Y70231
X97663Y67310
X80645Y60071
X86512Y62484
X83439Y60833
X78486Y58547
X97180Y72136
X87884Y56896
X87757Y71755
X94615Y71628
X93231Y68453
X93231Y66408
X92583Y67704
X92202Y66040
X93878Y67704
X93586Y65207
X88519Y65278
X94107Y62230
X96393Y66040
X87757Y64516
X94107Y60452
X96131Y65016
X92202Y61214
X87884Y62611
X89776Y61184
X110617Y65024
X110617Y62357
X117221Y58801
X116332Y68326
X113792Y67564
X126835Y59118
X107188Y66548
X109601Y67310
X118999Y57277
X122555Y59436
X123190Y61087
X127889Y70231
X123571Y67310
X106553Y60071
X112420Y62484
X109347Y60833
X104394Y58547
X123088Y72136
X113792Y56896
X113665Y71755
X120523Y71628
X119139Y68453
X119139Y66408
X118491Y67704
X118110Y66040
X119786Y67704
X119494Y65207
X114427Y65278
X120015Y62230
X122301Y66040
X113665Y64516
X120015Y60452
X122039Y65016
X118110Y61214
X113792Y62611
X115684Y61184
X136525Y65024
X136525Y62357
X143129Y58801
X142240Y68326
X139700Y67564
X152743Y59118
X133096Y66548
X135509Y67310
X144907Y57277
X148463Y59436
X149098Y61087
X153797Y70231
X149479Y67310
X132461Y60071
X138328Y62484
X135255Y60833
X130302Y58547
X148996Y72136
X139700Y56896
X139573Y71755
X146431Y71628
X145047Y68453
X145047Y66408
X144399Y67704
X144018Y66040
X145694Y67704
X145402Y65207
X140335Y65278
X145923Y62230
X148209Y66040
X139573Y64516
X145923Y60452
X147947Y65016
X144018Y61214
X139700Y62611
X141592Y61184
X162433Y65024
X162433Y62357
X169037Y58801
X168148Y68326
X165608Y67564
X178651Y59118
X159004Y66548
X161417Y67310
X170815Y57277
X174371Y59436
X175006Y61087
X179705Y70231
X175387Y67310
X158369Y60071
X164236Y62484
X161163Y60833
X156210Y58547
X174904Y72136
X165608Y56896
X165481Y71755
X172339Y71628
X170955Y68453
X170955Y66408
X170307Y67704
X169926Y66040
X171602Y67704
X171310Y65207
X166243Y65278
X171831Y62230
X174117Y66040
X165481Y64516
X171831Y60452
X173855Y65016
X169926Y61214
X165608Y62611
X167500Y61184
X6985Y90932
X6985Y88265
X13589Y84709
X12700Y94234
X10160Y93472
X23203Y85027
X3556Y92456
X5969Y93218
X15367Y83185
X18923Y85344
X19558Y86995
X24257Y96139
X19939Y93218
X2921Y85979
X8788Y88392
X5715Y86741
X762Y84455
X19456Y98044
X10160Y82804
X10033Y97663
X16891Y97536
X15507Y94361
X15507Y92316
X14859Y93612
X14478Y91948
X16154Y93612
X15862Y91115
X10795Y91186
X16383Y88138
X18669Y91948
X10033Y90424
X16383Y86360
X18407Y90924
X14478Y87122
X10160Y88519
X12052Y87092
X32893Y90932
X32893Y88265
X39497Y84709
X38608Y94234
X36068Y93472
X49111Y85027
X29464Y92456
X31877Y93218
X41275Y83185
X44831Y85344
X45466Y86995
X50165Y96139
X45847Y93218
X28829Y85979
X34696Y88392
X31623Y86741
X26670Y84455
X45364Y98044
X36068Y82804
X35941Y97663
X42799Y97536
X41415Y94361
X41415Y92316
X40767Y93612
X40386Y91948
X42062Y93612
X41770Y91115
X36703Y91186
X42291Y88138
X44577Y91948
X35941Y90424
X42291Y86360
X44315Y90924
X40386Y87122
X36068Y88519
X37960Y87092
X58801Y90932
X58801Y88265
X65405Y84709
X64516Y94234
X61976Y93472
X75019Y85027
X55372Y92456
X57785Y93218
X67183Y83185
X70739Y85344
X71374Y86995
X76073Y96139
X71755Y93218
X54737Y85979
X60604Y88392
X57531Y86741
X52578Y84455
X71272Y98044
X61976Y82804
X61849Y97663
X68707Y97536
X67323Y94361
X67323Y92316
X66675Y93612
X66294Y91948
X67970Y93612
X67678Y91115
X62611Y91186
X68199Y88138
X139700Y10795
X61849Y90424
X68199Y86360
X70223Y90924
X66294Y87122
X61976Y88519
X63868Y87092
X84709Y90932
X84709Y88265
X91313Y84709
X90424Y94234
X87884Y93472
X100927Y85027
X81280Y92456
X83693Y93218
X93091Y83185
X96647Y85344
X97282Y86995
X101981Y96139
X97663Y93218
X80645Y85979
X86512Y88392
X83439Y86741
X78486Y84455
X97180Y98044
X87884Y82804
X87757Y97663
X94615Y97536
X93231Y94361
X93231Y92316
X92583Y93612
X92202Y91948
X93878Y93612
X93586Y91115
X88519Y91186
X94107Y88138
X96393Y91948
X87757Y90424
X94107Y86360
X96131Y90924
X92202Y87122
X87884Y88519
X89776Y87092
X110617Y90932
X110617Y88265
X117221Y84709
X116332Y94234
X113792Y93472
X126835Y85027
X107188Y92456
X109601Y93218
X118999Y83185
X122555Y85344
X123190Y86995
X127889Y96139
X123571Y93218
X106553Y85979
X112420Y88392
X109347Y86741
X104394Y84455
X123088Y98044
X113792Y82804
X113665Y97663
X120523Y97536
X119139Y94361
X119139Y92316
X118491Y93612
X118110Y91948
X119786Y93612
X119494Y91115
X114427Y91186
X120015Y88138
X122301Y91948
X113665Y90424
X120015Y86360
X122039Y90924
X118110Y87122
X113792Y88519
X115684Y87092
X136525Y90932
X136525Y88265
X143129Y84709
X142240Y94234
X139700Y93472
X152743Y85027
X133096Y92456
X135509Y93218
X144907Y83185
X148463Y85344
X149098Y86995
X153797Y96139
X149479Y93218
X132461Y85979
X138328Y88392
X135255Y86741
X130302Y84455
X148996Y98044
X139700Y82804
X139573Y97663
X146431Y97536
X145047Y94361
X145047Y92316
X144399Y93612
X144018Y91948
X145694Y93612
X145402Y91115
X140335Y91186
X145923Y88138
X148209Y91948
X139573Y90424
X145923Y86360
X147947Y90924
X144018Y87122
X139700Y88519
X141592Y87092
X162433Y90932
X162433Y88265
X169037Y84709
X168148Y94234
X165608Y93472
X178651Y85027
X159004Y92456
X161417Y93218
X170815Y83185
X174371Y85344
X175006Y86995
X179705Y96139
X175387Y93218
X158369Y85979
X164236Y88392
X161163Y86741
X156210Y84455
X174904Y98044
X165608Y82804
X165481Y97663
X172339Y97536
X170955Y94361
X170955Y92316
X170307Y93612
X169926Y91948
X171602Y93612
X171310Y91115
X166243Y91186
X171831Y88138
X174117Y91948
X165481Y90424
X171831Y86360
X173855Y90924
X169926Y87122
X165608Y88519
X167500Y87092
X6985Y116840
X6985Y114173
X13589Y110617
X12700Y120142
X10160Y119380
X23203Y110934
X3556Y118364
X5969Y119126
X15367Y109093
X18923Y111252
X19558Y112903
X24257Y122047
X19939Y119126
X2921Y111887
X8788Y114300
X5715Y112649
X762Y110363
X19456Y123952
X10160Y108712
X10033Y123571
X16891Y123444
X15507Y120269
X15507Y118224
X14859Y119520
X14478Y117856
X16154Y119520
X15862Y117023
X10795Y117094
X16383Y114046
X18669Y117856
X10033Y116332
X16383Y112268
X18407Y116832
X14478Y113030
X10160Y114427
X12052Y113000
X32893Y116840
X32893Y114173
X39497Y110617
X38608Y120142
X36068Y119380
X49111Y110934
X29464Y118364
X31877Y119126
X41275Y109093
X44831Y111252
X45466Y112903
X50165Y122047
X45847Y119126
X28829Y111887
X34696Y114300
X31623Y112649
X26670Y110363
X45364Y123952
X36068Y108712
X35941Y123571
X42799Y123444
X41415Y120269
X41415Y118224
X40767Y119520
X40386Y117856
X42062Y119520
X41770Y117023
X36703Y117094
X42291Y114046
X44577Y117856
X35941Y116332
X42291Y112268
X44315Y116832
X40386Y113030
X36068Y114427
X37960Y113000
X58801Y116840
X58801Y114173
X65405Y110617
X64516Y120142
X61976Y119380
X75019Y110934
X55372Y118364
X57785Y119126
X67183Y109093
X70739Y111252
X71374Y112903
X76073Y122047
X71755Y119126
X54737Y111887
X60604Y114300
X57531Y112649
X52578Y110363
X71272Y123952
X61976Y108712
X61849Y123571
X68707Y123444
X67323Y120269
X67323Y118224
X66675Y119520
X66294Y117856
X67970Y119520
X67678Y117023
X62611Y117094
X68199Y114046
X70485Y117856
X61849Y116332
X68199Y112268
X70223Y116832
X66294Y113030
X61976Y114427
X63868Y113000
X84709Y116840
X84709Y114173
X91313Y110617
X90424Y120142
X87884Y119380
X100927Y110934
X81280Y118364
X83693Y119126
X93091Y109093
X96647Y111252
X97282Y112903
X101981Y122047
X97663Y119126
X80645Y111887
X86512Y114300
X83439Y112649
X78486Y110363
X97180Y123952
X87884Y108712
X87757Y123571
X94615Y123444
X93231Y120269
X93231Y118224
X92583Y119520
X92202Y117856
X93878Y119520
X93586Y117023
X88519Y117094
X94107Y114046
X96393Y117856
X87757Y116332
X94107Y112268
X96131Y116832
X92202Y113030
X87884Y114427
X89776Y113000
X110617Y116840
X110617Y114173
X117221Y110617
X116332Y120142
X113792Y119380
X126835Y110934
X107188Y118364
X109601Y119126
X118999Y109093
X122555Y111252
X123190Y112903
X127889Y122047
X123571Y119126
X106553Y111887
X112420Y114300
X109347Y112649
X104394Y110363
X123088Y123952
X113792Y108712
X113665Y123571
X120523Y123444
X119139Y120269
X119139Y118224
X118491Y119520
X118110Y117856
X119786Y119520
X119494Y117023
X114427Y117094
X120015Y114046
X122301Y117856
X113665Y116332
X120015Y112268
X122039Y116832
X118110Y113030
X113792Y114427
X115684Y113000
X136525Y116840
X136525Y114173
X143129Y110617
X142240Y120142
X139700Y119380
X152743Y110934
X133096Y118364
X135509Y119126
X144907Y109093
X148463Y111252
X149098Y112903
X153797Y122047
X149479Y119126
X132461Y111887
X138328Y114300
X135255Y112649
X130302Y110363
X148996Y123952
X139700Y108712
X139573Y123571
X146431Y123444
X145047Y120269
X145047Y118224
X144399Y119520
X144018Y117856
X145694Y119520
X145402Y117023
X140335Y117094
X145923Y114046
X148209Y117856
X139573Y116332
X145923Y112268
X147947Y116832
X144018Y113030
X139700Y114427
X141592Y113000
X162433Y116840
X162433Y114173
X169037Y110617
X168148Y120142
X165608Y119380
X178651Y110934
X159004Y118364
X161417Y119126
X170815Y109093
X174371Y111252
X175006Y112903
X179705Y122047
X175387Y119126
X158369Y111887
X164236Y114300
X161163Y112649
X156210Y110363
X174904Y123952
X165608Y108712
X165481Y123571
X172339Y123444
X170955Y120269
X170955Y118224
X170307Y119520
X169926Y117856
X171602Y119520
X171310Y117023
X166243Y117094
X171831Y114046
X174117Y117856
X165481Y116332
X171831Y112268
X173855Y116832
X169926Y113030
X165608Y114427
X167500Y113000
X6985Y13208
X6985Y10541
X13589Y6985
X12700Y16510
X10160Y15748
X23203Y7302
X3556Y14732
X5969Y15494
X15367Y5461
X18923Y7620
X19558Y9271
X24257Y18415
X19939Y15494
X2921Y8255
X8788Y10668
X5715Y9017
X762Y6731
X19456Y20320
X10160Y5080
X10033Y19939
X16891Y19812
X15507Y16637
X15507Y14592
X14859Y15888
X14478Y14224
X16154Y15888
X15862Y13391
X10795Y13462
X16383Y10414
X18669Y14224
X10033Y12700
X16383Y8636
X18407Y13200
X14478Y9398
X10160Y10795
X12052Y9368
X32893Y13208
X32893Y10541
X39497Y6985
X38608Y16510
X36068Y15748
X49111Y7302
X29464Y14732
X31877Y15494
X41275Y5461
X44831Y7620
X45466Y9271
X50165Y18415
X45847Y15494
X28829Y8255
X34696Y10668
X31623Y9017
X26670Y6731
X45364Y20320
X36068Y5080
X35941Y19939
X42799Y19812
X41415Y16637
X41415Y14592
X40767Y15888
X40386Y14224
X42062Y15888
X41770Y13391
X36703Y13462
X42291Y10414
X44577Y14224
X35941Y12700
X42291Y8636
X44315Y13200
X40386Y9398
X36068Y10795
X37960Y9368
X58801Y13208
X58801Y10541
X65405Y6985
X64516Y16510
X61976Y15748
X75019Y7302
X55372Y14732
X57785Y15494
X67183Y5461
X70739Y7620
X71374Y9271
X76073Y18415
X71755Y15494
X54737Y8255
X60604Y10668
X57531Y9017
X52578Y6731
X71272Y20320
X61976Y5080
X61849Y19939
X68707Y19812
X67323Y16637
X67323Y14592
X66675Y15888
X66294Y14224
X67970Y15888
X67678Y13391
X62611Y13462
X68199Y10414
X70485Y14224
X61849Y12700
X68199Y8636
X70223Y13200
X66294Y9398
X61976Y10795
X63868Y9368
X84709Y13208
X84709Y10541
X91313Y6985
X90424Y16510
X87884Y15748
X100927Y7302
X81280Y14732
X83693Y15494
X93091Y5461
X96647Y7620
X97282Y9271
X101981Y18415
X97663Y15494
X80645Y8255
X86512Y10668
X83439Y9017
X78486Y6731
X97180Y20320
X87884Y5080
X87757Y19939
X94615Y19812
X93231Y16637
X93231Y14592
X92583Y15888
X92202Y14224
X93878Y15888
X93586Y13391
X88519Y13462
X94107Y10414
X96393Y14224
X87757Y12700
X94107Y8636
X96131Y13200
X92202Y9398
X87884Y10795
X89776Y9368
X110617Y13208
X110617Y10541
X117221Y6985
X116332Y16510
X113792Y15748
X126835Y7302
X107188Y14732
X109601Y15494
X118999Y5461
X122555Y7620
X123190Y9271
X127889Y18415
X123571Y15494
X106553Y8255
X112420Y10668
X109347Y9017
X104394Y6731
X123088Y20320
X113792Y5080
X113665Y19939
X120523Y19812
X119139Y16637
X119139Y14592
X118491Y15888
X118110Y14224
X119786Y15888
X119494Y13391
X114427Y13462
X120015Y10414
X122301Y14224
X113665Y12700
X120015Y8636
X122039Y13200
X118110Y9398
X113792Y10795
X115684Y9368
X136525Y13208
X136525Y10541
X143129Y6985
X142240Y16510
X139700Y15748
X152743Y7302
X133096Y14732
X135509Y15494
X144907Y5461
X148463Y7620
X149098Y9271
X153797Y18415
X149479Y15494
X132461Y8255
X138328Y10668
X135255Y9017
X130302Y6731
X148996Y20320
X139700Y5080
X139573Y19939
X146431Y19812
X145047Y16637
X145047Y14592
X144399Y15888
X144018Y14224
X145694Y15888
X145402Y13391
X140335Y13462
X145923Y10414
X148209Y14224
X139573Y12700
X145923Y8636
X147947Y13200
X144018Y9398
X141592Y9368
X162433Y13208
X162433Y10541
X169037Y6985
X168148Y16510
X165608Y15748
X178651Y7302
X159004Y14732
X161417Y15494
X170815Y5461
X174371Y7620
X175006Y9271
X179705Y18415
X175387Y15494
X158369Y8255
X164236Y10668
X161163Y9017
X156210Y6731
X174904Y20320
X165608Y5080
X165481Y19939
X172339Y19812
X170955Y16637
X170955Y14592
X170307Y15888
X169926Y14224
X70485Y91948
X171602Y15888
X171310Y13391
X166243Y13462
X171831Y10414
X174117Y14224
X165481Y12700
X171831Y8636
X173855Y13200
X169926Y9398
X165608Y10795
X167500Y9368
X6985Y39116
X6985Y36449
X13589Y32893
X12700Y42418
X10160Y41656
X23203Y33211
X3556Y40640
X5969Y41402
X15367Y31369
X18923Y33528
X19558Y35179
X24257Y44323
X19939Y41402
X2921Y34163
X8788Y36576
X5715Y34925
X762Y32639
X19456Y46228
X10160Y30988
X10033Y45847
X16891Y45720
X15507Y42545
X15507Y40500
X14859Y41796
X14478Y40132
X16154Y41796
X15862Y39299
X10795Y39370
X16383Y36322
X18669Y40132
X10033Y38608
X16383Y34544
X18407Y39108
X14478Y35306
X10160Y36703
X12052Y35276
X32893Y39116
X32893Y36449
X39497Y32893
X38608Y42418
X36068Y41656
X49111Y33211
X29464Y40640
X31877Y41402
X41275Y31369
X44831Y33528
X45466Y35179
X50165Y44323
X45847Y41402
X28829Y34163
X34696Y36576
X31623Y34925
X26670Y32639
X45364Y46228
X36068Y30988
X35941Y45847
X42799Y45720
X41415Y42545
X41415Y40500
X40767Y41796
X40386Y40132
X42062Y41796
X41770Y39299
X36703Y39370
X42291Y36322
X44577Y40132
X35941Y38608
X42291Y34544
X44315Y39108
X40386Y35306
X36068Y36703
X37960Y35276
X58801Y39116
X58801Y36449
X65405Y32893
X64516Y42418
X61976Y41656
X75019Y33211
X55372Y40640
X57785Y41402
X67183Y31369
X70739Y33528
X71374Y35179
X76073Y44323
X71755Y41402
X54737Y34163
X60604Y36576
X57531Y34925
X52578Y32639
X71272Y46228
X61976Y30988
X61849Y45847
X68707Y45720
X67323Y42545
X67323Y40500
X66675Y41796
X66294Y40132
X67970Y41796
X67678Y39299
X62611Y39370
X68199Y36322
X70485Y40132
X61849Y38608
X68199Y34544
X70223Y39108
X66294Y35306
X61976Y36703
X63868Y35276
X84709Y39116
X84709Y36449
X91313Y32893
X90424Y42418
X87884Y41656
X100927Y33211
X81280Y40640
X83693Y41402
X93091Y31369
X96647Y33528
X97282Y35179
X101981Y44323
X97663Y41402
X80645Y34163
X86512Y36576
X83439Y34925
X78486Y32639
X97180Y46228
X87884Y30988
X87757Y45847
X94615Y45720
X93231Y42545
X93231Y40500
X92583Y41796
X92202Y40132
X93878Y41796
X93586Y39299
X88519Y39370
X94107Y36322
X96393Y40132
X87757Y38608
X94107Y34544
X96131Y39108
X92202Y35306
X87884Y36703
X89776Y35276
X110617Y39116
X110617Y36449
X117221Y32893
X116332Y42418
X113792Y41656
X126835Y33211
X107188Y40640
X109601Y41402
X118999Y31369
X122555Y33528
X123190Y35179
X127889Y44323
X123571Y41402
X106553Y34163
X112420Y36576
X109347Y34925
X104394Y32639
X123088Y46228
X113792Y30988
X113665Y45847
X120523Y45720
X119139Y42545
X119139Y40500
X118491Y41796
X118110Y40132
X119786Y41796
X119494Y39299
X114427Y39370
X120015Y36322
X122301Y40132
X113665Y38608
X120015Y34544
X122039Y39108
X118110Y35306
X113792Y36703
X115684Y35276
X136525Y39116
X136525Y36449
X143129Y32893
X142240Y42418
X139700Y41656
X152743Y33211
X133096Y40640
X135509Y41402
X144907Y31369
X148463Y33528
X149098Y35179
X153797Y44323
X149479Y41402
X132461Y34163
X138328Y36576
X135255Y34925
X130302Y32639
X148996Y46228
X139700Y30988
X139573Y45847
X146431Y45720
X145047Y42545
X145047Y40500
M30