G04 EAGLE Gerber RS-274X export*
G75*
%MOMM*%
%FSLAX34Y34*%
%LPD*%
%INSoldermask Top*%
%IPPOS*%
%AMOC8*
5,1,8,0,0,1.08239X$1,22.5*%
G01*
%ADD10R,0.444500X1.079500*%
%ADD11C,3.505200*%
%ADD12C,0.838200*%
%ADD13R,2.203200X1.403200*%
%ADD14R,1.553200X0.803200*%
%ADD15R,1.303200X1.203200*%
%ADD16R,1.203200X1.303200*%
%ADD17C,0.505344*%
%ADD18R,0.863600X1.473200*%
%ADD19C,2.082800*%
%ADD20R,0.478200X0.453200*%
%ADD21R,0.453200X0.478200*%
%ADD22C,1.203200*%
%ADD23C,1.270000*%
%ADD24C,1.703200*%

G36*
X65470Y955687D02*
X65470Y955687D01*
X65536Y955689D01*
X65579Y955707D01*
X65626Y955715D01*
X65683Y955749D01*
X65743Y955774D01*
X65778Y955805D01*
X65819Y955830D01*
X65861Y955881D01*
X65909Y955925D01*
X65931Y955967D01*
X65960Y956004D01*
X65981Y956066D01*
X66012Y956125D01*
X66020Y956179D01*
X66032Y956216D01*
X66031Y956256D01*
X66039Y956310D01*
X66039Y958850D01*
X66028Y958915D01*
X66026Y958981D01*
X66008Y959024D01*
X66000Y959071D01*
X65966Y959128D01*
X65941Y959188D01*
X65910Y959223D01*
X65885Y959264D01*
X65834Y959306D01*
X65790Y959354D01*
X65748Y959376D01*
X65711Y959405D01*
X65649Y959426D01*
X65590Y959457D01*
X65536Y959465D01*
X65499Y959477D01*
X65459Y959476D01*
X65405Y959484D01*
X61595Y959484D01*
X61530Y959473D01*
X61464Y959471D01*
X61421Y959453D01*
X61374Y959445D01*
X61317Y959411D01*
X61257Y959386D01*
X61222Y959355D01*
X61181Y959330D01*
X61140Y959279D01*
X61091Y959235D01*
X61069Y959193D01*
X61040Y959156D01*
X61019Y959094D01*
X60988Y959035D01*
X60980Y958981D01*
X60968Y958944D01*
X60968Y958941D01*
X60969Y958904D01*
X60961Y958850D01*
X60961Y956310D01*
X60972Y956245D01*
X60974Y956179D01*
X60992Y956136D01*
X61000Y956089D01*
X61034Y956032D01*
X61059Y955972D01*
X61090Y955937D01*
X61115Y955896D01*
X61166Y955855D01*
X61210Y955806D01*
X61252Y955784D01*
X61289Y955755D01*
X61351Y955734D01*
X61410Y955703D01*
X61464Y955695D01*
X61501Y955683D01*
X61541Y955684D01*
X61595Y955676D01*
X65405Y955676D01*
X65470Y955687D01*
G37*
G36*
X583630Y955687D02*
X583630Y955687D01*
X583696Y955689D01*
X583739Y955707D01*
X583786Y955715D01*
X583843Y955749D01*
X583903Y955774D01*
X583938Y955805D01*
X583979Y955830D01*
X584021Y955881D01*
X584069Y955925D01*
X584091Y955967D01*
X584120Y956004D01*
X584141Y956066D01*
X584172Y956125D01*
X584180Y956179D01*
X584192Y956216D01*
X584191Y956256D01*
X584199Y956310D01*
X584199Y958850D01*
X584188Y958915D01*
X584186Y958981D01*
X584168Y959024D01*
X584160Y959071D01*
X584126Y959128D01*
X584101Y959188D01*
X584070Y959223D01*
X584045Y959264D01*
X583994Y959306D01*
X583950Y959354D01*
X583908Y959376D01*
X583871Y959405D01*
X583809Y959426D01*
X583750Y959457D01*
X583696Y959465D01*
X583659Y959477D01*
X583619Y959476D01*
X583565Y959484D01*
X579755Y959484D01*
X579690Y959473D01*
X579624Y959471D01*
X579581Y959453D01*
X579534Y959445D01*
X579477Y959411D01*
X579417Y959386D01*
X579382Y959355D01*
X579341Y959330D01*
X579300Y959279D01*
X579251Y959235D01*
X579229Y959193D01*
X579200Y959156D01*
X579179Y959094D01*
X579148Y959035D01*
X579140Y958981D01*
X579128Y958944D01*
X579128Y958941D01*
X579129Y958904D01*
X579121Y958850D01*
X579121Y956310D01*
X579132Y956245D01*
X579134Y956179D01*
X579152Y956136D01*
X579160Y956089D01*
X579194Y956032D01*
X579219Y955972D01*
X579250Y955937D01*
X579275Y955896D01*
X579326Y955855D01*
X579370Y955806D01*
X579412Y955784D01*
X579449Y955755D01*
X579511Y955734D01*
X579570Y955703D01*
X579624Y955695D01*
X579661Y955683D01*
X579701Y955684D01*
X579755Y955676D01*
X583565Y955676D01*
X583630Y955687D01*
G37*
G36*
X324550Y955687D02*
X324550Y955687D01*
X324616Y955689D01*
X324659Y955707D01*
X324706Y955715D01*
X324763Y955749D01*
X324823Y955774D01*
X324858Y955805D01*
X324899Y955830D01*
X324941Y955881D01*
X324989Y955925D01*
X325011Y955967D01*
X325040Y956004D01*
X325061Y956066D01*
X325092Y956125D01*
X325100Y956179D01*
X325112Y956216D01*
X325111Y956256D01*
X325119Y956310D01*
X325119Y958850D01*
X325108Y958915D01*
X325106Y958981D01*
X325088Y959024D01*
X325080Y959071D01*
X325046Y959128D01*
X325021Y959188D01*
X324990Y959223D01*
X324965Y959264D01*
X324914Y959306D01*
X324870Y959354D01*
X324828Y959376D01*
X324791Y959405D01*
X324729Y959426D01*
X324670Y959457D01*
X324616Y959465D01*
X324579Y959477D01*
X324539Y959476D01*
X324485Y959484D01*
X320675Y959484D01*
X320610Y959473D01*
X320544Y959471D01*
X320501Y959453D01*
X320454Y959445D01*
X320397Y959411D01*
X320337Y959386D01*
X320302Y959355D01*
X320261Y959330D01*
X320220Y959279D01*
X320171Y959235D01*
X320149Y959193D01*
X320120Y959156D01*
X320099Y959094D01*
X320068Y959035D01*
X320060Y958981D01*
X320048Y958944D01*
X320048Y958941D01*
X320049Y958904D01*
X320041Y958850D01*
X320041Y956310D01*
X320052Y956245D01*
X320054Y956179D01*
X320072Y956136D01*
X320080Y956089D01*
X320114Y956032D01*
X320139Y955972D01*
X320170Y955937D01*
X320195Y955896D01*
X320246Y955855D01*
X320290Y955806D01*
X320332Y955784D01*
X320369Y955755D01*
X320431Y955734D01*
X320490Y955703D01*
X320544Y955695D01*
X320581Y955683D01*
X320621Y955684D01*
X320675Y955676D01*
X324485Y955676D01*
X324550Y955687D01*
G37*
G36*
X842710Y955687D02*
X842710Y955687D01*
X842776Y955689D01*
X842819Y955707D01*
X842866Y955715D01*
X842923Y955749D01*
X842983Y955774D01*
X843018Y955805D01*
X843059Y955830D01*
X843101Y955881D01*
X843149Y955925D01*
X843171Y955967D01*
X843200Y956004D01*
X843221Y956066D01*
X843252Y956125D01*
X843260Y956179D01*
X843272Y956216D01*
X843271Y956256D01*
X843279Y956310D01*
X843279Y958850D01*
X843268Y958915D01*
X843266Y958981D01*
X843248Y959024D01*
X843240Y959071D01*
X843206Y959128D01*
X843181Y959188D01*
X843150Y959223D01*
X843125Y959264D01*
X843074Y959306D01*
X843030Y959354D01*
X842988Y959376D01*
X842951Y959405D01*
X842889Y959426D01*
X842830Y959457D01*
X842776Y959465D01*
X842739Y959477D01*
X842699Y959476D01*
X842645Y959484D01*
X838835Y959484D01*
X838770Y959473D01*
X838704Y959471D01*
X838661Y959453D01*
X838614Y959445D01*
X838557Y959411D01*
X838497Y959386D01*
X838462Y959355D01*
X838421Y959330D01*
X838380Y959279D01*
X838331Y959235D01*
X838309Y959193D01*
X838280Y959156D01*
X838259Y959094D01*
X838228Y959035D01*
X838220Y958981D01*
X838208Y958944D01*
X838208Y958941D01*
X838209Y958904D01*
X838201Y958850D01*
X838201Y956310D01*
X838212Y956245D01*
X838214Y956179D01*
X838232Y956136D01*
X838240Y956089D01*
X838274Y956032D01*
X838299Y955972D01*
X838330Y955937D01*
X838355Y955896D01*
X838406Y955855D01*
X838450Y955806D01*
X838492Y955784D01*
X838529Y955755D01*
X838591Y955734D01*
X838650Y955703D01*
X838704Y955695D01*
X838741Y955683D01*
X838781Y955684D01*
X838835Y955676D01*
X842645Y955676D01*
X842710Y955687D01*
G37*
G36*
X1619950Y955687D02*
X1619950Y955687D01*
X1620016Y955689D01*
X1620059Y955707D01*
X1620106Y955715D01*
X1620163Y955749D01*
X1620223Y955774D01*
X1620258Y955805D01*
X1620299Y955830D01*
X1620341Y955881D01*
X1620389Y955925D01*
X1620411Y955967D01*
X1620440Y956004D01*
X1620461Y956066D01*
X1620492Y956125D01*
X1620500Y956179D01*
X1620512Y956216D01*
X1620511Y956256D01*
X1620519Y956310D01*
X1620519Y958850D01*
X1620508Y958915D01*
X1620506Y958981D01*
X1620488Y959024D01*
X1620480Y959071D01*
X1620446Y959128D01*
X1620421Y959188D01*
X1620390Y959223D01*
X1620365Y959264D01*
X1620314Y959306D01*
X1620270Y959354D01*
X1620228Y959376D01*
X1620191Y959405D01*
X1620129Y959426D01*
X1620070Y959457D01*
X1620016Y959465D01*
X1619979Y959477D01*
X1619939Y959476D01*
X1619885Y959484D01*
X1616075Y959484D01*
X1616010Y959473D01*
X1615944Y959471D01*
X1615901Y959453D01*
X1615854Y959445D01*
X1615797Y959411D01*
X1615737Y959386D01*
X1615702Y959355D01*
X1615661Y959330D01*
X1615620Y959279D01*
X1615571Y959235D01*
X1615549Y959193D01*
X1615520Y959156D01*
X1615499Y959094D01*
X1615468Y959035D01*
X1615460Y958981D01*
X1615448Y958944D01*
X1615448Y958941D01*
X1615449Y958904D01*
X1615441Y958850D01*
X1615441Y956310D01*
X1615452Y956245D01*
X1615454Y956179D01*
X1615472Y956136D01*
X1615480Y956089D01*
X1615514Y956032D01*
X1615539Y955972D01*
X1615570Y955937D01*
X1615595Y955896D01*
X1615646Y955855D01*
X1615690Y955806D01*
X1615732Y955784D01*
X1615769Y955755D01*
X1615831Y955734D01*
X1615890Y955703D01*
X1615944Y955695D01*
X1615981Y955683D01*
X1616021Y955684D01*
X1616075Y955676D01*
X1619885Y955676D01*
X1619950Y955687D01*
G37*
G36*
X1101790Y955687D02*
X1101790Y955687D01*
X1101856Y955689D01*
X1101899Y955707D01*
X1101946Y955715D01*
X1102003Y955749D01*
X1102063Y955774D01*
X1102098Y955805D01*
X1102139Y955830D01*
X1102181Y955881D01*
X1102229Y955925D01*
X1102251Y955967D01*
X1102280Y956004D01*
X1102301Y956066D01*
X1102332Y956125D01*
X1102340Y956179D01*
X1102352Y956216D01*
X1102351Y956256D01*
X1102359Y956310D01*
X1102359Y958850D01*
X1102348Y958915D01*
X1102346Y958981D01*
X1102328Y959024D01*
X1102320Y959071D01*
X1102286Y959128D01*
X1102261Y959188D01*
X1102230Y959223D01*
X1102205Y959264D01*
X1102154Y959306D01*
X1102110Y959354D01*
X1102068Y959376D01*
X1102031Y959405D01*
X1101969Y959426D01*
X1101910Y959457D01*
X1101856Y959465D01*
X1101819Y959477D01*
X1101779Y959476D01*
X1101725Y959484D01*
X1097915Y959484D01*
X1097850Y959473D01*
X1097784Y959471D01*
X1097741Y959453D01*
X1097694Y959445D01*
X1097637Y959411D01*
X1097577Y959386D01*
X1097542Y959355D01*
X1097501Y959330D01*
X1097460Y959279D01*
X1097411Y959235D01*
X1097389Y959193D01*
X1097360Y959156D01*
X1097339Y959094D01*
X1097308Y959035D01*
X1097300Y958981D01*
X1097288Y958944D01*
X1097288Y958941D01*
X1097289Y958904D01*
X1097281Y958850D01*
X1097281Y956310D01*
X1097292Y956245D01*
X1097294Y956179D01*
X1097312Y956136D01*
X1097320Y956089D01*
X1097354Y956032D01*
X1097379Y955972D01*
X1097410Y955937D01*
X1097435Y955896D01*
X1097486Y955855D01*
X1097530Y955806D01*
X1097572Y955784D01*
X1097609Y955755D01*
X1097671Y955734D01*
X1097730Y955703D01*
X1097784Y955695D01*
X1097821Y955683D01*
X1097861Y955684D01*
X1097915Y955676D01*
X1101725Y955676D01*
X1101790Y955687D01*
G37*
G36*
X1360870Y955687D02*
X1360870Y955687D01*
X1360936Y955689D01*
X1360979Y955707D01*
X1361026Y955715D01*
X1361083Y955749D01*
X1361143Y955774D01*
X1361178Y955805D01*
X1361219Y955830D01*
X1361261Y955881D01*
X1361309Y955925D01*
X1361331Y955967D01*
X1361360Y956004D01*
X1361381Y956066D01*
X1361412Y956125D01*
X1361420Y956179D01*
X1361432Y956216D01*
X1361431Y956256D01*
X1361439Y956310D01*
X1361439Y958850D01*
X1361428Y958915D01*
X1361426Y958981D01*
X1361408Y959024D01*
X1361400Y959071D01*
X1361366Y959128D01*
X1361341Y959188D01*
X1361310Y959223D01*
X1361285Y959264D01*
X1361234Y959306D01*
X1361190Y959354D01*
X1361148Y959376D01*
X1361111Y959405D01*
X1361049Y959426D01*
X1360990Y959457D01*
X1360936Y959465D01*
X1360899Y959477D01*
X1360859Y959476D01*
X1360805Y959484D01*
X1356995Y959484D01*
X1356930Y959473D01*
X1356864Y959471D01*
X1356821Y959453D01*
X1356774Y959445D01*
X1356717Y959411D01*
X1356657Y959386D01*
X1356622Y959355D01*
X1356581Y959330D01*
X1356540Y959279D01*
X1356491Y959235D01*
X1356469Y959193D01*
X1356440Y959156D01*
X1356419Y959094D01*
X1356388Y959035D01*
X1356380Y958981D01*
X1356368Y958944D01*
X1356368Y958941D01*
X1356369Y958904D01*
X1356361Y958850D01*
X1356361Y956310D01*
X1356372Y956245D01*
X1356374Y956179D01*
X1356392Y956136D01*
X1356400Y956089D01*
X1356434Y956032D01*
X1356459Y955972D01*
X1356490Y955937D01*
X1356515Y955896D01*
X1356566Y955855D01*
X1356610Y955806D01*
X1356652Y955784D01*
X1356689Y955755D01*
X1356751Y955734D01*
X1356810Y955703D01*
X1356864Y955695D01*
X1356901Y955683D01*
X1356941Y955684D01*
X1356995Y955676D01*
X1360805Y955676D01*
X1360870Y955687D01*
G37*
G36*
X1619950Y1214767D02*
X1619950Y1214767D01*
X1620016Y1214769D01*
X1620059Y1214787D01*
X1620106Y1214795D01*
X1620163Y1214829D01*
X1620223Y1214854D01*
X1620258Y1214885D01*
X1620299Y1214910D01*
X1620341Y1214961D01*
X1620389Y1215005D01*
X1620411Y1215047D01*
X1620440Y1215084D01*
X1620461Y1215146D01*
X1620492Y1215205D01*
X1620500Y1215259D01*
X1620512Y1215296D01*
X1620511Y1215336D01*
X1620519Y1215390D01*
X1620519Y1217930D01*
X1620508Y1217995D01*
X1620506Y1218061D01*
X1620488Y1218104D01*
X1620480Y1218151D01*
X1620446Y1218208D01*
X1620421Y1218268D01*
X1620390Y1218303D01*
X1620365Y1218344D01*
X1620314Y1218386D01*
X1620270Y1218434D01*
X1620228Y1218456D01*
X1620191Y1218485D01*
X1620129Y1218506D01*
X1620070Y1218537D01*
X1620016Y1218545D01*
X1619979Y1218557D01*
X1619939Y1218556D01*
X1619885Y1218564D01*
X1616075Y1218564D01*
X1616010Y1218553D01*
X1615944Y1218551D01*
X1615901Y1218533D01*
X1615854Y1218525D01*
X1615797Y1218491D01*
X1615737Y1218466D01*
X1615702Y1218435D01*
X1615661Y1218410D01*
X1615620Y1218359D01*
X1615571Y1218315D01*
X1615549Y1218273D01*
X1615520Y1218236D01*
X1615499Y1218174D01*
X1615468Y1218115D01*
X1615460Y1218061D01*
X1615448Y1218024D01*
X1615448Y1218021D01*
X1615449Y1217984D01*
X1615441Y1217930D01*
X1615441Y1215390D01*
X1615452Y1215325D01*
X1615454Y1215259D01*
X1615472Y1215216D01*
X1615480Y1215169D01*
X1615514Y1215112D01*
X1615539Y1215052D01*
X1615570Y1215017D01*
X1615595Y1214976D01*
X1615646Y1214935D01*
X1615690Y1214886D01*
X1615732Y1214864D01*
X1615769Y1214835D01*
X1615831Y1214814D01*
X1615890Y1214783D01*
X1615944Y1214775D01*
X1615981Y1214763D01*
X1616021Y1214764D01*
X1616075Y1214756D01*
X1619885Y1214756D01*
X1619950Y1214767D01*
G37*
G36*
X1101790Y1214767D02*
X1101790Y1214767D01*
X1101856Y1214769D01*
X1101899Y1214787D01*
X1101946Y1214795D01*
X1102003Y1214829D01*
X1102063Y1214854D01*
X1102098Y1214885D01*
X1102139Y1214910D01*
X1102181Y1214961D01*
X1102229Y1215005D01*
X1102251Y1215047D01*
X1102280Y1215084D01*
X1102301Y1215146D01*
X1102332Y1215205D01*
X1102340Y1215259D01*
X1102352Y1215296D01*
X1102351Y1215336D01*
X1102359Y1215390D01*
X1102359Y1217930D01*
X1102348Y1217995D01*
X1102346Y1218061D01*
X1102328Y1218104D01*
X1102320Y1218151D01*
X1102286Y1218208D01*
X1102261Y1218268D01*
X1102230Y1218303D01*
X1102205Y1218344D01*
X1102154Y1218386D01*
X1102110Y1218434D01*
X1102068Y1218456D01*
X1102031Y1218485D01*
X1101969Y1218506D01*
X1101910Y1218537D01*
X1101856Y1218545D01*
X1101819Y1218557D01*
X1101779Y1218556D01*
X1101725Y1218564D01*
X1097915Y1218564D01*
X1097850Y1218553D01*
X1097784Y1218551D01*
X1097741Y1218533D01*
X1097694Y1218525D01*
X1097637Y1218491D01*
X1097577Y1218466D01*
X1097542Y1218435D01*
X1097501Y1218410D01*
X1097460Y1218359D01*
X1097411Y1218315D01*
X1097389Y1218273D01*
X1097360Y1218236D01*
X1097339Y1218174D01*
X1097308Y1218115D01*
X1097300Y1218061D01*
X1097288Y1218024D01*
X1097288Y1218021D01*
X1097289Y1217984D01*
X1097281Y1217930D01*
X1097281Y1215390D01*
X1097292Y1215325D01*
X1097294Y1215259D01*
X1097312Y1215216D01*
X1097320Y1215169D01*
X1097354Y1215112D01*
X1097379Y1215052D01*
X1097410Y1215017D01*
X1097435Y1214976D01*
X1097486Y1214935D01*
X1097530Y1214886D01*
X1097572Y1214864D01*
X1097609Y1214835D01*
X1097671Y1214814D01*
X1097730Y1214783D01*
X1097784Y1214775D01*
X1097821Y1214763D01*
X1097861Y1214764D01*
X1097915Y1214756D01*
X1101725Y1214756D01*
X1101790Y1214767D01*
G37*
G36*
X324550Y1214767D02*
X324550Y1214767D01*
X324616Y1214769D01*
X324659Y1214787D01*
X324706Y1214795D01*
X324763Y1214829D01*
X324823Y1214854D01*
X324858Y1214885D01*
X324899Y1214910D01*
X324941Y1214961D01*
X324989Y1215005D01*
X325011Y1215047D01*
X325040Y1215084D01*
X325061Y1215146D01*
X325092Y1215205D01*
X325100Y1215259D01*
X325112Y1215296D01*
X325111Y1215336D01*
X325119Y1215390D01*
X325119Y1217930D01*
X325108Y1217995D01*
X325106Y1218061D01*
X325088Y1218104D01*
X325080Y1218151D01*
X325046Y1218208D01*
X325021Y1218268D01*
X324990Y1218303D01*
X324965Y1218344D01*
X324914Y1218386D01*
X324870Y1218434D01*
X324828Y1218456D01*
X324791Y1218485D01*
X324729Y1218506D01*
X324670Y1218537D01*
X324616Y1218545D01*
X324579Y1218557D01*
X324539Y1218556D01*
X324485Y1218564D01*
X320675Y1218564D01*
X320610Y1218553D01*
X320544Y1218551D01*
X320501Y1218533D01*
X320454Y1218525D01*
X320397Y1218491D01*
X320337Y1218466D01*
X320302Y1218435D01*
X320261Y1218410D01*
X320220Y1218359D01*
X320171Y1218315D01*
X320149Y1218273D01*
X320120Y1218236D01*
X320099Y1218174D01*
X320068Y1218115D01*
X320060Y1218061D01*
X320048Y1218024D01*
X320048Y1218021D01*
X320049Y1217984D01*
X320041Y1217930D01*
X320041Y1215390D01*
X320052Y1215325D01*
X320054Y1215259D01*
X320072Y1215216D01*
X320080Y1215169D01*
X320114Y1215112D01*
X320139Y1215052D01*
X320170Y1215017D01*
X320195Y1214976D01*
X320246Y1214935D01*
X320290Y1214886D01*
X320332Y1214864D01*
X320369Y1214835D01*
X320431Y1214814D01*
X320490Y1214783D01*
X320544Y1214775D01*
X320581Y1214763D01*
X320621Y1214764D01*
X320675Y1214756D01*
X324485Y1214756D01*
X324550Y1214767D01*
G37*
G36*
X842710Y1214767D02*
X842710Y1214767D01*
X842776Y1214769D01*
X842819Y1214787D01*
X842866Y1214795D01*
X842923Y1214829D01*
X842983Y1214854D01*
X843018Y1214885D01*
X843059Y1214910D01*
X843101Y1214961D01*
X843149Y1215005D01*
X843171Y1215047D01*
X843200Y1215084D01*
X843221Y1215146D01*
X843252Y1215205D01*
X843260Y1215259D01*
X843272Y1215296D01*
X843271Y1215336D01*
X843279Y1215390D01*
X843279Y1217930D01*
X843268Y1217995D01*
X843266Y1218061D01*
X843248Y1218104D01*
X843240Y1218151D01*
X843206Y1218208D01*
X843181Y1218268D01*
X843150Y1218303D01*
X843125Y1218344D01*
X843074Y1218386D01*
X843030Y1218434D01*
X842988Y1218456D01*
X842951Y1218485D01*
X842889Y1218506D01*
X842830Y1218537D01*
X842776Y1218545D01*
X842739Y1218557D01*
X842699Y1218556D01*
X842645Y1218564D01*
X838835Y1218564D01*
X838770Y1218553D01*
X838704Y1218551D01*
X838661Y1218533D01*
X838614Y1218525D01*
X838557Y1218491D01*
X838497Y1218466D01*
X838462Y1218435D01*
X838421Y1218410D01*
X838380Y1218359D01*
X838331Y1218315D01*
X838309Y1218273D01*
X838280Y1218236D01*
X838259Y1218174D01*
X838228Y1218115D01*
X838220Y1218061D01*
X838208Y1218024D01*
X838208Y1218021D01*
X838209Y1217984D01*
X838201Y1217930D01*
X838201Y1215390D01*
X838212Y1215325D01*
X838214Y1215259D01*
X838232Y1215216D01*
X838240Y1215169D01*
X838274Y1215112D01*
X838299Y1215052D01*
X838330Y1215017D01*
X838355Y1214976D01*
X838406Y1214935D01*
X838450Y1214886D01*
X838492Y1214864D01*
X838529Y1214835D01*
X838591Y1214814D01*
X838650Y1214783D01*
X838704Y1214775D01*
X838741Y1214763D01*
X838781Y1214764D01*
X838835Y1214756D01*
X842645Y1214756D01*
X842710Y1214767D01*
G37*
G36*
X583630Y1214767D02*
X583630Y1214767D01*
X583696Y1214769D01*
X583739Y1214787D01*
X583786Y1214795D01*
X583843Y1214829D01*
X583903Y1214854D01*
X583938Y1214885D01*
X583979Y1214910D01*
X584021Y1214961D01*
X584069Y1215005D01*
X584091Y1215047D01*
X584120Y1215084D01*
X584141Y1215146D01*
X584172Y1215205D01*
X584180Y1215259D01*
X584192Y1215296D01*
X584191Y1215336D01*
X584199Y1215390D01*
X584199Y1217930D01*
X584188Y1217995D01*
X584186Y1218061D01*
X584168Y1218104D01*
X584160Y1218151D01*
X584126Y1218208D01*
X584101Y1218268D01*
X584070Y1218303D01*
X584045Y1218344D01*
X583994Y1218386D01*
X583950Y1218434D01*
X583908Y1218456D01*
X583871Y1218485D01*
X583809Y1218506D01*
X583750Y1218537D01*
X583696Y1218545D01*
X583659Y1218557D01*
X583619Y1218556D01*
X583565Y1218564D01*
X579755Y1218564D01*
X579690Y1218553D01*
X579624Y1218551D01*
X579581Y1218533D01*
X579534Y1218525D01*
X579477Y1218491D01*
X579417Y1218466D01*
X579382Y1218435D01*
X579341Y1218410D01*
X579300Y1218359D01*
X579251Y1218315D01*
X579229Y1218273D01*
X579200Y1218236D01*
X579179Y1218174D01*
X579148Y1218115D01*
X579140Y1218061D01*
X579128Y1218024D01*
X579128Y1218021D01*
X579129Y1217984D01*
X579121Y1217930D01*
X579121Y1215390D01*
X579132Y1215325D01*
X579134Y1215259D01*
X579152Y1215216D01*
X579160Y1215169D01*
X579194Y1215112D01*
X579219Y1215052D01*
X579250Y1215017D01*
X579275Y1214976D01*
X579326Y1214935D01*
X579370Y1214886D01*
X579412Y1214864D01*
X579449Y1214835D01*
X579511Y1214814D01*
X579570Y1214783D01*
X579624Y1214775D01*
X579661Y1214763D01*
X579701Y1214764D01*
X579755Y1214756D01*
X583565Y1214756D01*
X583630Y1214767D01*
G37*
G36*
X65470Y1214767D02*
X65470Y1214767D01*
X65536Y1214769D01*
X65579Y1214787D01*
X65626Y1214795D01*
X65683Y1214829D01*
X65743Y1214854D01*
X65778Y1214885D01*
X65819Y1214910D01*
X65861Y1214961D01*
X65909Y1215005D01*
X65931Y1215047D01*
X65960Y1215084D01*
X65981Y1215146D01*
X66012Y1215205D01*
X66020Y1215259D01*
X66032Y1215296D01*
X66031Y1215336D01*
X66039Y1215390D01*
X66039Y1217930D01*
X66028Y1217995D01*
X66026Y1218061D01*
X66008Y1218104D01*
X66000Y1218151D01*
X65966Y1218208D01*
X65941Y1218268D01*
X65910Y1218303D01*
X65885Y1218344D01*
X65834Y1218386D01*
X65790Y1218434D01*
X65748Y1218456D01*
X65711Y1218485D01*
X65649Y1218506D01*
X65590Y1218537D01*
X65536Y1218545D01*
X65499Y1218557D01*
X65459Y1218556D01*
X65405Y1218564D01*
X61595Y1218564D01*
X61530Y1218553D01*
X61464Y1218551D01*
X61421Y1218533D01*
X61374Y1218525D01*
X61317Y1218491D01*
X61257Y1218466D01*
X61222Y1218435D01*
X61181Y1218410D01*
X61140Y1218359D01*
X61091Y1218315D01*
X61069Y1218273D01*
X61040Y1218236D01*
X61019Y1218174D01*
X60988Y1218115D01*
X60980Y1218061D01*
X60968Y1218024D01*
X60968Y1218021D01*
X60969Y1217984D01*
X60961Y1217930D01*
X60961Y1215390D01*
X60972Y1215325D01*
X60974Y1215259D01*
X60992Y1215216D01*
X61000Y1215169D01*
X61034Y1215112D01*
X61059Y1215052D01*
X61090Y1215017D01*
X61115Y1214976D01*
X61166Y1214935D01*
X61210Y1214886D01*
X61252Y1214864D01*
X61289Y1214835D01*
X61351Y1214814D01*
X61410Y1214783D01*
X61464Y1214775D01*
X61501Y1214763D01*
X61541Y1214764D01*
X61595Y1214756D01*
X65405Y1214756D01*
X65470Y1214767D01*
G37*
G36*
X1360870Y1214767D02*
X1360870Y1214767D01*
X1360936Y1214769D01*
X1360979Y1214787D01*
X1361026Y1214795D01*
X1361083Y1214829D01*
X1361143Y1214854D01*
X1361178Y1214885D01*
X1361219Y1214910D01*
X1361261Y1214961D01*
X1361309Y1215005D01*
X1361331Y1215047D01*
X1361360Y1215084D01*
X1361381Y1215146D01*
X1361412Y1215205D01*
X1361420Y1215259D01*
X1361432Y1215296D01*
X1361431Y1215336D01*
X1361439Y1215390D01*
X1361439Y1217930D01*
X1361428Y1217995D01*
X1361426Y1218061D01*
X1361408Y1218104D01*
X1361400Y1218151D01*
X1361366Y1218208D01*
X1361341Y1218268D01*
X1361310Y1218303D01*
X1361285Y1218344D01*
X1361234Y1218386D01*
X1361190Y1218434D01*
X1361148Y1218456D01*
X1361111Y1218485D01*
X1361049Y1218506D01*
X1360990Y1218537D01*
X1360936Y1218545D01*
X1360899Y1218557D01*
X1360859Y1218556D01*
X1360805Y1218564D01*
X1356995Y1218564D01*
X1356930Y1218553D01*
X1356864Y1218551D01*
X1356821Y1218533D01*
X1356774Y1218525D01*
X1356717Y1218491D01*
X1356657Y1218466D01*
X1356622Y1218435D01*
X1356581Y1218410D01*
X1356540Y1218359D01*
X1356491Y1218315D01*
X1356469Y1218273D01*
X1356440Y1218236D01*
X1356419Y1218174D01*
X1356388Y1218115D01*
X1356380Y1218061D01*
X1356368Y1218024D01*
X1356368Y1218021D01*
X1356369Y1217984D01*
X1356361Y1217930D01*
X1356361Y1215390D01*
X1356372Y1215325D01*
X1356374Y1215259D01*
X1356392Y1215216D01*
X1356400Y1215169D01*
X1356434Y1215112D01*
X1356459Y1215052D01*
X1356490Y1215017D01*
X1356515Y1214976D01*
X1356566Y1214935D01*
X1356610Y1214886D01*
X1356652Y1214864D01*
X1356689Y1214835D01*
X1356751Y1214814D01*
X1356810Y1214783D01*
X1356864Y1214775D01*
X1356901Y1214763D01*
X1356941Y1214764D01*
X1356995Y1214756D01*
X1360805Y1214756D01*
X1360870Y1214767D01*
G37*
G36*
X324550Y696607D02*
X324550Y696607D01*
X324616Y696609D01*
X324659Y696627D01*
X324706Y696635D01*
X324763Y696669D01*
X324823Y696694D01*
X324858Y696725D01*
X324899Y696750D01*
X324941Y696801D01*
X324989Y696845D01*
X325011Y696887D01*
X325040Y696924D01*
X325061Y696986D01*
X325092Y697045D01*
X325100Y697099D01*
X325112Y697136D01*
X325111Y697176D01*
X325119Y697230D01*
X325119Y699770D01*
X325108Y699835D01*
X325106Y699901D01*
X325088Y699944D01*
X325080Y699991D01*
X325046Y700048D01*
X325021Y700108D01*
X324990Y700143D01*
X324965Y700184D01*
X324914Y700226D01*
X324870Y700274D01*
X324828Y700296D01*
X324791Y700325D01*
X324729Y700346D01*
X324670Y700377D01*
X324616Y700385D01*
X324579Y700397D01*
X324539Y700396D01*
X324485Y700404D01*
X320675Y700404D01*
X320610Y700393D01*
X320544Y700391D01*
X320501Y700373D01*
X320454Y700365D01*
X320397Y700331D01*
X320337Y700306D01*
X320302Y700275D01*
X320261Y700250D01*
X320220Y700199D01*
X320171Y700155D01*
X320149Y700113D01*
X320120Y700076D01*
X320099Y700014D01*
X320068Y699955D01*
X320060Y699901D01*
X320048Y699864D01*
X320048Y699861D01*
X320049Y699824D01*
X320041Y699770D01*
X320041Y697230D01*
X320052Y697165D01*
X320054Y697099D01*
X320072Y697056D01*
X320080Y697009D01*
X320114Y696952D01*
X320139Y696892D01*
X320170Y696857D01*
X320195Y696816D01*
X320246Y696775D01*
X320290Y696726D01*
X320332Y696704D01*
X320369Y696675D01*
X320431Y696654D01*
X320490Y696623D01*
X320544Y696615D01*
X320581Y696603D01*
X320621Y696604D01*
X320675Y696596D01*
X324485Y696596D01*
X324550Y696607D01*
G37*
G36*
X1360870Y696607D02*
X1360870Y696607D01*
X1360936Y696609D01*
X1360979Y696627D01*
X1361026Y696635D01*
X1361083Y696669D01*
X1361143Y696694D01*
X1361178Y696725D01*
X1361219Y696750D01*
X1361261Y696801D01*
X1361309Y696845D01*
X1361331Y696887D01*
X1361360Y696924D01*
X1361381Y696986D01*
X1361412Y697045D01*
X1361420Y697099D01*
X1361432Y697136D01*
X1361431Y697176D01*
X1361439Y697230D01*
X1361439Y699770D01*
X1361428Y699835D01*
X1361426Y699901D01*
X1361408Y699944D01*
X1361400Y699991D01*
X1361366Y700048D01*
X1361341Y700108D01*
X1361310Y700143D01*
X1361285Y700184D01*
X1361234Y700226D01*
X1361190Y700274D01*
X1361148Y700296D01*
X1361111Y700325D01*
X1361049Y700346D01*
X1360990Y700377D01*
X1360936Y700385D01*
X1360899Y700397D01*
X1360859Y700396D01*
X1360805Y700404D01*
X1356995Y700404D01*
X1356930Y700393D01*
X1356864Y700391D01*
X1356821Y700373D01*
X1356774Y700365D01*
X1356717Y700331D01*
X1356657Y700306D01*
X1356622Y700275D01*
X1356581Y700250D01*
X1356540Y700199D01*
X1356491Y700155D01*
X1356469Y700113D01*
X1356440Y700076D01*
X1356419Y700014D01*
X1356388Y699955D01*
X1356380Y699901D01*
X1356368Y699864D01*
X1356368Y699861D01*
X1356369Y699824D01*
X1356361Y699770D01*
X1356361Y697230D01*
X1356372Y697165D01*
X1356374Y697099D01*
X1356392Y697056D01*
X1356400Y697009D01*
X1356434Y696952D01*
X1356459Y696892D01*
X1356490Y696857D01*
X1356515Y696816D01*
X1356566Y696775D01*
X1356610Y696726D01*
X1356652Y696704D01*
X1356689Y696675D01*
X1356751Y696654D01*
X1356810Y696623D01*
X1356864Y696615D01*
X1356901Y696603D01*
X1356941Y696604D01*
X1356995Y696596D01*
X1360805Y696596D01*
X1360870Y696607D01*
G37*
G36*
X1101790Y696607D02*
X1101790Y696607D01*
X1101856Y696609D01*
X1101899Y696627D01*
X1101946Y696635D01*
X1102003Y696669D01*
X1102063Y696694D01*
X1102098Y696725D01*
X1102139Y696750D01*
X1102181Y696801D01*
X1102229Y696845D01*
X1102251Y696887D01*
X1102280Y696924D01*
X1102301Y696986D01*
X1102332Y697045D01*
X1102340Y697099D01*
X1102352Y697136D01*
X1102351Y697176D01*
X1102359Y697230D01*
X1102359Y699770D01*
X1102348Y699835D01*
X1102346Y699901D01*
X1102328Y699944D01*
X1102320Y699991D01*
X1102286Y700048D01*
X1102261Y700108D01*
X1102230Y700143D01*
X1102205Y700184D01*
X1102154Y700226D01*
X1102110Y700274D01*
X1102068Y700296D01*
X1102031Y700325D01*
X1101969Y700346D01*
X1101910Y700377D01*
X1101856Y700385D01*
X1101819Y700397D01*
X1101779Y700396D01*
X1101725Y700404D01*
X1097915Y700404D01*
X1097850Y700393D01*
X1097784Y700391D01*
X1097741Y700373D01*
X1097694Y700365D01*
X1097637Y700331D01*
X1097577Y700306D01*
X1097542Y700275D01*
X1097501Y700250D01*
X1097460Y700199D01*
X1097411Y700155D01*
X1097389Y700113D01*
X1097360Y700076D01*
X1097339Y700014D01*
X1097308Y699955D01*
X1097300Y699901D01*
X1097288Y699864D01*
X1097288Y699861D01*
X1097289Y699824D01*
X1097281Y699770D01*
X1097281Y697230D01*
X1097292Y697165D01*
X1097294Y697099D01*
X1097312Y697056D01*
X1097320Y697009D01*
X1097354Y696952D01*
X1097379Y696892D01*
X1097410Y696857D01*
X1097435Y696816D01*
X1097486Y696775D01*
X1097530Y696726D01*
X1097572Y696704D01*
X1097609Y696675D01*
X1097671Y696654D01*
X1097730Y696623D01*
X1097784Y696615D01*
X1097821Y696603D01*
X1097861Y696604D01*
X1097915Y696596D01*
X1101725Y696596D01*
X1101790Y696607D01*
G37*
G36*
X583630Y696607D02*
X583630Y696607D01*
X583696Y696609D01*
X583739Y696627D01*
X583786Y696635D01*
X583843Y696669D01*
X583903Y696694D01*
X583938Y696725D01*
X583979Y696750D01*
X584021Y696801D01*
X584069Y696845D01*
X584091Y696887D01*
X584120Y696924D01*
X584141Y696986D01*
X584172Y697045D01*
X584180Y697099D01*
X584192Y697136D01*
X584191Y697176D01*
X584199Y697230D01*
X584199Y699770D01*
X584188Y699835D01*
X584186Y699901D01*
X584168Y699944D01*
X584160Y699991D01*
X584126Y700048D01*
X584101Y700108D01*
X584070Y700143D01*
X584045Y700184D01*
X583994Y700226D01*
X583950Y700274D01*
X583908Y700296D01*
X583871Y700325D01*
X583809Y700346D01*
X583750Y700377D01*
X583696Y700385D01*
X583659Y700397D01*
X583619Y700396D01*
X583565Y700404D01*
X579755Y700404D01*
X579690Y700393D01*
X579624Y700391D01*
X579581Y700373D01*
X579534Y700365D01*
X579477Y700331D01*
X579417Y700306D01*
X579382Y700275D01*
X579341Y700250D01*
X579300Y700199D01*
X579251Y700155D01*
X579229Y700113D01*
X579200Y700076D01*
X579179Y700014D01*
X579148Y699955D01*
X579140Y699901D01*
X579128Y699864D01*
X579128Y699861D01*
X579129Y699824D01*
X579121Y699770D01*
X579121Y697230D01*
X579132Y697165D01*
X579134Y697099D01*
X579152Y697056D01*
X579160Y697009D01*
X579194Y696952D01*
X579219Y696892D01*
X579250Y696857D01*
X579275Y696816D01*
X579326Y696775D01*
X579370Y696726D01*
X579412Y696704D01*
X579449Y696675D01*
X579511Y696654D01*
X579570Y696623D01*
X579624Y696615D01*
X579661Y696603D01*
X579701Y696604D01*
X579755Y696596D01*
X583565Y696596D01*
X583630Y696607D01*
G37*
G36*
X842710Y696607D02*
X842710Y696607D01*
X842776Y696609D01*
X842819Y696627D01*
X842866Y696635D01*
X842923Y696669D01*
X842983Y696694D01*
X843018Y696725D01*
X843059Y696750D01*
X843101Y696801D01*
X843149Y696845D01*
X843171Y696887D01*
X843200Y696924D01*
X843221Y696986D01*
X843252Y697045D01*
X843260Y697099D01*
X843272Y697136D01*
X843271Y697176D01*
X843279Y697230D01*
X843279Y699770D01*
X843268Y699835D01*
X843266Y699901D01*
X843248Y699944D01*
X843240Y699991D01*
X843206Y700048D01*
X843181Y700108D01*
X843150Y700143D01*
X843125Y700184D01*
X843074Y700226D01*
X843030Y700274D01*
X842988Y700296D01*
X842951Y700325D01*
X842889Y700346D01*
X842830Y700377D01*
X842776Y700385D01*
X842739Y700397D01*
X842699Y700396D01*
X842645Y700404D01*
X838835Y700404D01*
X838770Y700393D01*
X838704Y700391D01*
X838661Y700373D01*
X838614Y700365D01*
X838557Y700331D01*
X838497Y700306D01*
X838462Y700275D01*
X838421Y700250D01*
X838380Y700199D01*
X838331Y700155D01*
X838309Y700113D01*
X838280Y700076D01*
X838259Y700014D01*
X838228Y699955D01*
X838220Y699901D01*
X838208Y699864D01*
X838208Y699861D01*
X838209Y699824D01*
X838201Y699770D01*
X838201Y697230D01*
X838212Y697165D01*
X838214Y697099D01*
X838232Y697056D01*
X838240Y697009D01*
X838274Y696952D01*
X838299Y696892D01*
X838330Y696857D01*
X838355Y696816D01*
X838406Y696775D01*
X838450Y696726D01*
X838492Y696704D01*
X838529Y696675D01*
X838591Y696654D01*
X838650Y696623D01*
X838704Y696615D01*
X838741Y696603D01*
X838781Y696604D01*
X838835Y696596D01*
X842645Y696596D01*
X842710Y696607D01*
G37*
G36*
X65470Y696607D02*
X65470Y696607D01*
X65536Y696609D01*
X65579Y696627D01*
X65626Y696635D01*
X65683Y696669D01*
X65743Y696694D01*
X65778Y696725D01*
X65819Y696750D01*
X65861Y696801D01*
X65909Y696845D01*
X65931Y696887D01*
X65960Y696924D01*
X65981Y696986D01*
X66012Y697045D01*
X66020Y697099D01*
X66032Y697136D01*
X66031Y697176D01*
X66039Y697230D01*
X66039Y699770D01*
X66028Y699835D01*
X66026Y699901D01*
X66008Y699944D01*
X66000Y699991D01*
X65966Y700048D01*
X65941Y700108D01*
X65910Y700143D01*
X65885Y700184D01*
X65834Y700226D01*
X65790Y700274D01*
X65748Y700296D01*
X65711Y700325D01*
X65649Y700346D01*
X65590Y700377D01*
X65536Y700385D01*
X65499Y700397D01*
X65459Y700396D01*
X65405Y700404D01*
X61595Y700404D01*
X61530Y700393D01*
X61464Y700391D01*
X61421Y700373D01*
X61374Y700365D01*
X61317Y700331D01*
X61257Y700306D01*
X61222Y700275D01*
X61181Y700250D01*
X61140Y700199D01*
X61091Y700155D01*
X61069Y700113D01*
X61040Y700076D01*
X61019Y700014D01*
X60988Y699955D01*
X60980Y699901D01*
X60968Y699864D01*
X60968Y699861D01*
X60969Y699824D01*
X60961Y699770D01*
X60961Y697230D01*
X60972Y697165D01*
X60974Y697099D01*
X60992Y697056D01*
X61000Y697009D01*
X61034Y696952D01*
X61059Y696892D01*
X61090Y696857D01*
X61115Y696816D01*
X61166Y696775D01*
X61210Y696726D01*
X61252Y696704D01*
X61289Y696675D01*
X61351Y696654D01*
X61410Y696623D01*
X61464Y696615D01*
X61501Y696603D01*
X61541Y696604D01*
X61595Y696596D01*
X65405Y696596D01*
X65470Y696607D01*
G37*
G36*
X1619950Y696607D02*
X1619950Y696607D01*
X1620016Y696609D01*
X1620059Y696627D01*
X1620106Y696635D01*
X1620163Y696669D01*
X1620223Y696694D01*
X1620258Y696725D01*
X1620299Y696750D01*
X1620341Y696801D01*
X1620389Y696845D01*
X1620411Y696887D01*
X1620440Y696924D01*
X1620461Y696986D01*
X1620492Y697045D01*
X1620500Y697099D01*
X1620512Y697136D01*
X1620511Y697176D01*
X1620519Y697230D01*
X1620519Y699770D01*
X1620508Y699835D01*
X1620506Y699901D01*
X1620488Y699944D01*
X1620480Y699991D01*
X1620446Y700048D01*
X1620421Y700108D01*
X1620390Y700143D01*
X1620365Y700184D01*
X1620314Y700226D01*
X1620270Y700274D01*
X1620228Y700296D01*
X1620191Y700325D01*
X1620129Y700346D01*
X1620070Y700377D01*
X1620016Y700385D01*
X1619979Y700397D01*
X1619939Y700396D01*
X1619885Y700404D01*
X1616075Y700404D01*
X1616010Y700393D01*
X1615944Y700391D01*
X1615901Y700373D01*
X1615854Y700365D01*
X1615797Y700331D01*
X1615737Y700306D01*
X1615702Y700275D01*
X1615661Y700250D01*
X1615620Y700199D01*
X1615571Y700155D01*
X1615549Y700113D01*
X1615520Y700076D01*
X1615499Y700014D01*
X1615468Y699955D01*
X1615460Y699901D01*
X1615448Y699864D01*
X1615448Y699861D01*
X1615449Y699824D01*
X1615441Y699770D01*
X1615441Y697230D01*
X1615452Y697165D01*
X1615454Y697099D01*
X1615472Y697056D01*
X1615480Y697009D01*
X1615514Y696952D01*
X1615539Y696892D01*
X1615570Y696857D01*
X1615595Y696816D01*
X1615646Y696775D01*
X1615690Y696726D01*
X1615732Y696704D01*
X1615769Y696675D01*
X1615831Y696654D01*
X1615890Y696623D01*
X1615944Y696615D01*
X1615981Y696603D01*
X1616021Y696604D01*
X1616075Y696596D01*
X1619885Y696596D01*
X1619950Y696607D01*
G37*
G36*
X1360870Y437527D02*
X1360870Y437527D01*
X1360936Y437529D01*
X1360979Y437547D01*
X1361026Y437555D01*
X1361083Y437589D01*
X1361143Y437614D01*
X1361178Y437645D01*
X1361219Y437670D01*
X1361261Y437721D01*
X1361309Y437765D01*
X1361331Y437807D01*
X1361360Y437844D01*
X1361381Y437906D01*
X1361412Y437965D01*
X1361420Y438019D01*
X1361432Y438056D01*
X1361431Y438096D01*
X1361439Y438150D01*
X1361439Y440690D01*
X1361428Y440755D01*
X1361426Y440821D01*
X1361408Y440864D01*
X1361400Y440911D01*
X1361366Y440968D01*
X1361341Y441028D01*
X1361310Y441063D01*
X1361285Y441104D01*
X1361234Y441146D01*
X1361190Y441194D01*
X1361148Y441216D01*
X1361111Y441245D01*
X1361049Y441266D01*
X1360990Y441297D01*
X1360936Y441305D01*
X1360899Y441317D01*
X1360859Y441316D01*
X1360805Y441324D01*
X1356995Y441324D01*
X1356930Y441313D01*
X1356864Y441311D01*
X1356821Y441293D01*
X1356774Y441285D01*
X1356717Y441251D01*
X1356657Y441226D01*
X1356622Y441195D01*
X1356581Y441170D01*
X1356540Y441119D01*
X1356491Y441075D01*
X1356469Y441033D01*
X1356440Y440996D01*
X1356419Y440934D01*
X1356388Y440875D01*
X1356380Y440821D01*
X1356368Y440784D01*
X1356368Y440781D01*
X1356369Y440744D01*
X1356361Y440690D01*
X1356361Y438150D01*
X1356372Y438085D01*
X1356374Y438019D01*
X1356392Y437976D01*
X1356400Y437929D01*
X1356434Y437872D01*
X1356459Y437812D01*
X1356490Y437777D01*
X1356515Y437736D01*
X1356566Y437695D01*
X1356610Y437646D01*
X1356652Y437624D01*
X1356689Y437595D01*
X1356751Y437574D01*
X1356810Y437543D01*
X1356864Y437535D01*
X1356901Y437523D01*
X1356941Y437524D01*
X1356995Y437516D01*
X1360805Y437516D01*
X1360870Y437527D01*
G37*
G36*
X324550Y437527D02*
X324550Y437527D01*
X324616Y437529D01*
X324659Y437547D01*
X324706Y437555D01*
X324763Y437589D01*
X324823Y437614D01*
X324858Y437645D01*
X324899Y437670D01*
X324941Y437721D01*
X324989Y437765D01*
X325011Y437807D01*
X325040Y437844D01*
X325061Y437906D01*
X325092Y437965D01*
X325100Y438019D01*
X325112Y438056D01*
X325111Y438096D01*
X325119Y438150D01*
X325119Y440690D01*
X325108Y440755D01*
X325106Y440821D01*
X325088Y440864D01*
X325080Y440911D01*
X325046Y440968D01*
X325021Y441028D01*
X324990Y441063D01*
X324965Y441104D01*
X324914Y441146D01*
X324870Y441194D01*
X324828Y441216D01*
X324791Y441245D01*
X324729Y441266D01*
X324670Y441297D01*
X324616Y441305D01*
X324579Y441317D01*
X324539Y441316D01*
X324485Y441324D01*
X320675Y441324D01*
X320610Y441313D01*
X320544Y441311D01*
X320501Y441293D01*
X320454Y441285D01*
X320397Y441251D01*
X320337Y441226D01*
X320302Y441195D01*
X320261Y441170D01*
X320220Y441119D01*
X320171Y441075D01*
X320149Y441033D01*
X320120Y440996D01*
X320099Y440934D01*
X320068Y440875D01*
X320060Y440821D01*
X320048Y440784D01*
X320048Y440781D01*
X320049Y440744D01*
X320041Y440690D01*
X320041Y438150D01*
X320052Y438085D01*
X320054Y438019D01*
X320072Y437976D01*
X320080Y437929D01*
X320114Y437872D01*
X320139Y437812D01*
X320170Y437777D01*
X320195Y437736D01*
X320246Y437695D01*
X320290Y437646D01*
X320332Y437624D01*
X320369Y437595D01*
X320431Y437574D01*
X320490Y437543D01*
X320544Y437535D01*
X320581Y437523D01*
X320621Y437524D01*
X320675Y437516D01*
X324485Y437516D01*
X324550Y437527D01*
G37*
G36*
X842710Y437527D02*
X842710Y437527D01*
X842776Y437529D01*
X842819Y437547D01*
X842866Y437555D01*
X842923Y437589D01*
X842983Y437614D01*
X843018Y437645D01*
X843059Y437670D01*
X843101Y437721D01*
X843149Y437765D01*
X843171Y437807D01*
X843200Y437844D01*
X843221Y437906D01*
X843252Y437965D01*
X843260Y438019D01*
X843272Y438056D01*
X843271Y438096D01*
X843279Y438150D01*
X843279Y440690D01*
X843268Y440755D01*
X843266Y440821D01*
X843248Y440864D01*
X843240Y440911D01*
X843206Y440968D01*
X843181Y441028D01*
X843150Y441063D01*
X843125Y441104D01*
X843074Y441146D01*
X843030Y441194D01*
X842988Y441216D01*
X842951Y441245D01*
X842889Y441266D01*
X842830Y441297D01*
X842776Y441305D01*
X842739Y441317D01*
X842699Y441316D01*
X842645Y441324D01*
X838835Y441324D01*
X838770Y441313D01*
X838704Y441311D01*
X838661Y441293D01*
X838614Y441285D01*
X838557Y441251D01*
X838497Y441226D01*
X838462Y441195D01*
X838421Y441170D01*
X838380Y441119D01*
X838331Y441075D01*
X838309Y441033D01*
X838280Y440996D01*
X838259Y440934D01*
X838228Y440875D01*
X838220Y440821D01*
X838208Y440784D01*
X838208Y440781D01*
X838209Y440744D01*
X838201Y440690D01*
X838201Y438150D01*
X838212Y438085D01*
X838214Y438019D01*
X838232Y437976D01*
X838240Y437929D01*
X838274Y437872D01*
X838299Y437812D01*
X838330Y437777D01*
X838355Y437736D01*
X838406Y437695D01*
X838450Y437646D01*
X838492Y437624D01*
X838529Y437595D01*
X838591Y437574D01*
X838650Y437543D01*
X838704Y437535D01*
X838741Y437523D01*
X838781Y437524D01*
X838835Y437516D01*
X842645Y437516D01*
X842710Y437527D01*
G37*
G36*
X1101790Y437527D02*
X1101790Y437527D01*
X1101856Y437529D01*
X1101899Y437547D01*
X1101946Y437555D01*
X1102003Y437589D01*
X1102063Y437614D01*
X1102098Y437645D01*
X1102139Y437670D01*
X1102181Y437721D01*
X1102229Y437765D01*
X1102251Y437807D01*
X1102280Y437844D01*
X1102301Y437906D01*
X1102332Y437965D01*
X1102340Y438019D01*
X1102352Y438056D01*
X1102351Y438096D01*
X1102359Y438150D01*
X1102359Y440690D01*
X1102348Y440755D01*
X1102346Y440821D01*
X1102328Y440864D01*
X1102320Y440911D01*
X1102286Y440968D01*
X1102261Y441028D01*
X1102230Y441063D01*
X1102205Y441104D01*
X1102154Y441146D01*
X1102110Y441194D01*
X1102068Y441216D01*
X1102031Y441245D01*
X1101969Y441266D01*
X1101910Y441297D01*
X1101856Y441305D01*
X1101819Y441317D01*
X1101779Y441316D01*
X1101725Y441324D01*
X1097915Y441324D01*
X1097850Y441313D01*
X1097784Y441311D01*
X1097741Y441293D01*
X1097694Y441285D01*
X1097637Y441251D01*
X1097577Y441226D01*
X1097542Y441195D01*
X1097501Y441170D01*
X1097460Y441119D01*
X1097411Y441075D01*
X1097389Y441033D01*
X1097360Y440996D01*
X1097339Y440934D01*
X1097308Y440875D01*
X1097300Y440821D01*
X1097288Y440784D01*
X1097288Y440781D01*
X1097289Y440744D01*
X1097281Y440690D01*
X1097281Y438150D01*
X1097292Y438085D01*
X1097294Y438019D01*
X1097312Y437976D01*
X1097320Y437929D01*
X1097354Y437872D01*
X1097379Y437812D01*
X1097410Y437777D01*
X1097435Y437736D01*
X1097486Y437695D01*
X1097530Y437646D01*
X1097572Y437624D01*
X1097609Y437595D01*
X1097671Y437574D01*
X1097730Y437543D01*
X1097784Y437535D01*
X1097821Y437523D01*
X1097861Y437524D01*
X1097915Y437516D01*
X1101725Y437516D01*
X1101790Y437527D01*
G37*
G36*
X583630Y437527D02*
X583630Y437527D01*
X583696Y437529D01*
X583739Y437547D01*
X583786Y437555D01*
X583843Y437589D01*
X583903Y437614D01*
X583938Y437645D01*
X583979Y437670D01*
X584021Y437721D01*
X584069Y437765D01*
X584091Y437807D01*
X584120Y437844D01*
X584141Y437906D01*
X584172Y437965D01*
X584180Y438019D01*
X584192Y438056D01*
X584191Y438096D01*
X584199Y438150D01*
X584199Y440690D01*
X584188Y440755D01*
X584186Y440821D01*
X584168Y440864D01*
X584160Y440911D01*
X584126Y440968D01*
X584101Y441028D01*
X584070Y441063D01*
X584045Y441104D01*
X583994Y441146D01*
X583950Y441194D01*
X583908Y441216D01*
X583871Y441245D01*
X583809Y441266D01*
X583750Y441297D01*
X583696Y441305D01*
X583659Y441317D01*
X583619Y441316D01*
X583565Y441324D01*
X579755Y441324D01*
X579690Y441313D01*
X579624Y441311D01*
X579581Y441293D01*
X579534Y441285D01*
X579477Y441251D01*
X579417Y441226D01*
X579382Y441195D01*
X579341Y441170D01*
X579300Y441119D01*
X579251Y441075D01*
X579229Y441033D01*
X579200Y440996D01*
X579179Y440934D01*
X579148Y440875D01*
X579140Y440821D01*
X579128Y440784D01*
X579128Y440781D01*
X579129Y440744D01*
X579121Y440690D01*
X579121Y438150D01*
X579132Y438085D01*
X579134Y438019D01*
X579152Y437976D01*
X579160Y437929D01*
X579194Y437872D01*
X579219Y437812D01*
X579250Y437777D01*
X579275Y437736D01*
X579326Y437695D01*
X579370Y437646D01*
X579412Y437624D01*
X579449Y437595D01*
X579511Y437574D01*
X579570Y437543D01*
X579624Y437535D01*
X579661Y437523D01*
X579701Y437524D01*
X579755Y437516D01*
X583565Y437516D01*
X583630Y437527D01*
G37*
G36*
X1619950Y437527D02*
X1619950Y437527D01*
X1620016Y437529D01*
X1620059Y437547D01*
X1620106Y437555D01*
X1620163Y437589D01*
X1620223Y437614D01*
X1620258Y437645D01*
X1620299Y437670D01*
X1620341Y437721D01*
X1620389Y437765D01*
X1620411Y437807D01*
X1620440Y437844D01*
X1620461Y437906D01*
X1620492Y437965D01*
X1620500Y438019D01*
X1620512Y438056D01*
X1620511Y438096D01*
X1620519Y438150D01*
X1620519Y440690D01*
X1620508Y440755D01*
X1620506Y440821D01*
X1620488Y440864D01*
X1620480Y440911D01*
X1620446Y440968D01*
X1620421Y441028D01*
X1620390Y441063D01*
X1620365Y441104D01*
X1620314Y441146D01*
X1620270Y441194D01*
X1620228Y441216D01*
X1620191Y441245D01*
X1620129Y441266D01*
X1620070Y441297D01*
X1620016Y441305D01*
X1619979Y441317D01*
X1619939Y441316D01*
X1619885Y441324D01*
X1616075Y441324D01*
X1616010Y441313D01*
X1615944Y441311D01*
X1615901Y441293D01*
X1615854Y441285D01*
X1615797Y441251D01*
X1615737Y441226D01*
X1615702Y441195D01*
X1615661Y441170D01*
X1615620Y441119D01*
X1615571Y441075D01*
X1615549Y441033D01*
X1615520Y440996D01*
X1615499Y440934D01*
X1615468Y440875D01*
X1615460Y440821D01*
X1615448Y440784D01*
X1615448Y440781D01*
X1615449Y440744D01*
X1615441Y440690D01*
X1615441Y438150D01*
X1615452Y438085D01*
X1615454Y438019D01*
X1615472Y437976D01*
X1615480Y437929D01*
X1615514Y437872D01*
X1615539Y437812D01*
X1615570Y437777D01*
X1615595Y437736D01*
X1615646Y437695D01*
X1615690Y437646D01*
X1615732Y437624D01*
X1615769Y437595D01*
X1615831Y437574D01*
X1615890Y437543D01*
X1615944Y437535D01*
X1615981Y437523D01*
X1616021Y437524D01*
X1616075Y437516D01*
X1619885Y437516D01*
X1619950Y437527D01*
G37*
G36*
X65470Y437527D02*
X65470Y437527D01*
X65536Y437529D01*
X65579Y437547D01*
X65626Y437555D01*
X65683Y437589D01*
X65743Y437614D01*
X65778Y437645D01*
X65819Y437670D01*
X65861Y437721D01*
X65909Y437765D01*
X65931Y437807D01*
X65960Y437844D01*
X65981Y437906D01*
X66012Y437965D01*
X66020Y438019D01*
X66032Y438056D01*
X66031Y438096D01*
X66039Y438150D01*
X66039Y440690D01*
X66028Y440755D01*
X66026Y440821D01*
X66008Y440864D01*
X66000Y440911D01*
X65966Y440968D01*
X65941Y441028D01*
X65910Y441063D01*
X65885Y441104D01*
X65834Y441146D01*
X65790Y441194D01*
X65748Y441216D01*
X65711Y441245D01*
X65649Y441266D01*
X65590Y441297D01*
X65536Y441305D01*
X65499Y441317D01*
X65459Y441316D01*
X65405Y441324D01*
X61595Y441324D01*
X61530Y441313D01*
X61464Y441311D01*
X61421Y441293D01*
X61374Y441285D01*
X61317Y441251D01*
X61257Y441226D01*
X61222Y441195D01*
X61181Y441170D01*
X61140Y441119D01*
X61091Y441075D01*
X61069Y441033D01*
X61040Y440996D01*
X61019Y440934D01*
X60988Y440875D01*
X60980Y440821D01*
X60968Y440784D01*
X60968Y440781D01*
X60969Y440744D01*
X60961Y440690D01*
X60961Y438150D01*
X60972Y438085D01*
X60974Y438019D01*
X60992Y437976D01*
X61000Y437929D01*
X61034Y437872D01*
X61059Y437812D01*
X61090Y437777D01*
X61115Y437736D01*
X61166Y437695D01*
X61210Y437646D01*
X61252Y437624D01*
X61289Y437595D01*
X61351Y437574D01*
X61410Y437543D01*
X61464Y437535D01*
X61501Y437523D01*
X61541Y437524D01*
X61595Y437516D01*
X65405Y437516D01*
X65470Y437527D01*
G37*
G36*
X1619950Y178447D02*
X1619950Y178447D01*
X1620016Y178449D01*
X1620059Y178467D01*
X1620106Y178475D01*
X1620163Y178509D01*
X1620223Y178534D01*
X1620258Y178565D01*
X1620299Y178590D01*
X1620341Y178641D01*
X1620389Y178685D01*
X1620411Y178727D01*
X1620440Y178764D01*
X1620461Y178826D01*
X1620492Y178885D01*
X1620500Y178939D01*
X1620512Y178976D01*
X1620511Y179016D01*
X1620519Y179070D01*
X1620519Y181610D01*
X1620508Y181675D01*
X1620506Y181741D01*
X1620488Y181784D01*
X1620480Y181831D01*
X1620446Y181888D01*
X1620421Y181948D01*
X1620390Y181983D01*
X1620365Y182024D01*
X1620314Y182066D01*
X1620270Y182114D01*
X1620228Y182136D01*
X1620191Y182165D01*
X1620129Y182186D01*
X1620070Y182217D01*
X1620016Y182225D01*
X1619979Y182237D01*
X1619939Y182236D01*
X1619885Y182244D01*
X1616075Y182244D01*
X1616010Y182233D01*
X1615944Y182231D01*
X1615901Y182213D01*
X1615854Y182205D01*
X1615797Y182171D01*
X1615737Y182146D01*
X1615702Y182115D01*
X1615661Y182090D01*
X1615620Y182039D01*
X1615571Y181995D01*
X1615549Y181953D01*
X1615520Y181916D01*
X1615499Y181854D01*
X1615468Y181795D01*
X1615460Y181741D01*
X1615448Y181704D01*
X1615448Y181701D01*
X1615449Y181664D01*
X1615441Y181610D01*
X1615441Y179070D01*
X1615452Y179005D01*
X1615454Y178939D01*
X1615472Y178896D01*
X1615480Y178849D01*
X1615514Y178792D01*
X1615539Y178732D01*
X1615570Y178697D01*
X1615595Y178656D01*
X1615646Y178615D01*
X1615690Y178566D01*
X1615732Y178544D01*
X1615769Y178515D01*
X1615831Y178494D01*
X1615890Y178463D01*
X1615944Y178455D01*
X1615981Y178443D01*
X1616021Y178444D01*
X1616075Y178436D01*
X1619885Y178436D01*
X1619950Y178447D01*
G37*
G36*
X1360870Y178447D02*
X1360870Y178447D01*
X1360936Y178449D01*
X1360979Y178467D01*
X1361026Y178475D01*
X1361083Y178509D01*
X1361143Y178534D01*
X1361178Y178565D01*
X1361219Y178590D01*
X1361261Y178641D01*
X1361309Y178685D01*
X1361331Y178727D01*
X1361360Y178764D01*
X1361381Y178826D01*
X1361412Y178885D01*
X1361420Y178939D01*
X1361432Y178976D01*
X1361431Y179016D01*
X1361439Y179070D01*
X1361439Y181610D01*
X1361428Y181675D01*
X1361426Y181741D01*
X1361408Y181784D01*
X1361400Y181831D01*
X1361366Y181888D01*
X1361341Y181948D01*
X1361310Y181983D01*
X1361285Y182024D01*
X1361234Y182066D01*
X1361190Y182114D01*
X1361148Y182136D01*
X1361111Y182165D01*
X1361049Y182186D01*
X1360990Y182217D01*
X1360936Y182225D01*
X1360899Y182237D01*
X1360859Y182236D01*
X1360805Y182244D01*
X1356995Y182244D01*
X1356930Y182233D01*
X1356864Y182231D01*
X1356821Y182213D01*
X1356774Y182205D01*
X1356717Y182171D01*
X1356657Y182146D01*
X1356622Y182115D01*
X1356581Y182090D01*
X1356540Y182039D01*
X1356491Y181995D01*
X1356469Y181953D01*
X1356440Y181916D01*
X1356419Y181854D01*
X1356388Y181795D01*
X1356380Y181741D01*
X1356368Y181704D01*
X1356368Y181701D01*
X1356369Y181664D01*
X1356361Y181610D01*
X1356361Y179070D01*
X1356372Y179005D01*
X1356374Y178939D01*
X1356392Y178896D01*
X1356400Y178849D01*
X1356434Y178792D01*
X1356459Y178732D01*
X1356490Y178697D01*
X1356515Y178656D01*
X1356566Y178615D01*
X1356610Y178566D01*
X1356652Y178544D01*
X1356689Y178515D01*
X1356751Y178494D01*
X1356810Y178463D01*
X1356864Y178455D01*
X1356901Y178443D01*
X1356941Y178444D01*
X1356995Y178436D01*
X1360805Y178436D01*
X1360870Y178447D01*
G37*
G36*
X583630Y178447D02*
X583630Y178447D01*
X583696Y178449D01*
X583739Y178467D01*
X583786Y178475D01*
X583843Y178509D01*
X583903Y178534D01*
X583938Y178565D01*
X583979Y178590D01*
X584021Y178641D01*
X584069Y178685D01*
X584091Y178727D01*
X584120Y178764D01*
X584141Y178826D01*
X584172Y178885D01*
X584180Y178939D01*
X584192Y178976D01*
X584191Y179016D01*
X584199Y179070D01*
X584199Y181610D01*
X584188Y181675D01*
X584186Y181741D01*
X584168Y181784D01*
X584160Y181831D01*
X584126Y181888D01*
X584101Y181948D01*
X584070Y181983D01*
X584045Y182024D01*
X583994Y182066D01*
X583950Y182114D01*
X583908Y182136D01*
X583871Y182165D01*
X583809Y182186D01*
X583750Y182217D01*
X583696Y182225D01*
X583659Y182237D01*
X583619Y182236D01*
X583565Y182244D01*
X579755Y182244D01*
X579690Y182233D01*
X579624Y182231D01*
X579581Y182213D01*
X579534Y182205D01*
X579477Y182171D01*
X579417Y182146D01*
X579382Y182115D01*
X579341Y182090D01*
X579300Y182039D01*
X579251Y181995D01*
X579229Y181953D01*
X579200Y181916D01*
X579179Y181854D01*
X579148Y181795D01*
X579140Y181741D01*
X579128Y181704D01*
X579128Y181701D01*
X579129Y181664D01*
X579121Y181610D01*
X579121Y179070D01*
X579132Y179005D01*
X579134Y178939D01*
X579152Y178896D01*
X579160Y178849D01*
X579194Y178792D01*
X579219Y178732D01*
X579250Y178697D01*
X579275Y178656D01*
X579326Y178615D01*
X579370Y178566D01*
X579412Y178544D01*
X579449Y178515D01*
X579511Y178494D01*
X579570Y178463D01*
X579624Y178455D01*
X579661Y178443D01*
X579701Y178444D01*
X579755Y178436D01*
X583565Y178436D01*
X583630Y178447D01*
G37*
G36*
X1101790Y178447D02*
X1101790Y178447D01*
X1101856Y178449D01*
X1101899Y178467D01*
X1101946Y178475D01*
X1102003Y178509D01*
X1102063Y178534D01*
X1102098Y178565D01*
X1102139Y178590D01*
X1102181Y178641D01*
X1102229Y178685D01*
X1102251Y178727D01*
X1102280Y178764D01*
X1102301Y178826D01*
X1102332Y178885D01*
X1102340Y178939D01*
X1102352Y178976D01*
X1102351Y179016D01*
X1102359Y179070D01*
X1102359Y181610D01*
X1102348Y181675D01*
X1102346Y181741D01*
X1102328Y181784D01*
X1102320Y181831D01*
X1102286Y181888D01*
X1102261Y181948D01*
X1102230Y181983D01*
X1102205Y182024D01*
X1102154Y182066D01*
X1102110Y182114D01*
X1102068Y182136D01*
X1102031Y182165D01*
X1101969Y182186D01*
X1101910Y182217D01*
X1101856Y182225D01*
X1101819Y182237D01*
X1101779Y182236D01*
X1101725Y182244D01*
X1097915Y182244D01*
X1097850Y182233D01*
X1097784Y182231D01*
X1097741Y182213D01*
X1097694Y182205D01*
X1097637Y182171D01*
X1097577Y182146D01*
X1097542Y182115D01*
X1097501Y182090D01*
X1097460Y182039D01*
X1097411Y181995D01*
X1097389Y181953D01*
X1097360Y181916D01*
X1097339Y181854D01*
X1097308Y181795D01*
X1097300Y181741D01*
X1097288Y181704D01*
X1097288Y181701D01*
X1097289Y181664D01*
X1097281Y181610D01*
X1097281Y179070D01*
X1097292Y179005D01*
X1097294Y178939D01*
X1097312Y178896D01*
X1097320Y178849D01*
X1097354Y178792D01*
X1097379Y178732D01*
X1097410Y178697D01*
X1097435Y178656D01*
X1097486Y178615D01*
X1097530Y178566D01*
X1097572Y178544D01*
X1097609Y178515D01*
X1097671Y178494D01*
X1097730Y178463D01*
X1097784Y178455D01*
X1097821Y178443D01*
X1097861Y178444D01*
X1097915Y178436D01*
X1101725Y178436D01*
X1101790Y178447D01*
G37*
G36*
X842710Y178447D02*
X842710Y178447D01*
X842776Y178449D01*
X842819Y178467D01*
X842866Y178475D01*
X842923Y178509D01*
X842983Y178534D01*
X843018Y178565D01*
X843059Y178590D01*
X843101Y178641D01*
X843149Y178685D01*
X843171Y178727D01*
X843200Y178764D01*
X843221Y178826D01*
X843252Y178885D01*
X843260Y178939D01*
X843272Y178976D01*
X843271Y179016D01*
X843279Y179070D01*
X843279Y181610D01*
X843268Y181675D01*
X843266Y181741D01*
X843248Y181784D01*
X843240Y181831D01*
X843206Y181888D01*
X843181Y181948D01*
X843150Y181983D01*
X843125Y182024D01*
X843074Y182066D01*
X843030Y182114D01*
X842988Y182136D01*
X842951Y182165D01*
X842889Y182186D01*
X842830Y182217D01*
X842776Y182225D01*
X842739Y182237D01*
X842699Y182236D01*
X842645Y182244D01*
X838835Y182244D01*
X838770Y182233D01*
X838704Y182231D01*
X838661Y182213D01*
X838614Y182205D01*
X838557Y182171D01*
X838497Y182146D01*
X838462Y182115D01*
X838421Y182090D01*
X838380Y182039D01*
X838331Y181995D01*
X838309Y181953D01*
X838280Y181916D01*
X838259Y181854D01*
X838228Y181795D01*
X838220Y181741D01*
X838208Y181704D01*
X838208Y181701D01*
X838209Y181664D01*
X838201Y181610D01*
X838201Y179070D01*
X838212Y179005D01*
X838214Y178939D01*
X838232Y178896D01*
X838240Y178849D01*
X838274Y178792D01*
X838299Y178732D01*
X838330Y178697D01*
X838355Y178656D01*
X838406Y178615D01*
X838450Y178566D01*
X838492Y178544D01*
X838529Y178515D01*
X838591Y178494D01*
X838650Y178463D01*
X838704Y178455D01*
X838741Y178443D01*
X838781Y178444D01*
X838835Y178436D01*
X842645Y178436D01*
X842710Y178447D01*
G37*
G36*
X324550Y178447D02*
X324550Y178447D01*
X324616Y178449D01*
X324659Y178467D01*
X324706Y178475D01*
X324763Y178509D01*
X324823Y178534D01*
X324858Y178565D01*
X324899Y178590D01*
X324941Y178641D01*
X324989Y178685D01*
X325011Y178727D01*
X325040Y178764D01*
X325061Y178826D01*
X325092Y178885D01*
X325100Y178939D01*
X325112Y178976D01*
X325111Y179016D01*
X325119Y179070D01*
X325119Y181610D01*
X325108Y181675D01*
X325106Y181741D01*
X325088Y181784D01*
X325080Y181831D01*
X325046Y181888D01*
X325021Y181948D01*
X324990Y181983D01*
X324965Y182024D01*
X324914Y182066D01*
X324870Y182114D01*
X324828Y182136D01*
X324791Y182165D01*
X324729Y182186D01*
X324670Y182217D01*
X324616Y182225D01*
X324579Y182237D01*
X324539Y182236D01*
X324485Y182244D01*
X320675Y182244D01*
X320610Y182233D01*
X320544Y182231D01*
X320501Y182213D01*
X320454Y182205D01*
X320397Y182171D01*
X320337Y182146D01*
X320302Y182115D01*
X320261Y182090D01*
X320220Y182039D01*
X320171Y181995D01*
X320149Y181953D01*
X320120Y181916D01*
X320099Y181854D01*
X320068Y181795D01*
X320060Y181741D01*
X320048Y181704D01*
X320048Y181701D01*
X320049Y181664D01*
X320041Y181610D01*
X320041Y179070D01*
X320052Y179005D01*
X320054Y178939D01*
X320072Y178896D01*
X320080Y178849D01*
X320114Y178792D01*
X320139Y178732D01*
X320170Y178697D01*
X320195Y178656D01*
X320246Y178615D01*
X320290Y178566D01*
X320332Y178544D01*
X320369Y178515D01*
X320431Y178494D01*
X320490Y178463D01*
X320544Y178455D01*
X320581Y178443D01*
X320621Y178444D01*
X320675Y178436D01*
X324485Y178436D01*
X324550Y178447D01*
G37*
G36*
X65470Y178447D02*
X65470Y178447D01*
X65536Y178449D01*
X65579Y178467D01*
X65626Y178475D01*
X65683Y178509D01*
X65743Y178534D01*
X65778Y178565D01*
X65819Y178590D01*
X65861Y178641D01*
X65909Y178685D01*
X65931Y178727D01*
X65960Y178764D01*
X65981Y178826D01*
X66012Y178885D01*
X66020Y178939D01*
X66032Y178976D01*
X66031Y179016D01*
X66039Y179070D01*
X66039Y181610D01*
X66028Y181675D01*
X66026Y181741D01*
X66008Y181784D01*
X66000Y181831D01*
X65966Y181888D01*
X65941Y181948D01*
X65910Y181983D01*
X65885Y182024D01*
X65834Y182066D01*
X65790Y182114D01*
X65748Y182136D01*
X65711Y182165D01*
X65649Y182186D01*
X65590Y182217D01*
X65536Y182225D01*
X65499Y182237D01*
X65459Y182236D01*
X65405Y182244D01*
X61595Y182244D01*
X61530Y182233D01*
X61464Y182231D01*
X61421Y182213D01*
X61374Y182205D01*
X61317Y182171D01*
X61257Y182146D01*
X61222Y182115D01*
X61181Y182090D01*
X61140Y182039D01*
X61091Y181995D01*
X61069Y181953D01*
X61040Y181916D01*
X61019Y181854D01*
X60988Y181795D01*
X60980Y181741D01*
X60968Y181704D01*
X60968Y181701D01*
X60969Y181664D01*
X60961Y181610D01*
X60961Y179070D01*
X60972Y179005D01*
X60974Y178939D01*
X60992Y178896D01*
X61000Y178849D01*
X61034Y178792D01*
X61059Y178732D01*
X61090Y178697D01*
X61115Y178656D01*
X61166Y178615D01*
X61210Y178566D01*
X61252Y178544D01*
X61289Y178515D01*
X61351Y178494D01*
X61410Y178463D01*
X61464Y178455D01*
X61501Y178443D01*
X61541Y178444D01*
X61595Y178436D01*
X65405Y178436D01*
X65470Y178447D01*
G37*
D10*
X207328Y81598D03*
X213678Y81598D03*
X207328Y63818D03*
X213678Y63818D03*
X466408Y81598D03*
X472758Y81598D03*
X466408Y63818D03*
X472758Y63818D03*
X725488Y81598D03*
X731838Y81598D03*
X725488Y63818D03*
X731838Y63818D03*
X984568Y81598D03*
X990918Y81598D03*
X984568Y63818D03*
X990918Y63818D03*
X1243648Y81598D03*
X1249998Y81598D03*
X1243648Y63818D03*
X1249998Y63818D03*
X1502728Y81598D03*
X1509078Y81598D03*
X1502728Y63818D03*
X1509078Y63818D03*
X1761808Y81598D03*
X1768158Y81598D03*
X1761808Y63818D03*
X1768158Y63818D03*
X207328Y340678D03*
X213678Y340678D03*
X207328Y322898D03*
X213678Y322898D03*
X466408Y340678D03*
X472758Y340678D03*
X466408Y322898D03*
X472758Y322898D03*
X725488Y340678D03*
X731838Y340678D03*
X725488Y322898D03*
X731838Y322898D03*
X984568Y340678D03*
X990918Y340678D03*
X984568Y322898D03*
X990918Y322898D03*
X1243648Y340678D03*
X1249998Y340678D03*
X1243648Y322898D03*
X1249998Y322898D03*
X1502728Y340678D03*
X1509078Y340678D03*
X1502728Y322898D03*
X1509078Y322898D03*
X1761808Y340678D03*
X1768158Y340678D03*
X1761808Y322898D03*
X1768158Y322898D03*
X207328Y599758D03*
X213678Y599758D03*
X207328Y581978D03*
X213678Y581978D03*
X466408Y599758D03*
X472758Y599758D03*
X466408Y581978D03*
X472758Y581978D03*
X725488Y599758D03*
X731838Y599758D03*
X725488Y581978D03*
X731838Y581978D03*
X984568Y599758D03*
X990918Y599758D03*
X984568Y581978D03*
X990918Y581978D03*
X1243648Y599758D03*
X1249998Y599758D03*
X1243648Y581978D03*
X1249998Y581978D03*
X1502728Y599758D03*
X1509078Y599758D03*
X1502728Y581978D03*
X1509078Y581978D03*
X1761808Y599758D03*
X1768158Y599758D03*
X1761808Y581978D03*
X1768158Y581978D03*
X207328Y858838D03*
X213678Y858838D03*
X207328Y841058D03*
X213678Y841058D03*
X466408Y858838D03*
X472758Y858838D03*
X466408Y841058D03*
X472758Y841058D03*
X725488Y858838D03*
X731838Y858838D03*
X725488Y841058D03*
X731838Y841058D03*
X984568Y858838D03*
X990918Y858838D03*
X984568Y841058D03*
X990918Y841058D03*
X1243648Y858838D03*
X1249998Y858838D03*
X1243648Y841058D03*
X1249998Y841058D03*
X1502728Y858838D03*
X1509078Y858838D03*
X1502728Y841058D03*
X1509078Y841058D03*
X1761808Y858838D03*
X1768158Y858838D03*
X1761808Y841058D03*
X1768158Y841058D03*
X207328Y1117918D03*
X213678Y1117918D03*
X207328Y1100138D03*
X213678Y1100138D03*
X466408Y1117918D03*
X472758Y1117918D03*
X466408Y1100138D03*
X472758Y1100138D03*
X725488Y1117918D03*
X731838Y1117918D03*
X725488Y1100138D03*
X731838Y1100138D03*
X984568Y1117918D03*
X990918Y1117918D03*
X984568Y1100138D03*
X990918Y1100138D03*
X1243648Y1117918D03*
X1249998Y1117918D03*
X1243648Y1100138D03*
X1249998Y1100138D03*
X1502728Y1117918D03*
X1509078Y1117918D03*
X1502728Y1100138D03*
X1509078Y1100138D03*
X1761808Y1117918D03*
X1768158Y1117918D03*
X1761808Y1100138D03*
X1768158Y1100138D03*
D11*
X25400Y228600D03*
X228600Y228600D03*
D12*
X203200Y50800D03*
X63500Y241300D03*
D13*
X14050Y155000D03*
X14050Y99000D03*
D14*
X50800Y142000D03*
X50800Y132000D03*
X50800Y122000D03*
X50800Y112000D03*
D15*
X135500Y104140D03*
X118500Y104140D03*
D13*
X239950Y99000D03*
X239950Y155000D03*
D14*
X203200Y112000D03*
X203200Y122000D03*
X203200Y132000D03*
X203200Y142000D03*
D16*
X39370Y171840D03*
X39370Y188840D03*
D17*
X23810Y185620D02*
X16830Y185620D01*
X16830Y192600D01*
X23810Y192600D01*
X23810Y185620D01*
X23810Y190420D02*
X16830Y190420D01*
X16830Y168080D02*
X23810Y168080D01*
X16830Y168080D02*
X16830Y175060D01*
X23810Y175060D01*
X23810Y168080D01*
X23810Y172880D02*
X16830Y172880D01*
D16*
X87630Y173110D03*
X87630Y190110D03*
X177800Y169300D03*
X177800Y186300D03*
D18*
X58293Y180340D03*
X68707Y180340D03*
D15*
X135500Y152400D03*
X118500Y152400D03*
D16*
X88900Y135500D03*
X88900Y118500D03*
D15*
X118500Y82550D03*
X135500Y82550D03*
D19*
X152400Y241300D03*
X127000Y241300D03*
X101600Y241300D03*
X63500Y12700D03*
X88900Y12700D03*
X114300Y12700D03*
X139700Y12700D03*
X165100Y12700D03*
X190500Y12700D03*
D20*
X134500Y124500D03*
X134500Y129500D03*
X119500Y129500D03*
X119500Y124500D03*
D21*
X134500Y134625D03*
X129500Y134625D03*
X124500Y134625D03*
X119500Y134625D03*
X119500Y119375D03*
X124500Y119375D03*
X129500Y119375D03*
X134500Y119375D03*
D11*
X25400Y25400D03*
X228600Y25400D03*
X284480Y228600D03*
X487680Y228600D03*
D12*
X462280Y50800D03*
X322580Y241300D03*
D13*
X273130Y155000D03*
X273130Y99000D03*
D14*
X309880Y142000D03*
X309880Y132000D03*
X309880Y122000D03*
X309880Y112000D03*
D15*
X394580Y104140D03*
X377580Y104140D03*
D13*
X499030Y99000D03*
X499030Y155000D03*
D14*
X462280Y112000D03*
X462280Y122000D03*
X462280Y132000D03*
X462280Y142000D03*
D16*
X298450Y171840D03*
X298450Y188840D03*
D17*
X282890Y185620D02*
X275910Y185620D01*
X275910Y192600D01*
X282890Y192600D01*
X282890Y185620D01*
X282890Y190420D02*
X275910Y190420D01*
X275910Y168080D02*
X282890Y168080D01*
X275910Y168080D02*
X275910Y175060D01*
X282890Y175060D01*
X282890Y168080D01*
X282890Y172880D02*
X275910Y172880D01*
D16*
X346710Y173110D03*
X346710Y190110D03*
X436880Y169300D03*
X436880Y186300D03*
D18*
X317373Y180340D03*
X327787Y180340D03*
D15*
X394580Y152400D03*
X377580Y152400D03*
D16*
X347980Y135500D03*
X347980Y118500D03*
D15*
X377580Y82550D03*
X394580Y82550D03*
D19*
X411480Y241300D03*
X386080Y241300D03*
X360680Y241300D03*
X322580Y12700D03*
X347980Y12700D03*
X373380Y12700D03*
X398780Y12700D03*
X424180Y12700D03*
X449580Y12700D03*
D20*
X393580Y124500D03*
X393580Y129500D03*
X378580Y129500D03*
X378580Y124500D03*
D21*
X393580Y134625D03*
X388580Y134625D03*
X383580Y134625D03*
X378580Y134625D03*
X378580Y119375D03*
X383580Y119375D03*
X388580Y119375D03*
X393580Y119375D03*
D11*
X284480Y25400D03*
X487680Y25400D03*
X543560Y228600D03*
X746760Y228600D03*
D12*
X721360Y50800D03*
X581660Y241300D03*
D13*
X532210Y155000D03*
X532210Y99000D03*
D14*
X568960Y142000D03*
X568960Y132000D03*
X568960Y122000D03*
X568960Y112000D03*
D15*
X653660Y104140D03*
X636660Y104140D03*
D13*
X758110Y99000D03*
X758110Y155000D03*
D14*
X721360Y112000D03*
X721360Y122000D03*
X721360Y132000D03*
X721360Y142000D03*
D16*
X557530Y171840D03*
X557530Y188840D03*
D17*
X541970Y185620D02*
X534990Y185620D01*
X534990Y192600D01*
X541970Y192600D01*
X541970Y185620D01*
X541970Y190420D02*
X534990Y190420D01*
X534990Y168080D02*
X541970Y168080D01*
X534990Y168080D02*
X534990Y175060D01*
X541970Y175060D01*
X541970Y168080D01*
X541970Y172880D02*
X534990Y172880D01*
D16*
X605790Y173110D03*
X605790Y190110D03*
X695960Y169300D03*
X695960Y186300D03*
D18*
X576453Y180340D03*
X586867Y180340D03*
D15*
X653660Y152400D03*
X636660Y152400D03*
D16*
X607060Y135500D03*
X607060Y118500D03*
D15*
X636660Y82550D03*
X653660Y82550D03*
D19*
X670560Y241300D03*
X645160Y241300D03*
X619760Y241300D03*
X581660Y12700D03*
X607060Y12700D03*
X632460Y12700D03*
X657860Y12700D03*
X683260Y12700D03*
X708660Y12700D03*
D20*
X652660Y124500D03*
X652660Y129500D03*
X637660Y129500D03*
X637660Y124500D03*
D21*
X652660Y134625D03*
X647660Y134625D03*
X642660Y134625D03*
X637660Y134625D03*
X637660Y119375D03*
X642660Y119375D03*
X647660Y119375D03*
X652660Y119375D03*
D11*
X543560Y25400D03*
X746760Y25400D03*
X802640Y228600D03*
X1005840Y228600D03*
D12*
X980440Y50800D03*
X840740Y241300D03*
D13*
X791290Y155000D03*
X791290Y99000D03*
D14*
X828040Y142000D03*
X828040Y132000D03*
X828040Y122000D03*
X828040Y112000D03*
D15*
X912740Y104140D03*
X895740Y104140D03*
D13*
X1017190Y99000D03*
X1017190Y155000D03*
D14*
X980440Y112000D03*
X980440Y122000D03*
X980440Y132000D03*
X980440Y142000D03*
D16*
X816610Y171840D03*
X816610Y188840D03*
D17*
X801050Y185620D02*
X794070Y185620D01*
X794070Y192600D01*
X801050Y192600D01*
X801050Y185620D01*
X801050Y190420D02*
X794070Y190420D01*
X794070Y168080D02*
X801050Y168080D01*
X794070Y168080D02*
X794070Y175060D01*
X801050Y175060D01*
X801050Y168080D01*
X801050Y172880D02*
X794070Y172880D01*
D16*
X864870Y173110D03*
X864870Y190110D03*
X955040Y169300D03*
X955040Y186300D03*
D18*
X835533Y180340D03*
X845947Y180340D03*
D15*
X912740Y152400D03*
X895740Y152400D03*
D16*
X866140Y135500D03*
X866140Y118500D03*
D15*
X895740Y82550D03*
X912740Y82550D03*
D19*
X929640Y241300D03*
X904240Y241300D03*
X878840Y241300D03*
X840740Y12700D03*
X866140Y12700D03*
X891540Y12700D03*
X916940Y12700D03*
X942340Y12700D03*
X967740Y12700D03*
D20*
X911740Y124500D03*
X911740Y129500D03*
X896740Y129500D03*
X896740Y124500D03*
D21*
X911740Y134625D03*
X906740Y134625D03*
X901740Y134625D03*
X896740Y134625D03*
X896740Y119375D03*
X901740Y119375D03*
X906740Y119375D03*
X911740Y119375D03*
D11*
X802640Y25400D03*
X1005840Y25400D03*
X1061720Y228600D03*
X1264920Y228600D03*
D12*
X1239520Y50800D03*
X1099820Y241300D03*
D13*
X1050370Y155000D03*
X1050370Y99000D03*
D14*
X1087120Y142000D03*
X1087120Y132000D03*
X1087120Y122000D03*
X1087120Y112000D03*
D15*
X1171820Y104140D03*
X1154820Y104140D03*
D13*
X1276270Y99000D03*
X1276270Y155000D03*
D14*
X1239520Y112000D03*
X1239520Y122000D03*
X1239520Y132000D03*
X1239520Y142000D03*
D16*
X1075690Y171840D03*
X1075690Y188840D03*
D17*
X1060130Y185620D02*
X1053150Y185620D01*
X1053150Y192600D01*
X1060130Y192600D01*
X1060130Y185620D01*
X1060130Y190420D02*
X1053150Y190420D01*
X1053150Y168080D02*
X1060130Y168080D01*
X1053150Y168080D02*
X1053150Y175060D01*
X1060130Y175060D01*
X1060130Y168080D01*
X1060130Y172880D02*
X1053150Y172880D01*
D16*
X1123950Y173110D03*
X1123950Y190110D03*
X1214120Y169300D03*
X1214120Y186300D03*
D18*
X1094613Y180340D03*
X1105027Y180340D03*
D15*
X1171820Y152400D03*
X1154820Y152400D03*
D16*
X1125220Y135500D03*
X1125220Y118500D03*
D15*
X1154820Y82550D03*
X1171820Y82550D03*
D19*
X1188720Y241300D03*
X1163320Y241300D03*
X1137920Y241300D03*
X1099820Y12700D03*
X1125220Y12700D03*
X1150620Y12700D03*
X1176020Y12700D03*
X1201420Y12700D03*
X1226820Y12700D03*
D20*
X1170820Y124500D03*
X1170820Y129500D03*
X1155820Y129500D03*
X1155820Y124500D03*
D21*
X1170820Y134625D03*
X1165820Y134625D03*
X1160820Y134625D03*
X1155820Y134625D03*
X1155820Y119375D03*
X1160820Y119375D03*
X1165820Y119375D03*
X1170820Y119375D03*
D11*
X1061720Y25400D03*
X1264920Y25400D03*
X1320800Y228600D03*
X1524000Y228600D03*
D12*
X1498600Y50800D03*
X1358900Y241300D03*
D13*
X1309450Y155000D03*
X1309450Y99000D03*
D14*
X1346200Y142000D03*
X1346200Y132000D03*
X1346200Y122000D03*
X1346200Y112000D03*
D15*
X1430900Y104140D03*
X1413900Y104140D03*
D13*
X1535350Y99000D03*
X1535350Y155000D03*
D14*
X1498600Y112000D03*
X1498600Y122000D03*
X1498600Y132000D03*
X1498600Y142000D03*
D16*
X1334770Y171840D03*
X1334770Y188840D03*
D17*
X1319210Y185620D02*
X1312230Y185620D01*
X1312230Y192600D01*
X1319210Y192600D01*
X1319210Y185620D01*
X1319210Y190420D02*
X1312230Y190420D01*
X1312230Y168080D02*
X1319210Y168080D01*
X1312230Y168080D02*
X1312230Y175060D01*
X1319210Y175060D01*
X1319210Y168080D01*
X1319210Y172880D02*
X1312230Y172880D01*
D16*
X1383030Y173110D03*
X1383030Y190110D03*
X1473200Y169300D03*
X1473200Y186300D03*
D18*
X1353693Y180340D03*
X1364107Y180340D03*
D15*
X1430900Y152400D03*
X1413900Y152400D03*
D16*
X1384300Y135500D03*
X1384300Y118500D03*
D15*
X1413900Y82550D03*
X1430900Y82550D03*
D19*
X1447800Y241300D03*
X1422400Y241300D03*
X1397000Y241300D03*
X1358900Y12700D03*
X1384300Y12700D03*
X1409700Y12700D03*
X1435100Y12700D03*
X1460500Y12700D03*
X1485900Y12700D03*
D20*
X1429900Y124500D03*
X1429900Y129500D03*
X1414900Y129500D03*
X1414900Y124500D03*
D21*
X1429900Y134625D03*
X1424900Y134625D03*
X1419900Y134625D03*
X1414900Y134625D03*
X1414900Y119375D03*
X1419900Y119375D03*
X1424900Y119375D03*
X1429900Y119375D03*
D11*
X1320800Y25400D03*
X1524000Y25400D03*
X1579880Y228600D03*
X1783080Y228600D03*
D12*
X1757680Y50800D03*
X1617980Y241300D03*
D13*
X1568530Y155000D03*
X1568530Y99000D03*
D14*
X1605280Y142000D03*
X1605280Y132000D03*
X1605280Y122000D03*
X1605280Y112000D03*
D15*
X1689980Y104140D03*
X1672980Y104140D03*
D13*
X1794430Y99000D03*
X1794430Y155000D03*
D14*
X1757680Y112000D03*
X1757680Y122000D03*
X1757680Y132000D03*
X1757680Y142000D03*
D16*
X1593850Y171840D03*
X1593850Y188840D03*
D17*
X1578290Y185620D02*
X1571310Y185620D01*
X1571310Y192600D01*
X1578290Y192600D01*
X1578290Y185620D01*
X1578290Y190420D02*
X1571310Y190420D01*
X1571310Y168080D02*
X1578290Y168080D01*
X1571310Y168080D02*
X1571310Y175060D01*
X1578290Y175060D01*
X1578290Y168080D01*
X1578290Y172880D02*
X1571310Y172880D01*
D16*
X1642110Y173110D03*
X1642110Y190110D03*
X1732280Y169300D03*
X1732280Y186300D03*
D18*
X1612773Y180340D03*
X1623187Y180340D03*
D15*
X1689980Y152400D03*
X1672980Y152400D03*
D16*
X1643380Y135500D03*
X1643380Y118500D03*
D15*
X1672980Y82550D03*
X1689980Y82550D03*
D19*
X1706880Y241300D03*
X1681480Y241300D03*
X1656080Y241300D03*
X1617980Y12700D03*
X1643380Y12700D03*
X1668780Y12700D03*
X1694180Y12700D03*
X1719580Y12700D03*
X1744980Y12700D03*
D20*
X1688980Y124500D03*
X1688980Y129500D03*
X1673980Y129500D03*
X1673980Y124500D03*
D21*
X1688980Y134625D03*
X1683980Y134625D03*
X1678980Y134625D03*
X1673980Y134625D03*
X1673980Y119375D03*
X1678980Y119375D03*
X1683980Y119375D03*
X1688980Y119375D03*
D11*
X1579880Y25400D03*
X1783080Y25400D03*
X25400Y487680D03*
X228600Y487680D03*
D12*
X203200Y309880D03*
X63500Y500380D03*
D13*
X14050Y414080D03*
X14050Y358080D03*
D14*
X50800Y401080D03*
X50800Y391080D03*
X50800Y381080D03*
X50800Y371080D03*
D15*
X135500Y363220D03*
X118500Y363220D03*
D13*
X239950Y358080D03*
X239950Y414080D03*
D14*
X203200Y371080D03*
X203200Y381080D03*
X203200Y391080D03*
X203200Y401080D03*
D16*
X39370Y430920D03*
X39370Y447920D03*
D17*
X23810Y444700D02*
X16830Y444700D01*
X16830Y451680D01*
X23810Y451680D01*
X23810Y444700D01*
X23810Y449500D02*
X16830Y449500D01*
X16830Y427160D02*
X23810Y427160D01*
X16830Y427160D02*
X16830Y434140D01*
X23810Y434140D01*
X23810Y427160D01*
X23810Y431960D02*
X16830Y431960D01*
D16*
X87630Y432190D03*
X87630Y449190D03*
X177800Y428380D03*
X177800Y445380D03*
D18*
X58293Y439420D03*
X68707Y439420D03*
D15*
X135500Y411480D03*
X118500Y411480D03*
D16*
X88900Y394580D03*
X88900Y377580D03*
D15*
X118500Y341630D03*
X135500Y341630D03*
D19*
X152400Y500380D03*
X127000Y500380D03*
X101600Y500380D03*
X63500Y271780D03*
X88900Y271780D03*
X114300Y271780D03*
X139700Y271780D03*
X165100Y271780D03*
X190500Y271780D03*
D20*
X134500Y383580D03*
X134500Y388580D03*
X119500Y388580D03*
X119500Y383580D03*
D21*
X134500Y393705D03*
X129500Y393705D03*
X124500Y393705D03*
X119500Y393705D03*
X119500Y378455D03*
X124500Y378455D03*
X129500Y378455D03*
X134500Y378455D03*
D11*
X25400Y284480D03*
X228600Y284480D03*
X284480Y487680D03*
X487680Y487680D03*
D12*
X462280Y309880D03*
X322580Y500380D03*
D13*
X273130Y414080D03*
X273130Y358080D03*
D14*
X309880Y401080D03*
X309880Y391080D03*
X309880Y381080D03*
X309880Y371080D03*
D15*
X394580Y363220D03*
X377580Y363220D03*
D13*
X499030Y358080D03*
X499030Y414080D03*
D14*
X462280Y371080D03*
X462280Y381080D03*
X462280Y391080D03*
X462280Y401080D03*
D16*
X298450Y430920D03*
X298450Y447920D03*
D17*
X282890Y444700D02*
X275910Y444700D01*
X275910Y451680D01*
X282890Y451680D01*
X282890Y444700D01*
X282890Y449500D02*
X275910Y449500D01*
X275910Y427160D02*
X282890Y427160D01*
X275910Y427160D02*
X275910Y434140D01*
X282890Y434140D01*
X282890Y427160D01*
X282890Y431960D02*
X275910Y431960D01*
D16*
X346710Y432190D03*
X346710Y449190D03*
X436880Y428380D03*
X436880Y445380D03*
D18*
X317373Y439420D03*
X327787Y439420D03*
D15*
X394580Y411480D03*
X377580Y411480D03*
D16*
X347980Y394580D03*
X347980Y377580D03*
D15*
X377580Y341630D03*
X394580Y341630D03*
D19*
X411480Y500380D03*
X386080Y500380D03*
X360680Y500380D03*
X322580Y271780D03*
X347980Y271780D03*
X373380Y271780D03*
X398780Y271780D03*
X424180Y271780D03*
X449580Y271780D03*
D20*
X393580Y383580D03*
X393580Y388580D03*
X378580Y388580D03*
X378580Y383580D03*
D21*
X393580Y393705D03*
X388580Y393705D03*
X383580Y393705D03*
X378580Y393705D03*
X378580Y378455D03*
X383580Y378455D03*
X388580Y378455D03*
X393580Y378455D03*
D11*
X284480Y284480D03*
X487680Y284480D03*
X543560Y487680D03*
X746760Y487680D03*
D12*
X721360Y309880D03*
X581660Y500380D03*
D13*
X532210Y414080D03*
X532210Y358080D03*
D14*
X568960Y401080D03*
X568960Y391080D03*
X568960Y381080D03*
X568960Y371080D03*
D15*
X653660Y363220D03*
X636660Y363220D03*
D13*
X758110Y358080D03*
X758110Y414080D03*
D14*
X721360Y371080D03*
X721360Y381080D03*
X721360Y391080D03*
X721360Y401080D03*
D16*
X557530Y430920D03*
X557530Y447920D03*
D17*
X541970Y444700D02*
X534990Y444700D01*
X534990Y451680D01*
X541970Y451680D01*
X541970Y444700D01*
X541970Y449500D02*
X534990Y449500D01*
X534990Y427160D02*
X541970Y427160D01*
X534990Y427160D02*
X534990Y434140D01*
X541970Y434140D01*
X541970Y427160D01*
X541970Y431960D02*
X534990Y431960D01*
D16*
X605790Y432190D03*
X605790Y449190D03*
X695960Y428380D03*
X695960Y445380D03*
D18*
X576453Y439420D03*
X586867Y439420D03*
D15*
X653660Y411480D03*
X636660Y411480D03*
D16*
X607060Y394580D03*
X607060Y377580D03*
D15*
X636660Y341630D03*
X653660Y341630D03*
D19*
X670560Y500380D03*
X645160Y500380D03*
X619760Y500380D03*
X581660Y271780D03*
X607060Y271780D03*
X632460Y271780D03*
X657860Y271780D03*
X683260Y271780D03*
X708660Y271780D03*
D20*
X652660Y383580D03*
X652660Y388580D03*
X637660Y388580D03*
X637660Y383580D03*
D21*
X652660Y393705D03*
X647660Y393705D03*
X642660Y393705D03*
X637660Y393705D03*
X637660Y378455D03*
X642660Y378455D03*
X647660Y378455D03*
X652660Y378455D03*
D11*
X543560Y284480D03*
X746760Y284480D03*
X802640Y487680D03*
X1005840Y487680D03*
D12*
X980440Y309880D03*
X840740Y500380D03*
D13*
X791290Y414080D03*
X791290Y358080D03*
D14*
X828040Y401080D03*
X828040Y391080D03*
X828040Y381080D03*
X828040Y371080D03*
D15*
X912740Y363220D03*
X895740Y363220D03*
D13*
X1017190Y358080D03*
X1017190Y414080D03*
D14*
X980440Y371080D03*
X980440Y381080D03*
X980440Y391080D03*
X980440Y401080D03*
D16*
X816610Y430920D03*
X816610Y447920D03*
D17*
X801050Y444700D02*
X794070Y444700D01*
X794070Y451680D01*
X801050Y451680D01*
X801050Y444700D01*
X801050Y449500D02*
X794070Y449500D01*
X794070Y427160D02*
X801050Y427160D01*
X794070Y427160D02*
X794070Y434140D01*
X801050Y434140D01*
X801050Y427160D01*
X801050Y431960D02*
X794070Y431960D01*
D16*
X864870Y432190D03*
X864870Y449190D03*
X955040Y428380D03*
X955040Y445380D03*
D18*
X835533Y439420D03*
X845947Y439420D03*
D15*
X912740Y411480D03*
X895740Y411480D03*
D16*
X866140Y394580D03*
X866140Y377580D03*
D15*
X895740Y341630D03*
X912740Y341630D03*
D19*
X929640Y500380D03*
X904240Y500380D03*
X878840Y500380D03*
X840740Y271780D03*
X866140Y271780D03*
X891540Y271780D03*
X916940Y271780D03*
X942340Y271780D03*
X967740Y271780D03*
D20*
X911740Y383580D03*
X911740Y388580D03*
X896740Y388580D03*
X896740Y383580D03*
D21*
X911740Y393705D03*
X906740Y393705D03*
X901740Y393705D03*
X896740Y393705D03*
X896740Y378455D03*
X901740Y378455D03*
X906740Y378455D03*
X911740Y378455D03*
D11*
X802640Y284480D03*
X1005840Y284480D03*
X1061720Y487680D03*
X1264920Y487680D03*
D12*
X1239520Y309880D03*
X1099820Y500380D03*
D13*
X1050370Y414080D03*
X1050370Y358080D03*
D14*
X1087120Y401080D03*
X1087120Y391080D03*
X1087120Y381080D03*
X1087120Y371080D03*
D15*
X1171820Y363220D03*
X1154820Y363220D03*
D13*
X1276270Y358080D03*
X1276270Y414080D03*
D14*
X1239520Y371080D03*
X1239520Y381080D03*
X1239520Y391080D03*
X1239520Y401080D03*
D16*
X1075690Y430920D03*
X1075690Y447920D03*
D17*
X1060130Y444700D02*
X1053150Y444700D01*
X1053150Y451680D01*
X1060130Y451680D01*
X1060130Y444700D01*
X1060130Y449500D02*
X1053150Y449500D01*
X1053150Y427160D02*
X1060130Y427160D01*
X1053150Y427160D02*
X1053150Y434140D01*
X1060130Y434140D01*
X1060130Y427160D01*
X1060130Y431960D02*
X1053150Y431960D01*
D16*
X1123950Y432190D03*
X1123950Y449190D03*
X1214120Y428380D03*
X1214120Y445380D03*
D18*
X1094613Y439420D03*
X1105027Y439420D03*
D15*
X1171820Y411480D03*
X1154820Y411480D03*
D16*
X1125220Y394580D03*
X1125220Y377580D03*
D15*
X1154820Y341630D03*
X1171820Y341630D03*
D19*
X1188720Y500380D03*
X1163320Y500380D03*
X1137920Y500380D03*
X1099820Y271780D03*
X1125220Y271780D03*
X1150620Y271780D03*
X1176020Y271780D03*
X1201420Y271780D03*
X1226820Y271780D03*
D20*
X1170820Y383580D03*
X1170820Y388580D03*
X1155820Y388580D03*
X1155820Y383580D03*
D21*
X1170820Y393705D03*
X1165820Y393705D03*
X1160820Y393705D03*
X1155820Y393705D03*
X1155820Y378455D03*
X1160820Y378455D03*
X1165820Y378455D03*
X1170820Y378455D03*
D11*
X1061720Y284480D03*
X1264920Y284480D03*
X1320800Y487680D03*
X1524000Y487680D03*
D12*
X1498600Y309880D03*
X1358900Y500380D03*
D13*
X1309450Y414080D03*
X1309450Y358080D03*
D14*
X1346200Y401080D03*
X1346200Y391080D03*
X1346200Y381080D03*
X1346200Y371080D03*
D15*
X1430900Y363220D03*
X1413900Y363220D03*
D13*
X1535350Y358080D03*
X1535350Y414080D03*
D14*
X1498600Y371080D03*
X1498600Y381080D03*
X1498600Y391080D03*
X1498600Y401080D03*
D16*
X1334770Y430920D03*
X1334770Y447920D03*
D17*
X1319210Y444700D02*
X1312230Y444700D01*
X1312230Y451680D01*
X1319210Y451680D01*
X1319210Y444700D01*
X1319210Y449500D02*
X1312230Y449500D01*
X1312230Y427160D02*
X1319210Y427160D01*
X1312230Y427160D02*
X1312230Y434140D01*
X1319210Y434140D01*
X1319210Y427160D01*
X1319210Y431960D02*
X1312230Y431960D01*
D16*
X1383030Y432190D03*
X1383030Y449190D03*
X1473200Y428380D03*
X1473200Y445380D03*
D18*
X1353693Y439420D03*
X1364107Y439420D03*
D15*
X1430900Y411480D03*
X1413900Y411480D03*
D16*
X1384300Y394580D03*
X1384300Y377580D03*
D15*
X1413900Y341630D03*
X1430900Y341630D03*
D19*
X1447800Y500380D03*
X1422400Y500380D03*
X1397000Y500380D03*
X1358900Y271780D03*
X1384300Y271780D03*
X1409700Y271780D03*
X1435100Y271780D03*
X1460500Y271780D03*
X1485900Y271780D03*
D20*
X1429900Y383580D03*
X1429900Y388580D03*
X1414900Y388580D03*
X1414900Y383580D03*
D21*
X1429900Y393705D03*
X1424900Y393705D03*
X1419900Y393705D03*
X1414900Y393705D03*
X1414900Y378455D03*
X1419900Y378455D03*
X1424900Y378455D03*
X1429900Y378455D03*
D11*
X1320800Y284480D03*
X1524000Y284480D03*
X1579880Y487680D03*
X1783080Y487680D03*
D12*
X1757680Y309880D03*
X1617980Y500380D03*
D13*
X1568530Y414080D03*
X1568530Y358080D03*
D14*
X1605280Y401080D03*
X1605280Y391080D03*
X1605280Y381080D03*
X1605280Y371080D03*
D15*
X1689980Y363220D03*
X1672980Y363220D03*
D13*
X1794430Y358080D03*
X1794430Y414080D03*
D14*
X1757680Y371080D03*
X1757680Y381080D03*
X1757680Y391080D03*
X1757680Y401080D03*
D16*
X1593850Y430920D03*
X1593850Y447920D03*
D17*
X1578290Y444700D02*
X1571310Y444700D01*
X1571310Y451680D01*
X1578290Y451680D01*
X1578290Y444700D01*
X1578290Y449500D02*
X1571310Y449500D01*
X1571310Y427160D02*
X1578290Y427160D01*
X1571310Y427160D02*
X1571310Y434140D01*
X1578290Y434140D01*
X1578290Y427160D01*
X1578290Y431960D02*
X1571310Y431960D01*
D16*
X1642110Y432190D03*
X1642110Y449190D03*
X1732280Y428380D03*
X1732280Y445380D03*
D18*
X1612773Y439420D03*
X1623187Y439420D03*
D15*
X1689980Y411480D03*
X1672980Y411480D03*
D16*
X1643380Y394580D03*
X1643380Y377580D03*
D15*
X1672980Y341630D03*
X1689980Y341630D03*
D19*
X1706880Y500380D03*
X1681480Y500380D03*
X1656080Y500380D03*
X1617980Y271780D03*
X1643380Y271780D03*
X1668780Y271780D03*
X1694180Y271780D03*
X1719580Y271780D03*
X1744980Y271780D03*
D20*
X1688980Y383580D03*
X1688980Y388580D03*
X1673980Y388580D03*
X1673980Y383580D03*
D21*
X1688980Y393705D03*
X1683980Y393705D03*
X1678980Y393705D03*
X1673980Y393705D03*
X1673980Y378455D03*
X1678980Y378455D03*
X1683980Y378455D03*
X1688980Y378455D03*
D11*
X1579880Y284480D03*
X1783080Y284480D03*
X25400Y746760D03*
X228600Y746760D03*
D12*
X203200Y568960D03*
X63500Y759460D03*
D13*
X14050Y673160D03*
X14050Y617160D03*
D14*
X50800Y660160D03*
X50800Y650160D03*
X50800Y640160D03*
X50800Y630160D03*
D15*
X135500Y622300D03*
X118500Y622300D03*
D13*
X239950Y617160D03*
X239950Y673160D03*
D14*
X203200Y630160D03*
X203200Y640160D03*
X203200Y650160D03*
X203200Y660160D03*
D16*
X39370Y690000D03*
X39370Y707000D03*
D17*
X23810Y703780D02*
X16830Y703780D01*
X16830Y710760D01*
X23810Y710760D01*
X23810Y703780D01*
X23810Y708580D02*
X16830Y708580D01*
X16830Y686240D02*
X23810Y686240D01*
X16830Y686240D02*
X16830Y693220D01*
X23810Y693220D01*
X23810Y686240D01*
X23810Y691040D02*
X16830Y691040D01*
D16*
X87630Y691270D03*
X87630Y708270D03*
X177800Y687460D03*
X177800Y704460D03*
D18*
X58293Y698500D03*
X68707Y698500D03*
D15*
X135500Y670560D03*
X118500Y670560D03*
D16*
X88900Y653660D03*
X88900Y636660D03*
D15*
X118500Y600710D03*
X135500Y600710D03*
D19*
X152400Y759460D03*
X127000Y759460D03*
X101600Y759460D03*
X63500Y530860D03*
X88900Y530860D03*
X114300Y530860D03*
X139700Y530860D03*
X165100Y530860D03*
X190500Y530860D03*
D20*
X134500Y642660D03*
X134500Y647660D03*
X119500Y647660D03*
X119500Y642660D03*
D21*
X134500Y652785D03*
X129500Y652785D03*
X124500Y652785D03*
X119500Y652785D03*
X119500Y637535D03*
X124500Y637535D03*
X129500Y637535D03*
X134500Y637535D03*
D11*
X25400Y543560D03*
X228600Y543560D03*
X284480Y746760D03*
X487680Y746760D03*
D12*
X462280Y568960D03*
X322580Y759460D03*
D13*
X273130Y673160D03*
X273130Y617160D03*
D14*
X309880Y660160D03*
X309880Y650160D03*
X309880Y640160D03*
X309880Y630160D03*
D15*
X394580Y622300D03*
X377580Y622300D03*
D13*
X499030Y617160D03*
X499030Y673160D03*
D14*
X462280Y630160D03*
X462280Y640160D03*
X462280Y650160D03*
X462280Y660160D03*
D16*
X298450Y690000D03*
X298450Y707000D03*
D17*
X282890Y703780D02*
X275910Y703780D01*
X275910Y710760D01*
X282890Y710760D01*
X282890Y703780D01*
X282890Y708580D02*
X275910Y708580D01*
X275910Y686240D02*
X282890Y686240D01*
X275910Y686240D02*
X275910Y693220D01*
X282890Y693220D01*
X282890Y686240D01*
X282890Y691040D02*
X275910Y691040D01*
D16*
X346710Y691270D03*
X346710Y708270D03*
X436880Y687460D03*
X436880Y704460D03*
D18*
X317373Y698500D03*
X327787Y698500D03*
D15*
X394580Y670560D03*
X377580Y670560D03*
D16*
X347980Y653660D03*
X347980Y636660D03*
D15*
X377580Y600710D03*
X394580Y600710D03*
D19*
X411480Y759460D03*
X386080Y759460D03*
X360680Y759460D03*
X322580Y530860D03*
X347980Y530860D03*
X373380Y530860D03*
X398780Y530860D03*
X424180Y530860D03*
X449580Y530860D03*
D20*
X393580Y642660D03*
X393580Y647660D03*
X378580Y647660D03*
X378580Y642660D03*
D21*
X393580Y652785D03*
X388580Y652785D03*
X383580Y652785D03*
X378580Y652785D03*
X378580Y637535D03*
X383580Y637535D03*
X388580Y637535D03*
X393580Y637535D03*
D11*
X284480Y543560D03*
X487680Y543560D03*
X543560Y746760D03*
X746760Y746760D03*
D12*
X721360Y568960D03*
X581660Y759460D03*
D13*
X532210Y673160D03*
X532210Y617160D03*
D14*
X568960Y660160D03*
X568960Y650160D03*
X568960Y640160D03*
X568960Y630160D03*
D15*
X653660Y622300D03*
X636660Y622300D03*
D13*
X758110Y617160D03*
X758110Y673160D03*
D14*
X721360Y630160D03*
X721360Y640160D03*
X721360Y650160D03*
X721360Y660160D03*
D16*
X557530Y690000D03*
X557530Y707000D03*
D17*
X541970Y703780D02*
X534990Y703780D01*
X534990Y710760D01*
X541970Y710760D01*
X541970Y703780D01*
X541970Y708580D02*
X534990Y708580D01*
X534990Y686240D02*
X541970Y686240D01*
X534990Y686240D02*
X534990Y693220D01*
X541970Y693220D01*
X541970Y686240D01*
X541970Y691040D02*
X534990Y691040D01*
D16*
X605790Y691270D03*
X605790Y708270D03*
X695960Y687460D03*
X695960Y704460D03*
D18*
X576453Y698500D03*
X586867Y698500D03*
D15*
X653660Y670560D03*
X636660Y670560D03*
D16*
X607060Y653660D03*
X607060Y636660D03*
D15*
X636660Y600710D03*
X653660Y600710D03*
D19*
X670560Y759460D03*
X645160Y759460D03*
X619760Y759460D03*
X581660Y530860D03*
X607060Y530860D03*
X632460Y530860D03*
X657860Y530860D03*
X683260Y530860D03*
X708660Y530860D03*
D20*
X652660Y642660D03*
X652660Y647660D03*
X637660Y647660D03*
X637660Y642660D03*
D21*
X652660Y652785D03*
X647660Y652785D03*
X642660Y652785D03*
X637660Y652785D03*
X637660Y637535D03*
X642660Y637535D03*
X647660Y637535D03*
X652660Y637535D03*
D11*
X543560Y543560D03*
X746760Y543560D03*
X802640Y746760D03*
X1005840Y746760D03*
D12*
X980440Y568960D03*
X840740Y759460D03*
D13*
X791290Y673160D03*
X791290Y617160D03*
D14*
X828040Y660160D03*
X828040Y650160D03*
X828040Y640160D03*
X828040Y630160D03*
D15*
X912740Y622300D03*
X895740Y622300D03*
D13*
X1017190Y617160D03*
X1017190Y673160D03*
D14*
X980440Y630160D03*
X980440Y640160D03*
X980440Y650160D03*
X980440Y660160D03*
D16*
X816610Y690000D03*
X816610Y707000D03*
D17*
X801050Y703780D02*
X794070Y703780D01*
X794070Y710760D01*
X801050Y710760D01*
X801050Y703780D01*
X801050Y708580D02*
X794070Y708580D01*
X794070Y686240D02*
X801050Y686240D01*
X794070Y686240D02*
X794070Y693220D01*
X801050Y693220D01*
X801050Y686240D01*
X801050Y691040D02*
X794070Y691040D01*
D16*
X864870Y691270D03*
X864870Y708270D03*
X955040Y687460D03*
X955040Y704460D03*
D18*
X835533Y698500D03*
X845947Y698500D03*
D15*
X912740Y670560D03*
X895740Y670560D03*
D16*
X866140Y653660D03*
X866140Y636660D03*
D15*
X895740Y600710D03*
X912740Y600710D03*
D19*
X929640Y759460D03*
X904240Y759460D03*
X878840Y759460D03*
X840740Y530860D03*
X866140Y530860D03*
X891540Y530860D03*
X916940Y530860D03*
X942340Y530860D03*
X967740Y530860D03*
D20*
X911740Y642660D03*
X911740Y647660D03*
X896740Y647660D03*
X896740Y642660D03*
D21*
X911740Y652785D03*
X906740Y652785D03*
X901740Y652785D03*
X896740Y652785D03*
X896740Y637535D03*
X901740Y637535D03*
X906740Y637535D03*
X911740Y637535D03*
D11*
X802640Y543560D03*
X1005840Y543560D03*
X1061720Y746760D03*
X1264920Y746760D03*
D12*
X1239520Y568960D03*
X1099820Y759460D03*
D13*
X1050370Y673160D03*
X1050370Y617160D03*
D14*
X1087120Y660160D03*
X1087120Y650160D03*
X1087120Y640160D03*
X1087120Y630160D03*
D15*
X1171820Y622300D03*
X1154820Y622300D03*
D13*
X1276270Y617160D03*
X1276270Y673160D03*
D14*
X1239520Y630160D03*
X1239520Y640160D03*
X1239520Y650160D03*
X1239520Y660160D03*
D16*
X1075690Y690000D03*
X1075690Y707000D03*
D17*
X1060130Y703780D02*
X1053150Y703780D01*
X1053150Y710760D01*
X1060130Y710760D01*
X1060130Y703780D01*
X1060130Y708580D02*
X1053150Y708580D01*
X1053150Y686240D02*
X1060130Y686240D01*
X1053150Y686240D02*
X1053150Y693220D01*
X1060130Y693220D01*
X1060130Y686240D01*
X1060130Y691040D02*
X1053150Y691040D01*
D16*
X1123950Y691270D03*
X1123950Y708270D03*
X1214120Y687460D03*
X1214120Y704460D03*
D18*
X1094613Y698500D03*
X1105027Y698500D03*
D15*
X1171820Y670560D03*
X1154820Y670560D03*
D16*
X1125220Y653660D03*
X1125220Y636660D03*
D15*
X1154820Y600710D03*
X1171820Y600710D03*
D19*
X1188720Y759460D03*
X1163320Y759460D03*
X1137920Y759460D03*
X1099820Y530860D03*
X1125220Y530860D03*
X1150620Y530860D03*
X1176020Y530860D03*
X1201420Y530860D03*
X1226820Y530860D03*
D20*
X1170820Y642660D03*
X1170820Y647660D03*
X1155820Y647660D03*
X1155820Y642660D03*
D21*
X1170820Y652785D03*
X1165820Y652785D03*
X1160820Y652785D03*
X1155820Y652785D03*
X1155820Y637535D03*
X1160820Y637535D03*
X1165820Y637535D03*
X1170820Y637535D03*
D11*
X1061720Y543560D03*
X1264920Y543560D03*
X1320800Y746760D03*
X1524000Y746760D03*
D12*
X1498600Y568960D03*
X1358900Y759460D03*
D13*
X1309450Y673160D03*
X1309450Y617160D03*
D14*
X1346200Y660160D03*
X1346200Y650160D03*
X1346200Y640160D03*
X1346200Y630160D03*
D15*
X1430900Y622300D03*
X1413900Y622300D03*
D13*
X1535350Y617160D03*
X1535350Y673160D03*
D14*
X1498600Y630160D03*
X1498600Y640160D03*
X1498600Y650160D03*
X1498600Y660160D03*
D16*
X1334770Y690000D03*
X1334770Y707000D03*
D17*
X1319210Y703780D02*
X1312230Y703780D01*
X1312230Y710760D01*
X1319210Y710760D01*
X1319210Y703780D01*
X1319210Y708580D02*
X1312230Y708580D01*
X1312230Y686240D02*
X1319210Y686240D01*
X1312230Y686240D02*
X1312230Y693220D01*
X1319210Y693220D01*
X1319210Y686240D01*
X1319210Y691040D02*
X1312230Y691040D01*
D16*
X1383030Y691270D03*
X1383030Y708270D03*
X1473200Y687460D03*
X1473200Y704460D03*
D18*
X1353693Y698500D03*
X1364107Y698500D03*
D15*
X1430900Y670560D03*
X1413900Y670560D03*
D16*
X1384300Y653660D03*
X1384300Y636660D03*
D15*
X1413900Y600710D03*
X1430900Y600710D03*
D19*
X1447800Y759460D03*
X1422400Y759460D03*
X1397000Y759460D03*
X1358900Y530860D03*
X1384300Y530860D03*
X1409700Y530860D03*
X1435100Y530860D03*
X1460500Y530860D03*
X1485900Y530860D03*
D20*
X1429900Y642660D03*
X1429900Y647660D03*
X1414900Y647660D03*
X1414900Y642660D03*
D21*
X1429900Y652785D03*
X1424900Y652785D03*
X1419900Y652785D03*
X1414900Y652785D03*
X1414900Y637535D03*
X1419900Y637535D03*
X1424900Y637535D03*
X1429900Y637535D03*
D11*
X1320800Y543560D03*
X1524000Y543560D03*
X1579880Y746760D03*
X1783080Y746760D03*
D12*
X1757680Y568960D03*
X1617980Y759460D03*
D13*
X1568530Y673160D03*
X1568530Y617160D03*
D14*
X1605280Y660160D03*
X1605280Y650160D03*
X1605280Y640160D03*
X1605280Y630160D03*
D15*
X1689980Y622300D03*
X1672980Y622300D03*
D13*
X1794430Y617160D03*
X1794430Y673160D03*
D14*
X1757680Y630160D03*
X1757680Y640160D03*
X1757680Y650160D03*
X1757680Y660160D03*
D16*
X1593850Y690000D03*
X1593850Y707000D03*
D17*
X1578290Y703780D02*
X1571310Y703780D01*
X1571310Y710760D01*
X1578290Y710760D01*
X1578290Y703780D01*
X1578290Y708580D02*
X1571310Y708580D01*
X1571310Y686240D02*
X1578290Y686240D01*
X1571310Y686240D02*
X1571310Y693220D01*
X1578290Y693220D01*
X1578290Y686240D01*
X1578290Y691040D02*
X1571310Y691040D01*
D16*
X1642110Y691270D03*
X1642110Y708270D03*
X1732280Y687460D03*
X1732280Y704460D03*
D18*
X1612773Y698500D03*
X1623187Y698500D03*
D15*
X1689980Y670560D03*
X1672980Y670560D03*
D16*
X1643380Y653660D03*
X1643380Y636660D03*
D15*
X1672980Y600710D03*
X1689980Y600710D03*
D19*
X1706880Y759460D03*
X1681480Y759460D03*
X1656080Y759460D03*
X1617980Y530860D03*
X1643380Y530860D03*
X1668780Y530860D03*
X1694180Y530860D03*
X1719580Y530860D03*
X1744980Y530860D03*
D20*
X1688980Y642660D03*
X1688980Y647660D03*
X1673980Y647660D03*
X1673980Y642660D03*
D21*
X1688980Y652785D03*
X1683980Y652785D03*
X1678980Y652785D03*
X1673980Y652785D03*
X1673980Y637535D03*
X1678980Y637535D03*
X1683980Y637535D03*
X1688980Y637535D03*
D11*
X1579880Y543560D03*
X1783080Y543560D03*
X25400Y1005840D03*
X228600Y1005840D03*
D12*
X203200Y828040D03*
X63500Y1018540D03*
D13*
X14050Y932240D03*
X14050Y876240D03*
D14*
X50800Y919240D03*
X50800Y909240D03*
X50800Y899240D03*
X50800Y889240D03*
D15*
X135500Y881380D03*
X118500Y881380D03*
D13*
X239950Y876240D03*
X239950Y932240D03*
D14*
X203200Y889240D03*
X203200Y899240D03*
X203200Y909240D03*
X203200Y919240D03*
D16*
X39370Y949080D03*
X39370Y966080D03*
D17*
X23810Y962860D02*
X16830Y962860D01*
X16830Y969840D01*
X23810Y969840D01*
X23810Y962860D01*
X23810Y967660D02*
X16830Y967660D01*
X16830Y945320D02*
X23810Y945320D01*
X16830Y945320D02*
X16830Y952300D01*
X23810Y952300D01*
X23810Y945320D01*
X23810Y950120D02*
X16830Y950120D01*
D16*
X87630Y950350D03*
X87630Y967350D03*
X177800Y946540D03*
X177800Y963540D03*
D18*
X58293Y957580D03*
X68707Y957580D03*
D15*
X135500Y929640D03*
X118500Y929640D03*
D16*
X88900Y912740D03*
X88900Y895740D03*
D15*
X118500Y859790D03*
X135500Y859790D03*
D19*
X152400Y1018540D03*
X127000Y1018540D03*
X101600Y1018540D03*
X63500Y789940D03*
X88900Y789940D03*
X114300Y789940D03*
X139700Y789940D03*
X165100Y789940D03*
X190500Y789940D03*
D20*
X134500Y901740D03*
X134500Y906740D03*
X119500Y906740D03*
X119500Y901740D03*
D21*
X134500Y911865D03*
X129500Y911865D03*
X124500Y911865D03*
X119500Y911865D03*
X119500Y896615D03*
X124500Y896615D03*
X129500Y896615D03*
X134500Y896615D03*
D11*
X25400Y802640D03*
X228600Y802640D03*
X284480Y1005840D03*
X487680Y1005840D03*
D12*
X462280Y828040D03*
X322580Y1018540D03*
D13*
X273130Y932240D03*
X273130Y876240D03*
D14*
X309880Y919240D03*
X309880Y909240D03*
X309880Y899240D03*
X309880Y889240D03*
D15*
X394580Y881380D03*
X377580Y881380D03*
D13*
X499030Y876240D03*
X499030Y932240D03*
D14*
X462280Y889240D03*
X462280Y899240D03*
X462280Y909240D03*
X462280Y919240D03*
D16*
X298450Y949080D03*
X298450Y966080D03*
D17*
X282890Y962860D02*
X275910Y962860D01*
X275910Y969840D01*
X282890Y969840D01*
X282890Y962860D01*
X282890Y967660D02*
X275910Y967660D01*
X275910Y945320D02*
X282890Y945320D01*
X275910Y945320D02*
X275910Y952300D01*
X282890Y952300D01*
X282890Y945320D01*
X282890Y950120D02*
X275910Y950120D01*
D16*
X346710Y950350D03*
X346710Y967350D03*
X436880Y946540D03*
X436880Y963540D03*
D18*
X317373Y957580D03*
X327787Y957580D03*
D15*
X394580Y929640D03*
X377580Y929640D03*
D16*
X347980Y912740D03*
X347980Y895740D03*
D15*
X377580Y859790D03*
X394580Y859790D03*
D19*
X411480Y1018540D03*
X386080Y1018540D03*
X360680Y1018540D03*
X322580Y789940D03*
X347980Y789940D03*
X373380Y789940D03*
X398780Y789940D03*
X424180Y789940D03*
X449580Y789940D03*
D20*
X393580Y901740D03*
X393580Y906740D03*
X378580Y906740D03*
X378580Y901740D03*
D21*
X393580Y911865D03*
X388580Y911865D03*
X383580Y911865D03*
X378580Y911865D03*
X378580Y896615D03*
X383580Y896615D03*
X388580Y896615D03*
X393580Y896615D03*
D11*
X284480Y802640D03*
X487680Y802640D03*
X543560Y1005840D03*
X746760Y1005840D03*
D12*
X721360Y828040D03*
X581660Y1018540D03*
D13*
X532210Y932240D03*
X532210Y876240D03*
D14*
X568960Y919240D03*
X568960Y909240D03*
X568960Y899240D03*
X568960Y889240D03*
D15*
X653660Y881380D03*
X636660Y881380D03*
D13*
X758110Y876240D03*
X758110Y932240D03*
D14*
X721360Y889240D03*
X721360Y899240D03*
X721360Y909240D03*
X721360Y919240D03*
D16*
X557530Y949080D03*
X557530Y966080D03*
D17*
X541970Y962860D02*
X534990Y962860D01*
X534990Y969840D01*
X541970Y969840D01*
X541970Y962860D01*
X541970Y967660D02*
X534990Y967660D01*
X534990Y945320D02*
X541970Y945320D01*
X534990Y945320D02*
X534990Y952300D01*
X541970Y952300D01*
X541970Y945320D01*
X541970Y950120D02*
X534990Y950120D01*
D16*
X605790Y950350D03*
X605790Y967350D03*
X695960Y946540D03*
X695960Y963540D03*
D18*
X576453Y957580D03*
X586867Y957580D03*
D15*
X653660Y929640D03*
X636660Y929640D03*
D16*
X607060Y912740D03*
X607060Y895740D03*
D15*
X636660Y859790D03*
X653660Y859790D03*
D19*
X670560Y1018540D03*
X645160Y1018540D03*
X619760Y1018540D03*
X581660Y789940D03*
X607060Y789940D03*
X632460Y789940D03*
X657860Y789940D03*
X683260Y789940D03*
X708660Y789940D03*
D20*
X652660Y901740D03*
X652660Y906740D03*
X637660Y906740D03*
X637660Y901740D03*
D21*
X652660Y911865D03*
X647660Y911865D03*
X642660Y911865D03*
X637660Y911865D03*
X637660Y896615D03*
X642660Y896615D03*
X647660Y896615D03*
X652660Y896615D03*
D11*
X543560Y802640D03*
X746760Y802640D03*
X802640Y1005840D03*
X1005840Y1005840D03*
D12*
X980440Y828040D03*
X840740Y1018540D03*
D13*
X791290Y932240D03*
X791290Y876240D03*
D14*
X828040Y919240D03*
X828040Y909240D03*
X828040Y899240D03*
X828040Y889240D03*
D15*
X912740Y881380D03*
X895740Y881380D03*
D13*
X1017190Y876240D03*
X1017190Y932240D03*
D14*
X980440Y889240D03*
X980440Y899240D03*
X980440Y909240D03*
X980440Y919240D03*
D16*
X816610Y949080D03*
X816610Y966080D03*
D17*
X801050Y962860D02*
X794070Y962860D01*
X794070Y969840D01*
X801050Y969840D01*
X801050Y962860D01*
X801050Y967660D02*
X794070Y967660D01*
X794070Y945320D02*
X801050Y945320D01*
X794070Y945320D02*
X794070Y952300D01*
X801050Y952300D01*
X801050Y945320D01*
X801050Y950120D02*
X794070Y950120D01*
D16*
X864870Y950350D03*
X864870Y967350D03*
X955040Y946540D03*
X955040Y963540D03*
D18*
X835533Y957580D03*
X845947Y957580D03*
D15*
X912740Y929640D03*
X895740Y929640D03*
D16*
X866140Y912740D03*
X866140Y895740D03*
D15*
X895740Y859790D03*
X912740Y859790D03*
D19*
X929640Y1018540D03*
X904240Y1018540D03*
X878840Y1018540D03*
X840740Y789940D03*
X866140Y789940D03*
X891540Y789940D03*
X916940Y789940D03*
X942340Y789940D03*
X967740Y789940D03*
D20*
X911740Y901740D03*
X911740Y906740D03*
X896740Y906740D03*
X896740Y901740D03*
D21*
X911740Y911865D03*
X906740Y911865D03*
X901740Y911865D03*
X896740Y911865D03*
X896740Y896615D03*
X901740Y896615D03*
X906740Y896615D03*
X911740Y896615D03*
D11*
X802640Y802640D03*
X1005840Y802640D03*
X1061720Y1005840D03*
X1264920Y1005840D03*
D12*
X1239520Y828040D03*
X1099820Y1018540D03*
D13*
X1050370Y932240D03*
X1050370Y876240D03*
D14*
X1087120Y919240D03*
X1087120Y909240D03*
X1087120Y899240D03*
X1087120Y889240D03*
D15*
X1171820Y881380D03*
X1154820Y881380D03*
D13*
X1276270Y876240D03*
X1276270Y932240D03*
D14*
X1239520Y889240D03*
X1239520Y899240D03*
X1239520Y909240D03*
X1239520Y919240D03*
D16*
X1075690Y949080D03*
X1075690Y966080D03*
D17*
X1060130Y962860D02*
X1053150Y962860D01*
X1053150Y969840D01*
X1060130Y969840D01*
X1060130Y962860D01*
X1060130Y967660D02*
X1053150Y967660D01*
X1053150Y945320D02*
X1060130Y945320D01*
X1053150Y945320D02*
X1053150Y952300D01*
X1060130Y952300D01*
X1060130Y945320D01*
X1060130Y950120D02*
X1053150Y950120D01*
D16*
X1123950Y950350D03*
X1123950Y967350D03*
X1214120Y946540D03*
X1214120Y963540D03*
D18*
X1094613Y957580D03*
X1105027Y957580D03*
D15*
X1171820Y929640D03*
X1154820Y929640D03*
D16*
X1125220Y912740D03*
X1125220Y895740D03*
D15*
X1154820Y859790D03*
X1171820Y859790D03*
D19*
X1188720Y1018540D03*
X1163320Y1018540D03*
X1137920Y1018540D03*
X1099820Y789940D03*
X1125220Y789940D03*
X1150620Y789940D03*
X1176020Y789940D03*
X1201420Y789940D03*
X1226820Y789940D03*
D20*
X1170820Y901740D03*
X1170820Y906740D03*
X1155820Y906740D03*
X1155820Y901740D03*
D21*
X1170820Y911865D03*
X1165820Y911865D03*
X1160820Y911865D03*
X1155820Y911865D03*
X1155820Y896615D03*
X1160820Y896615D03*
X1165820Y896615D03*
X1170820Y896615D03*
D11*
X1061720Y802640D03*
X1264920Y802640D03*
X1320800Y1005840D03*
X1524000Y1005840D03*
D12*
X1498600Y828040D03*
X1358900Y1018540D03*
D13*
X1309450Y932240D03*
X1309450Y876240D03*
D14*
X1346200Y919240D03*
X1346200Y909240D03*
X1346200Y899240D03*
X1346200Y889240D03*
D15*
X1430900Y881380D03*
X1413900Y881380D03*
D13*
X1535350Y876240D03*
X1535350Y932240D03*
D14*
X1498600Y889240D03*
X1498600Y899240D03*
X1498600Y909240D03*
X1498600Y919240D03*
D16*
X1334770Y949080D03*
X1334770Y966080D03*
D17*
X1319210Y962860D02*
X1312230Y962860D01*
X1312230Y969840D01*
X1319210Y969840D01*
X1319210Y962860D01*
X1319210Y967660D02*
X1312230Y967660D01*
X1312230Y945320D02*
X1319210Y945320D01*
X1312230Y945320D02*
X1312230Y952300D01*
X1319210Y952300D01*
X1319210Y945320D01*
X1319210Y950120D02*
X1312230Y950120D01*
D16*
X1383030Y950350D03*
X1383030Y967350D03*
X1473200Y946540D03*
X1473200Y963540D03*
D18*
X1353693Y957580D03*
X1364107Y957580D03*
D15*
X1430900Y929640D03*
X1413900Y929640D03*
D16*
X1384300Y912740D03*
X1384300Y895740D03*
D15*
X1413900Y859790D03*
X1430900Y859790D03*
D19*
X1447800Y1018540D03*
X1422400Y1018540D03*
X1397000Y1018540D03*
X1358900Y789940D03*
X1384300Y789940D03*
X1409700Y789940D03*
X1435100Y789940D03*
X1460500Y789940D03*
X1485900Y789940D03*
D20*
X1429900Y901740D03*
X1429900Y906740D03*
X1414900Y906740D03*
X1414900Y901740D03*
D21*
X1429900Y911865D03*
X1424900Y911865D03*
X1419900Y911865D03*
X1414900Y911865D03*
X1414900Y896615D03*
X1419900Y896615D03*
X1424900Y896615D03*
X1429900Y896615D03*
D11*
X1320800Y802640D03*
X1524000Y802640D03*
X1579880Y1005840D03*
X1783080Y1005840D03*
D12*
X1757680Y828040D03*
X1617980Y1018540D03*
D13*
X1568530Y932240D03*
X1568530Y876240D03*
D14*
X1605280Y919240D03*
X1605280Y909240D03*
X1605280Y899240D03*
X1605280Y889240D03*
D15*
X1689980Y881380D03*
X1672980Y881380D03*
D13*
X1794430Y876240D03*
X1794430Y932240D03*
D14*
X1757680Y889240D03*
X1757680Y899240D03*
X1757680Y909240D03*
X1757680Y919240D03*
D16*
X1593850Y949080D03*
X1593850Y966080D03*
D17*
X1578290Y962860D02*
X1571310Y962860D01*
X1571310Y969840D01*
X1578290Y969840D01*
X1578290Y962860D01*
X1578290Y967660D02*
X1571310Y967660D01*
X1571310Y945320D02*
X1578290Y945320D01*
X1571310Y945320D02*
X1571310Y952300D01*
X1578290Y952300D01*
X1578290Y945320D01*
X1578290Y950120D02*
X1571310Y950120D01*
D16*
X1642110Y950350D03*
X1642110Y967350D03*
X1732280Y946540D03*
X1732280Y963540D03*
D18*
X1612773Y957580D03*
X1623187Y957580D03*
D15*
X1689980Y929640D03*
X1672980Y929640D03*
D16*
X1643380Y912740D03*
X1643380Y895740D03*
D15*
X1672980Y859790D03*
X1689980Y859790D03*
D19*
X1706880Y1018540D03*
X1681480Y1018540D03*
X1656080Y1018540D03*
X1617980Y789940D03*
X1643380Y789940D03*
X1668780Y789940D03*
X1694180Y789940D03*
X1719580Y789940D03*
X1744980Y789940D03*
D20*
X1688980Y901740D03*
X1688980Y906740D03*
X1673980Y906740D03*
X1673980Y901740D03*
D21*
X1688980Y911865D03*
X1683980Y911865D03*
X1678980Y911865D03*
X1673980Y911865D03*
X1673980Y896615D03*
X1678980Y896615D03*
X1683980Y896615D03*
X1688980Y896615D03*
D11*
X1579880Y802640D03*
X1783080Y802640D03*
X25400Y1264920D03*
X228600Y1264920D03*
D12*
X203200Y1087120D03*
X63500Y1277620D03*
D13*
X14050Y1191320D03*
X14050Y1135320D03*
D14*
X50800Y1178320D03*
X50800Y1168320D03*
X50800Y1158320D03*
X50800Y1148320D03*
D15*
X135500Y1140460D03*
X118500Y1140460D03*
D13*
X239950Y1135320D03*
X239950Y1191320D03*
D14*
X203200Y1148320D03*
X203200Y1158320D03*
X203200Y1168320D03*
X203200Y1178320D03*
D16*
X39370Y1208160D03*
X39370Y1225160D03*
D17*
X23810Y1221940D02*
X16830Y1221940D01*
X16830Y1228920D01*
X23810Y1228920D01*
X23810Y1221940D01*
X23810Y1226740D02*
X16830Y1226740D01*
X16830Y1204400D02*
X23810Y1204400D01*
X16830Y1204400D02*
X16830Y1211380D01*
X23810Y1211380D01*
X23810Y1204400D01*
X23810Y1209200D02*
X16830Y1209200D01*
D16*
X87630Y1209430D03*
X87630Y1226430D03*
X177800Y1205620D03*
X177800Y1222620D03*
D18*
X58293Y1216660D03*
X68707Y1216660D03*
D15*
X135500Y1188720D03*
X118500Y1188720D03*
D16*
X88900Y1171820D03*
X88900Y1154820D03*
D15*
X118500Y1118870D03*
X135500Y1118870D03*
D19*
X152400Y1277620D03*
X127000Y1277620D03*
X101600Y1277620D03*
X63500Y1049020D03*
X88900Y1049020D03*
X114300Y1049020D03*
X139700Y1049020D03*
X165100Y1049020D03*
X190500Y1049020D03*
D20*
X134500Y1160820D03*
X134500Y1165820D03*
X119500Y1165820D03*
X119500Y1160820D03*
D21*
X134500Y1170945D03*
X129500Y1170945D03*
X124500Y1170945D03*
X119500Y1170945D03*
X119500Y1155695D03*
X124500Y1155695D03*
X129500Y1155695D03*
X134500Y1155695D03*
D11*
X25400Y1061720D03*
X228600Y1061720D03*
X284480Y1264920D03*
X487680Y1264920D03*
D12*
X462280Y1087120D03*
X322580Y1277620D03*
D13*
X273130Y1191320D03*
X273130Y1135320D03*
D14*
X309880Y1178320D03*
X309880Y1168320D03*
X309880Y1158320D03*
X309880Y1148320D03*
D15*
X394580Y1140460D03*
X377580Y1140460D03*
D13*
X499030Y1135320D03*
X499030Y1191320D03*
D14*
X462280Y1148320D03*
X462280Y1158320D03*
X462280Y1168320D03*
X462280Y1178320D03*
D16*
X298450Y1208160D03*
X298450Y1225160D03*
D17*
X282890Y1221940D02*
X275910Y1221940D01*
X275910Y1228920D01*
X282890Y1228920D01*
X282890Y1221940D01*
X282890Y1226740D02*
X275910Y1226740D01*
X275910Y1204400D02*
X282890Y1204400D01*
X275910Y1204400D02*
X275910Y1211380D01*
X282890Y1211380D01*
X282890Y1204400D01*
X282890Y1209200D02*
X275910Y1209200D01*
D16*
X346710Y1209430D03*
X346710Y1226430D03*
X436880Y1205620D03*
X436880Y1222620D03*
D18*
X317373Y1216660D03*
X327787Y1216660D03*
D15*
X394580Y1188720D03*
X377580Y1188720D03*
D16*
X347980Y1171820D03*
X347980Y1154820D03*
D15*
X377580Y1118870D03*
X394580Y1118870D03*
D19*
X411480Y1277620D03*
X386080Y1277620D03*
X360680Y1277620D03*
X322580Y1049020D03*
X347980Y1049020D03*
X373380Y1049020D03*
X398780Y1049020D03*
X424180Y1049020D03*
X449580Y1049020D03*
D20*
X393580Y1160820D03*
X393580Y1165820D03*
X378580Y1165820D03*
X378580Y1160820D03*
D21*
X393580Y1170945D03*
X388580Y1170945D03*
X383580Y1170945D03*
X378580Y1170945D03*
X378580Y1155695D03*
X383580Y1155695D03*
X388580Y1155695D03*
X393580Y1155695D03*
D11*
X284480Y1061720D03*
X487680Y1061720D03*
X543560Y1264920D03*
X746760Y1264920D03*
D12*
X721360Y1087120D03*
X581660Y1277620D03*
D13*
X532210Y1191320D03*
X532210Y1135320D03*
D14*
X568960Y1178320D03*
X568960Y1168320D03*
X568960Y1158320D03*
X568960Y1148320D03*
D15*
X653660Y1140460D03*
X636660Y1140460D03*
D13*
X758110Y1135320D03*
X758110Y1191320D03*
D14*
X721360Y1148320D03*
X721360Y1158320D03*
X721360Y1168320D03*
X721360Y1178320D03*
D16*
X557530Y1208160D03*
X557530Y1225160D03*
D17*
X541970Y1221940D02*
X534990Y1221940D01*
X534990Y1228920D01*
X541970Y1228920D01*
X541970Y1221940D01*
X541970Y1226740D02*
X534990Y1226740D01*
X534990Y1204400D02*
X541970Y1204400D01*
X534990Y1204400D02*
X534990Y1211380D01*
X541970Y1211380D01*
X541970Y1204400D01*
X541970Y1209200D02*
X534990Y1209200D01*
D16*
X605790Y1209430D03*
X605790Y1226430D03*
X695960Y1205620D03*
X695960Y1222620D03*
D18*
X576453Y1216660D03*
X586867Y1216660D03*
D15*
X653660Y1188720D03*
X636660Y1188720D03*
D16*
X607060Y1171820D03*
X607060Y1154820D03*
D15*
X636660Y1118870D03*
X653660Y1118870D03*
D19*
X670560Y1277620D03*
X645160Y1277620D03*
X619760Y1277620D03*
X581660Y1049020D03*
X607060Y1049020D03*
X632460Y1049020D03*
X657860Y1049020D03*
X683260Y1049020D03*
X708660Y1049020D03*
D20*
X652660Y1160820D03*
X652660Y1165820D03*
X637660Y1165820D03*
X637660Y1160820D03*
D21*
X652660Y1170945D03*
X647660Y1170945D03*
X642660Y1170945D03*
X637660Y1170945D03*
X637660Y1155695D03*
X642660Y1155695D03*
X647660Y1155695D03*
X652660Y1155695D03*
D11*
X543560Y1061720D03*
X746760Y1061720D03*
X802640Y1264920D03*
X1005840Y1264920D03*
D12*
X980440Y1087120D03*
X840740Y1277620D03*
D13*
X791290Y1191320D03*
X791290Y1135320D03*
D14*
X828040Y1178320D03*
X828040Y1168320D03*
X828040Y1158320D03*
X828040Y1148320D03*
D15*
X912740Y1140460D03*
X895740Y1140460D03*
D13*
X1017190Y1135320D03*
X1017190Y1191320D03*
D14*
X980440Y1148320D03*
X980440Y1158320D03*
X980440Y1168320D03*
X980440Y1178320D03*
D16*
X816610Y1208160D03*
X816610Y1225160D03*
D17*
X801050Y1221940D02*
X794070Y1221940D01*
X794070Y1228920D01*
X801050Y1228920D01*
X801050Y1221940D01*
X801050Y1226740D02*
X794070Y1226740D01*
X794070Y1204400D02*
X801050Y1204400D01*
X794070Y1204400D02*
X794070Y1211380D01*
X801050Y1211380D01*
X801050Y1204400D01*
X801050Y1209200D02*
X794070Y1209200D01*
D16*
X864870Y1209430D03*
X864870Y1226430D03*
X955040Y1205620D03*
X955040Y1222620D03*
D18*
X835533Y1216660D03*
X845947Y1216660D03*
D15*
X912740Y1188720D03*
X895740Y1188720D03*
D16*
X866140Y1171820D03*
X866140Y1154820D03*
D15*
X895740Y1118870D03*
X912740Y1118870D03*
D19*
X929640Y1277620D03*
X904240Y1277620D03*
X878840Y1277620D03*
X840740Y1049020D03*
X866140Y1049020D03*
X891540Y1049020D03*
X916940Y1049020D03*
X942340Y1049020D03*
X967740Y1049020D03*
D20*
X911740Y1160820D03*
X911740Y1165820D03*
X896740Y1165820D03*
X896740Y1160820D03*
D21*
X911740Y1170945D03*
X906740Y1170945D03*
X901740Y1170945D03*
X896740Y1170945D03*
X896740Y1155695D03*
X901740Y1155695D03*
X906740Y1155695D03*
X911740Y1155695D03*
D11*
X802640Y1061720D03*
X1005840Y1061720D03*
X1061720Y1264920D03*
X1264920Y1264920D03*
D12*
X1239520Y1087120D03*
X1099820Y1277620D03*
D13*
X1050370Y1191320D03*
X1050370Y1135320D03*
D14*
X1087120Y1178320D03*
X1087120Y1168320D03*
X1087120Y1158320D03*
X1087120Y1148320D03*
D15*
X1171820Y1140460D03*
X1154820Y1140460D03*
D13*
X1276270Y1135320D03*
X1276270Y1191320D03*
D14*
X1239520Y1148320D03*
X1239520Y1158320D03*
X1239520Y1168320D03*
X1239520Y1178320D03*
D16*
X1075690Y1208160D03*
X1075690Y1225160D03*
D17*
X1060130Y1221940D02*
X1053150Y1221940D01*
X1053150Y1228920D01*
X1060130Y1228920D01*
X1060130Y1221940D01*
X1060130Y1226740D02*
X1053150Y1226740D01*
X1053150Y1204400D02*
X1060130Y1204400D01*
X1053150Y1204400D02*
X1053150Y1211380D01*
X1060130Y1211380D01*
X1060130Y1204400D01*
X1060130Y1209200D02*
X1053150Y1209200D01*
D16*
X1123950Y1209430D03*
X1123950Y1226430D03*
X1214120Y1205620D03*
X1214120Y1222620D03*
D18*
X1094613Y1216660D03*
X1105027Y1216660D03*
D15*
X1171820Y1188720D03*
X1154820Y1188720D03*
D16*
X1125220Y1171820D03*
X1125220Y1154820D03*
D15*
X1154820Y1118870D03*
X1171820Y1118870D03*
D19*
X1188720Y1277620D03*
X1163320Y1277620D03*
X1137920Y1277620D03*
X1099820Y1049020D03*
X1125220Y1049020D03*
X1150620Y1049020D03*
X1176020Y1049020D03*
X1201420Y1049020D03*
X1226820Y1049020D03*
D20*
X1170820Y1160820D03*
X1170820Y1165820D03*
X1155820Y1165820D03*
X1155820Y1160820D03*
D21*
X1170820Y1170945D03*
X1165820Y1170945D03*
X1160820Y1170945D03*
X1155820Y1170945D03*
X1155820Y1155695D03*
X1160820Y1155695D03*
X1165820Y1155695D03*
X1170820Y1155695D03*
D11*
X1061720Y1061720D03*
X1264920Y1061720D03*
X1320800Y1264920D03*
X1524000Y1264920D03*
D12*
X1498600Y1087120D03*
X1358900Y1277620D03*
D13*
X1309450Y1191320D03*
X1309450Y1135320D03*
D14*
X1346200Y1178320D03*
X1346200Y1168320D03*
X1346200Y1158320D03*
X1346200Y1148320D03*
D15*
X1430900Y1140460D03*
X1413900Y1140460D03*
D13*
X1535350Y1135320D03*
X1535350Y1191320D03*
D14*
X1498600Y1148320D03*
X1498600Y1158320D03*
X1498600Y1168320D03*
X1498600Y1178320D03*
D16*
X1334770Y1208160D03*
X1334770Y1225160D03*
D17*
X1319210Y1221940D02*
X1312230Y1221940D01*
X1312230Y1228920D01*
X1319210Y1228920D01*
X1319210Y1221940D01*
X1319210Y1226740D02*
X1312230Y1226740D01*
X1312230Y1204400D02*
X1319210Y1204400D01*
X1312230Y1204400D02*
X1312230Y1211380D01*
X1319210Y1211380D01*
X1319210Y1204400D01*
X1319210Y1209200D02*
X1312230Y1209200D01*
D16*
X1383030Y1209430D03*
X1383030Y1226430D03*
X1473200Y1205620D03*
X1473200Y1222620D03*
D18*
X1353693Y1216660D03*
X1364107Y1216660D03*
D15*
X1430900Y1188720D03*
X1413900Y1188720D03*
D16*
X1384300Y1171820D03*
X1384300Y1154820D03*
D15*
X1413900Y1118870D03*
X1430900Y1118870D03*
D19*
X1447800Y1277620D03*
X1422400Y1277620D03*
X1397000Y1277620D03*
X1358900Y1049020D03*
X1384300Y1049020D03*
X1409700Y1049020D03*
X1435100Y1049020D03*
X1460500Y1049020D03*
X1485900Y1049020D03*
D20*
X1429900Y1160820D03*
X1429900Y1165820D03*
X1414900Y1165820D03*
X1414900Y1160820D03*
D21*
X1429900Y1170945D03*
X1424900Y1170945D03*
X1419900Y1170945D03*
X1414900Y1170945D03*
X1414900Y1155695D03*
X1419900Y1155695D03*
X1424900Y1155695D03*
X1429900Y1155695D03*
D11*
X1320800Y1061720D03*
X1524000Y1061720D03*
X1579880Y1264920D03*
X1783080Y1264920D03*
D12*
X1757680Y1087120D03*
X1617980Y1277620D03*
D13*
X1568530Y1191320D03*
X1568530Y1135320D03*
D14*
X1605280Y1178320D03*
X1605280Y1168320D03*
X1605280Y1158320D03*
X1605280Y1148320D03*
D15*
X1689980Y1140460D03*
X1672980Y1140460D03*
D13*
X1794430Y1135320D03*
X1794430Y1191320D03*
D14*
X1757680Y1148320D03*
X1757680Y1158320D03*
X1757680Y1168320D03*
X1757680Y1178320D03*
D16*
X1593850Y1208160D03*
X1593850Y1225160D03*
D17*
X1578290Y1221940D02*
X1571310Y1221940D01*
X1571310Y1228920D01*
X1578290Y1228920D01*
X1578290Y1221940D01*
X1578290Y1226740D02*
X1571310Y1226740D01*
X1571310Y1204400D02*
X1578290Y1204400D01*
X1571310Y1204400D02*
X1571310Y1211380D01*
X1578290Y1211380D01*
X1578290Y1204400D01*
X1578290Y1209200D02*
X1571310Y1209200D01*
D16*
X1642110Y1209430D03*
X1642110Y1226430D03*
X1732280Y1205620D03*
X1732280Y1222620D03*
D18*
X1612773Y1216660D03*
X1623187Y1216660D03*
D15*
X1689980Y1188720D03*
X1672980Y1188720D03*
D16*
X1643380Y1171820D03*
X1643380Y1154820D03*
D15*
X1672980Y1118870D03*
X1689980Y1118870D03*
D19*
X1706880Y1277620D03*
X1681480Y1277620D03*
X1656080Y1277620D03*
X1617980Y1049020D03*
X1643380Y1049020D03*
X1668780Y1049020D03*
X1694180Y1049020D03*
X1719580Y1049020D03*
X1744980Y1049020D03*
D20*
X1688980Y1160820D03*
X1688980Y1165820D03*
X1673980Y1165820D03*
X1673980Y1160820D03*
D21*
X1688980Y1170945D03*
X1683980Y1170945D03*
X1678980Y1170945D03*
X1673980Y1170945D03*
X1673980Y1155695D03*
X1678980Y1155695D03*
X1683980Y1155695D03*
X1688980Y1155695D03*
D11*
X1579880Y1061720D03*
X1783080Y1061720D03*
D22*
X68580Y1311275D03*
X1739265Y1311275D03*
D23*
X59525Y-20955D02*
X59528Y-20733D01*
X59536Y-20511D01*
X59550Y-20289D01*
X59569Y-20067D01*
X59593Y-19847D01*
X59623Y-19626D01*
X59658Y-19407D01*
X59699Y-19188D01*
X59745Y-18971D01*
X59796Y-18755D01*
X59853Y-18540D01*
X59915Y-18326D01*
X59982Y-18115D01*
X60054Y-17904D01*
X60132Y-17696D01*
X60214Y-17490D01*
X60302Y-17286D01*
X60394Y-17083D01*
X60492Y-16884D01*
X60594Y-16687D01*
X60701Y-16492D01*
X60813Y-16300D01*
X60930Y-16111D01*
X61051Y-15924D01*
X61177Y-15741D01*
X61307Y-15561D01*
X61442Y-15384D01*
X61580Y-15211D01*
X61723Y-15041D01*
X61871Y-14874D01*
X62022Y-14711D01*
X62177Y-14552D01*
X62336Y-14397D01*
X62499Y-14246D01*
X62666Y-14098D01*
X62836Y-13955D01*
X63009Y-13817D01*
X63186Y-13682D01*
X63366Y-13552D01*
X63549Y-13426D01*
X63736Y-13305D01*
X63925Y-13188D01*
X64117Y-13076D01*
X64312Y-12969D01*
X64509Y-12867D01*
X64708Y-12769D01*
X64911Y-12677D01*
X65115Y-12589D01*
X65321Y-12507D01*
X65529Y-12429D01*
X65740Y-12357D01*
X65951Y-12290D01*
X66165Y-12228D01*
X66380Y-12171D01*
X66596Y-12120D01*
X66813Y-12074D01*
X67032Y-12033D01*
X67251Y-11998D01*
X67472Y-11968D01*
X67692Y-11944D01*
X67914Y-11925D01*
X68136Y-11911D01*
X68358Y-11903D01*
X68580Y-11900D01*
X68802Y-11903D01*
X69024Y-11911D01*
X69246Y-11925D01*
X69468Y-11944D01*
X69688Y-11968D01*
X69909Y-11998D01*
X70128Y-12033D01*
X70347Y-12074D01*
X70564Y-12120D01*
X70780Y-12171D01*
X70995Y-12228D01*
X71209Y-12290D01*
X71420Y-12357D01*
X71631Y-12429D01*
X71839Y-12507D01*
X72045Y-12589D01*
X72249Y-12677D01*
X72452Y-12769D01*
X72651Y-12867D01*
X72848Y-12969D01*
X73043Y-13076D01*
X73235Y-13188D01*
X73424Y-13305D01*
X73611Y-13426D01*
X73794Y-13552D01*
X73974Y-13682D01*
X74151Y-13817D01*
X74324Y-13955D01*
X74494Y-14098D01*
X74661Y-14246D01*
X74824Y-14397D01*
X74983Y-14552D01*
X75138Y-14711D01*
X75289Y-14874D01*
X75437Y-15041D01*
X75580Y-15211D01*
X75718Y-15384D01*
X75853Y-15561D01*
X75983Y-15741D01*
X76109Y-15924D01*
X76230Y-16111D01*
X76347Y-16300D01*
X76459Y-16492D01*
X76566Y-16687D01*
X76668Y-16884D01*
X76766Y-17083D01*
X76858Y-17286D01*
X76946Y-17490D01*
X77028Y-17696D01*
X77106Y-17904D01*
X77178Y-18115D01*
X77245Y-18326D01*
X77307Y-18540D01*
X77364Y-18755D01*
X77415Y-18971D01*
X77461Y-19188D01*
X77502Y-19407D01*
X77537Y-19626D01*
X77567Y-19847D01*
X77591Y-20067D01*
X77610Y-20289D01*
X77624Y-20511D01*
X77632Y-20733D01*
X77635Y-20955D01*
X77632Y-21177D01*
X77624Y-21399D01*
X77610Y-21621D01*
X77591Y-21843D01*
X77567Y-22063D01*
X77537Y-22284D01*
X77502Y-22503D01*
X77461Y-22722D01*
X77415Y-22939D01*
X77364Y-23155D01*
X77307Y-23370D01*
X77245Y-23584D01*
X77178Y-23795D01*
X77106Y-24006D01*
X77028Y-24214D01*
X76946Y-24420D01*
X76858Y-24624D01*
X76766Y-24827D01*
X76668Y-25026D01*
X76566Y-25223D01*
X76459Y-25418D01*
X76347Y-25610D01*
X76230Y-25799D01*
X76109Y-25986D01*
X75983Y-26169D01*
X75853Y-26349D01*
X75718Y-26526D01*
X75580Y-26699D01*
X75437Y-26869D01*
X75289Y-27036D01*
X75138Y-27199D01*
X74983Y-27358D01*
X74824Y-27513D01*
X74661Y-27664D01*
X74494Y-27812D01*
X74324Y-27955D01*
X74151Y-28093D01*
X73974Y-28228D01*
X73794Y-28358D01*
X73611Y-28484D01*
X73424Y-28605D01*
X73235Y-28722D01*
X73043Y-28834D01*
X72848Y-28941D01*
X72651Y-29043D01*
X72452Y-29141D01*
X72249Y-29233D01*
X72045Y-29321D01*
X71839Y-29403D01*
X71631Y-29481D01*
X71420Y-29553D01*
X71209Y-29620D01*
X70995Y-29682D01*
X70780Y-29739D01*
X70564Y-29790D01*
X70347Y-29836D01*
X70128Y-29877D01*
X69909Y-29912D01*
X69688Y-29942D01*
X69468Y-29966D01*
X69246Y-29985D01*
X69024Y-29999D01*
X68802Y-30007D01*
X68580Y-30010D01*
X68358Y-30007D01*
X68136Y-29999D01*
X67914Y-29985D01*
X67692Y-29966D01*
X67472Y-29942D01*
X67251Y-29912D01*
X67032Y-29877D01*
X66813Y-29836D01*
X66596Y-29790D01*
X66380Y-29739D01*
X66165Y-29682D01*
X65951Y-29620D01*
X65740Y-29553D01*
X65529Y-29481D01*
X65321Y-29403D01*
X65115Y-29321D01*
X64911Y-29233D01*
X64708Y-29141D01*
X64509Y-29043D01*
X64312Y-28941D01*
X64117Y-28834D01*
X63925Y-28722D01*
X63736Y-28605D01*
X63549Y-28484D01*
X63366Y-28358D01*
X63186Y-28228D01*
X63009Y-28093D01*
X62836Y-27955D01*
X62666Y-27812D01*
X62499Y-27664D01*
X62336Y-27513D01*
X62177Y-27358D01*
X62022Y-27199D01*
X61871Y-27036D01*
X61723Y-26869D01*
X61580Y-26699D01*
X61442Y-26526D01*
X61307Y-26349D01*
X61177Y-26169D01*
X61051Y-25986D01*
X60930Y-25799D01*
X60813Y-25610D01*
X60701Y-25418D01*
X60594Y-25223D01*
X60492Y-25026D01*
X60394Y-24827D01*
X60302Y-24624D01*
X60214Y-24420D01*
X60132Y-24214D01*
X60054Y-24006D01*
X59982Y-23795D01*
X59915Y-23584D01*
X59853Y-23370D01*
X59796Y-23155D01*
X59745Y-22939D01*
X59699Y-22722D01*
X59658Y-22503D01*
X59623Y-22284D01*
X59593Y-22063D01*
X59569Y-21843D01*
X59550Y-21621D01*
X59536Y-21399D01*
X59528Y-21177D01*
X59525Y-20955D01*
D24*
X68580Y-20955D03*
M02*
