G04 EAGLE Gerber RS-274X export*
G75*
%MOMM*%
%FSLAX34Y34*%
%LPD*%
%INSolderpaste Top*%
%IPPOS*%
%AMOC8*
5,1,8,0,0,1.08239X$1,22.5*%
G01*
%ADD10R,1.270000X1.206500*%
%ADD11R,2.000000X1.200000*%
%ADD12R,1.350000X0.600000*%
%ADD13R,1.100000X1.000000*%
%ADD14R,1.000000X1.100000*%
%ADD15C,0.300000*%
%ADD16R,0.275000X0.250000*%
%ADD17R,0.250000X0.275000*%


D10*
X210185Y63818D03*
X469265Y63818D03*
X728345Y63818D03*
X987425Y63818D03*
X1246505Y63818D03*
X1505585Y63818D03*
X1764665Y63818D03*
X210185Y322898D03*
X469265Y322898D03*
X728345Y322898D03*
X987425Y322898D03*
X1246505Y322898D03*
X1505585Y322898D03*
X1764665Y322898D03*
X210185Y581978D03*
X469265Y581978D03*
X728345Y581978D03*
X987425Y581978D03*
X1246505Y581978D03*
X1505585Y581978D03*
X1764665Y581978D03*
X210185Y841058D03*
X469265Y841058D03*
X728345Y841058D03*
X987425Y841058D03*
X1246505Y841058D03*
X1505585Y841058D03*
X1764665Y841058D03*
X210185Y1100138D03*
X469265Y1100138D03*
X728345Y1100138D03*
X987425Y1100138D03*
X1246505Y1100138D03*
X1505585Y1100138D03*
X1764665Y1100138D03*
D11*
X14050Y155000D03*
X14050Y99000D03*
D12*
X50800Y142000D03*
X50800Y132000D03*
X50800Y122000D03*
X50800Y112000D03*
D13*
X135500Y104140D03*
X118500Y104140D03*
D11*
X239950Y99000D03*
X239950Y155000D03*
D12*
X203200Y112000D03*
X203200Y122000D03*
X203200Y132000D03*
X203200Y142000D03*
D14*
X39370Y171840D03*
X39370Y188840D03*
D15*
X23820Y185610D02*
X16820Y185610D01*
X16820Y192610D01*
X23820Y192610D01*
X23820Y185610D01*
X23820Y188460D02*
X16820Y188460D01*
X16820Y191310D02*
X23820Y191310D01*
X23820Y168070D02*
X16820Y168070D01*
X16820Y175070D01*
X23820Y175070D01*
X23820Y168070D01*
X23820Y170920D02*
X16820Y170920D01*
X16820Y173770D02*
X23820Y173770D01*
D14*
X87630Y173110D03*
X87630Y190110D03*
X177800Y169300D03*
X177800Y186300D03*
D13*
X135500Y152400D03*
X118500Y152400D03*
D14*
X88900Y135500D03*
X88900Y118500D03*
D13*
X118500Y82550D03*
X135500Y82550D03*
D16*
X134500Y124500D03*
X134500Y129500D03*
X119500Y129500D03*
X119500Y124500D03*
D17*
X134500Y134625D03*
X129500Y134625D03*
X124500Y134625D03*
X119500Y134625D03*
X119500Y119375D03*
X124500Y119375D03*
X129500Y119375D03*
X134500Y119375D03*
D11*
X273130Y155000D03*
X273130Y99000D03*
D12*
X309880Y142000D03*
X309880Y132000D03*
X309880Y122000D03*
X309880Y112000D03*
D13*
X394580Y104140D03*
X377580Y104140D03*
D11*
X499030Y99000D03*
X499030Y155000D03*
D12*
X462280Y112000D03*
X462280Y122000D03*
X462280Y132000D03*
X462280Y142000D03*
D14*
X298450Y171840D03*
X298450Y188840D03*
D15*
X282900Y185610D02*
X275900Y185610D01*
X275900Y192610D01*
X282900Y192610D01*
X282900Y185610D01*
X282900Y188460D02*
X275900Y188460D01*
X275900Y191310D02*
X282900Y191310D01*
X282900Y168070D02*
X275900Y168070D01*
X275900Y175070D01*
X282900Y175070D01*
X282900Y168070D01*
X282900Y170920D02*
X275900Y170920D01*
X275900Y173770D02*
X282900Y173770D01*
D14*
X346710Y173110D03*
X346710Y190110D03*
X436880Y169300D03*
X436880Y186300D03*
D13*
X394580Y152400D03*
X377580Y152400D03*
D14*
X347980Y135500D03*
X347980Y118500D03*
D13*
X377580Y82550D03*
X394580Y82550D03*
D16*
X393580Y124500D03*
X393580Y129500D03*
X378580Y129500D03*
X378580Y124500D03*
D17*
X393580Y134625D03*
X388580Y134625D03*
X383580Y134625D03*
X378580Y134625D03*
X378580Y119375D03*
X383580Y119375D03*
X388580Y119375D03*
X393580Y119375D03*
D11*
X532210Y155000D03*
X532210Y99000D03*
D12*
X568960Y142000D03*
X568960Y132000D03*
X568960Y122000D03*
X568960Y112000D03*
D13*
X653660Y104140D03*
X636660Y104140D03*
D11*
X758110Y99000D03*
X758110Y155000D03*
D12*
X721360Y112000D03*
X721360Y122000D03*
X721360Y132000D03*
X721360Y142000D03*
D14*
X557530Y171840D03*
X557530Y188840D03*
D15*
X541980Y185610D02*
X534980Y185610D01*
X534980Y192610D01*
X541980Y192610D01*
X541980Y185610D01*
X541980Y188460D02*
X534980Y188460D01*
X534980Y191310D02*
X541980Y191310D01*
X541980Y168070D02*
X534980Y168070D01*
X534980Y175070D01*
X541980Y175070D01*
X541980Y168070D01*
X541980Y170920D02*
X534980Y170920D01*
X534980Y173770D02*
X541980Y173770D01*
D14*
X605790Y173110D03*
X605790Y190110D03*
X695960Y169300D03*
X695960Y186300D03*
D13*
X653660Y152400D03*
X636660Y152400D03*
D14*
X607060Y135500D03*
X607060Y118500D03*
D13*
X636660Y82550D03*
X653660Y82550D03*
D16*
X652660Y124500D03*
X652660Y129500D03*
X637660Y129500D03*
X637660Y124500D03*
D17*
X652660Y134625D03*
X647660Y134625D03*
X642660Y134625D03*
X637660Y134625D03*
X637660Y119375D03*
X642660Y119375D03*
X647660Y119375D03*
X652660Y119375D03*
D11*
X791290Y155000D03*
X791290Y99000D03*
D12*
X828040Y142000D03*
X828040Y132000D03*
X828040Y122000D03*
X828040Y112000D03*
D13*
X912740Y104140D03*
X895740Y104140D03*
D11*
X1017190Y99000D03*
X1017190Y155000D03*
D12*
X980440Y112000D03*
X980440Y122000D03*
X980440Y132000D03*
X980440Y142000D03*
D14*
X816610Y171840D03*
X816610Y188840D03*
D15*
X801060Y185610D02*
X794060Y185610D01*
X794060Y192610D01*
X801060Y192610D01*
X801060Y185610D01*
X801060Y188460D02*
X794060Y188460D01*
X794060Y191310D02*
X801060Y191310D01*
X801060Y168070D02*
X794060Y168070D01*
X794060Y175070D01*
X801060Y175070D01*
X801060Y168070D01*
X801060Y170920D02*
X794060Y170920D01*
X794060Y173770D02*
X801060Y173770D01*
D14*
X864870Y173110D03*
X864870Y190110D03*
X955040Y169300D03*
X955040Y186300D03*
D13*
X912740Y152400D03*
X895740Y152400D03*
D14*
X866140Y135500D03*
X866140Y118500D03*
D13*
X895740Y82550D03*
X912740Y82550D03*
D16*
X911740Y124500D03*
X911740Y129500D03*
X896740Y129500D03*
X896740Y124500D03*
D17*
X911740Y134625D03*
X906740Y134625D03*
X901740Y134625D03*
X896740Y134625D03*
X896740Y119375D03*
X901740Y119375D03*
X906740Y119375D03*
X911740Y119375D03*
D11*
X1050370Y155000D03*
X1050370Y99000D03*
D12*
X1087120Y142000D03*
X1087120Y132000D03*
X1087120Y122000D03*
X1087120Y112000D03*
D13*
X1171820Y104140D03*
X1154820Y104140D03*
D11*
X1276270Y99000D03*
X1276270Y155000D03*
D12*
X1239520Y112000D03*
X1239520Y122000D03*
X1239520Y132000D03*
X1239520Y142000D03*
D14*
X1075690Y171840D03*
X1075690Y188840D03*
D15*
X1060140Y185610D02*
X1053140Y185610D01*
X1053140Y192610D01*
X1060140Y192610D01*
X1060140Y185610D01*
X1060140Y188460D02*
X1053140Y188460D01*
X1053140Y191310D02*
X1060140Y191310D01*
X1060140Y168070D02*
X1053140Y168070D01*
X1053140Y175070D01*
X1060140Y175070D01*
X1060140Y168070D01*
X1060140Y170920D02*
X1053140Y170920D01*
X1053140Y173770D02*
X1060140Y173770D01*
D14*
X1123950Y173110D03*
X1123950Y190110D03*
X1214120Y169300D03*
X1214120Y186300D03*
D13*
X1171820Y152400D03*
X1154820Y152400D03*
D14*
X1125220Y135500D03*
X1125220Y118500D03*
D13*
X1154820Y82550D03*
X1171820Y82550D03*
D16*
X1170820Y124500D03*
X1170820Y129500D03*
X1155820Y129500D03*
X1155820Y124500D03*
D17*
X1170820Y134625D03*
X1165820Y134625D03*
X1160820Y134625D03*
X1155820Y134625D03*
X1155820Y119375D03*
X1160820Y119375D03*
X1165820Y119375D03*
X1170820Y119375D03*
D11*
X1309450Y155000D03*
X1309450Y99000D03*
D12*
X1346200Y142000D03*
X1346200Y132000D03*
X1346200Y122000D03*
X1346200Y112000D03*
D13*
X1430900Y104140D03*
X1413900Y104140D03*
D11*
X1535350Y99000D03*
X1535350Y155000D03*
D12*
X1498600Y112000D03*
X1498600Y122000D03*
X1498600Y132000D03*
X1498600Y142000D03*
D14*
X1334770Y171840D03*
X1334770Y188840D03*
D15*
X1319220Y185610D02*
X1312220Y185610D01*
X1312220Y192610D01*
X1319220Y192610D01*
X1319220Y185610D01*
X1319220Y188460D02*
X1312220Y188460D01*
X1312220Y191310D02*
X1319220Y191310D01*
X1319220Y168070D02*
X1312220Y168070D01*
X1312220Y175070D01*
X1319220Y175070D01*
X1319220Y168070D01*
X1319220Y170920D02*
X1312220Y170920D01*
X1312220Y173770D02*
X1319220Y173770D01*
D14*
X1383030Y173110D03*
X1383030Y190110D03*
X1473200Y169300D03*
X1473200Y186300D03*
D13*
X1430900Y152400D03*
X1413900Y152400D03*
D14*
X1384300Y135500D03*
X1384300Y118500D03*
D13*
X1413900Y82550D03*
X1430900Y82550D03*
D16*
X1429900Y124500D03*
X1429900Y129500D03*
X1414900Y129500D03*
X1414900Y124500D03*
D17*
X1429900Y134625D03*
X1424900Y134625D03*
X1419900Y134625D03*
X1414900Y134625D03*
X1414900Y119375D03*
X1419900Y119375D03*
X1424900Y119375D03*
X1429900Y119375D03*
D11*
X1568530Y155000D03*
X1568530Y99000D03*
D12*
X1605280Y142000D03*
X1605280Y132000D03*
X1605280Y122000D03*
X1605280Y112000D03*
D13*
X1689980Y104140D03*
X1672980Y104140D03*
D11*
X1794430Y99000D03*
X1794430Y155000D03*
D12*
X1757680Y112000D03*
X1757680Y122000D03*
X1757680Y132000D03*
X1757680Y142000D03*
D14*
X1593850Y171840D03*
X1593850Y188840D03*
D15*
X1578300Y185610D02*
X1571300Y185610D01*
X1571300Y192610D01*
X1578300Y192610D01*
X1578300Y185610D01*
X1578300Y188460D02*
X1571300Y188460D01*
X1571300Y191310D02*
X1578300Y191310D01*
X1578300Y168070D02*
X1571300Y168070D01*
X1571300Y175070D01*
X1578300Y175070D01*
X1578300Y168070D01*
X1578300Y170920D02*
X1571300Y170920D01*
X1571300Y173770D02*
X1578300Y173770D01*
D14*
X1642110Y173110D03*
X1642110Y190110D03*
X1732280Y169300D03*
X1732280Y186300D03*
D13*
X1689980Y152400D03*
X1672980Y152400D03*
D14*
X1643380Y135500D03*
X1643380Y118500D03*
D13*
X1672980Y82550D03*
X1689980Y82550D03*
D16*
X1688980Y124500D03*
X1688980Y129500D03*
X1673980Y129500D03*
X1673980Y124500D03*
D17*
X1688980Y134625D03*
X1683980Y134625D03*
X1678980Y134625D03*
X1673980Y134625D03*
X1673980Y119375D03*
X1678980Y119375D03*
X1683980Y119375D03*
X1688980Y119375D03*
D11*
X14050Y414080D03*
X14050Y358080D03*
D12*
X50800Y401080D03*
X50800Y391080D03*
X50800Y381080D03*
X50800Y371080D03*
D13*
X135500Y363220D03*
X118500Y363220D03*
D11*
X239950Y358080D03*
X239950Y414080D03*
D12*
X203200Y371080D03*
X203200Y381080D03*
X203200Y391080D03*
X203200Y401080D03*
D14*
X39370Y430920D03*
X39370Y447920D03*
D15*
X23820Y444690D02*
X16820Y444690D01*
X16820Y451690D01*
X23820Y451690D01*
X23820Y444690D01*
X23820Y447540D02*
X16820Y447540D01*
X16820Y450390D02*
X23820Y450390D01*
X23820Y427150D02*
X16820Y427150D01*
X16820Y434150D01*
X23820Y434150D01*
X23820Y427150D01*
X23820Y430000D02*
X16820Y430000D01*
X16820Y432850D02*
X23820Y432850D01*
D14*
X87630Y432190D03*
X87630Y449190D03*
X177800Y428380D03*
X177800Y445380D03*
D13*
X135500Y411480D03*
X118500Y411480D03*
D14*
X88900Y394580D03*
X88900Y377580D03*
D13*
X118500Y341630D03*
X135500Y341630D03*
D16*
X134500Y383580D03*
X134500Y388580D03*
X119500Y388580D03*
X119500Y383580D03*
D17*
X134500Y393705D03*
X129500Y393705D03*
X124500Y393705D03*
X119500Y393705D03*
X119500Y378455D03*
X124500Y378455D03*
X129500Y378455D03*
X134500Y378455D03*
D11*
X273130Y414080D03*
X273130Y358080D03*
D12*
X309880Y401080D03*
X309880Y391080D03*
X309880Y381080D03*
X309880Y371080D03*
D13*
X394580Y363220D03*
X377580Y363220D03*
D11*
X499030Y358080D03*
X499030Y414080D03*
D12*
X462280Y371080D03*
X462280Y381080D03*
X462280Y391080D03*
X462280Y401080D03*
D14*
X298450Y430920D03*
X298450Y447920D03*
D15*
X282900Y444690D02*
X275900Y444690D01*
X275900Y451690D01*
X282900Y451690D01*
X282900Y444690D01*
X282900Y447540D02*
X275900Y447540D01*
X275900Y450390D02*
X282900Y450390D01*
X282900Y427150D02*
X275900Y427150D01*
X275900Y434150D01*
X282900Y434150D01*
X282900Y427150D01*
X282900Y430000D02*
X275900Y430000D01*
X275900Y432850D02*
X282900Y432850D01*
D14*
X346710Y432190D03*
X346710Y449190D03*
X436880Y428380D03*
X436880Y445380D03*
D13*
X394580Y411480D03*
X377580Y411480D03*
D14*
X347980Y394580D03*
X347980Y377580D03*
D13*
X377580Y341630D03*
X394580Y341630D03*
D16*
X393580Y383580D03*
X393580Y388580D03*
X378580Y388580D03*
X378580Y383580D03*
D17*
X393580Y393705D03*
X388580Y393705D03*
X383580Y393705D03*
X378580Y393705D03*
X378580Y378455D03*
X383580Y378455D03*
X388580Y378455D03*
X393580Y378455D03*
D11*
X532210Y414080D03*
X532210Y358080D03*
D12*
X568960Y401080D03*
X568960Y391080D03*
X568960Y381080D03*
X568960Y371080D03*
D13*
X653660Y363220D03*
X636660Y363220D03*
D11*
X758110Y358080D03*
X758110Y414080D03*
D12*
X721360Y371080D03*
X721360Y381080D03*
X721360Y391080D03*
X721360Y401080D03*
D14*
X557530Y430920D03*
X557530Y447920D03*
D15*
X541980Y444690D02*
X534980Y444690D01*
X534980Y451690D01*
X541980Y451690D01*
X541980Y444690D01*
X541980Y447540D02*
X534980Y447540D01*
X534980Y450390D02*
X541980Y450390D01*
X541980Y427150D02*
X534980Y427150D01*
X534980Y434150D01*
X541980Y434150D01*
X541980Y427150D01*
X541980Y430000D02*
X534980Y430000D01*
X534980Y432850D02*
X541980Y432850D01*
D14*
X605790Y432190D03*
X605790Y449190D03*
X695960Y428380D03*
X695960Y445380D03*
D13*
X653660Y411480D03*
X636660Y411480D03*
D14*
X607060Y394580D03*
X607060Y377580D03*
D13*
X636660Y341630D03*
X653660Y341630D03*
D16*
X652660Y383580D03*
X652660Y388580D03*
X637660Y388580D03*
X637660Y383580D03*
D17*
X652660Y393705D03*
X647660Y393705D03*
X642660Y393705D03*
X637660Y393705D03*
X637660Y378455D03*
X642660Y378455D03*
X647660Y378455D03*
X652660Y378455D03*
D11*
X791290Y414080D03*
X791290Y358080D03*
D12*
X828040Y401080D03*
X828040Y391080D03*
X828040Y381080D03*
X828040Y371080D03*
D13*
X912740Y363220D03*
X895740Y363220D03*
D11*
X1017190Y358080D03*
X1017190Y414080D03*
D12*
X980440Y371080D03*
X980440Y381080D03*
X980440Y391080D03*
X980440Y401080D03*
D14*
X816610Y430920D03*
X816610Y447920D03*
D15*
X801060Y444690D02*
X794060Y444690D01*
X794060Y451690D01*
X801060Y451690D01*
X801060Y444690D01*
X801060Y447540D02*
X794060Y447540D01*
X794060Y450390D02*
X801060Y450390D01*
X801060Y427150D02*
X794060Y427150D01*
X794060Y434150D01*
X801060Y434150D01*
X801060Y427150D01*
X801060Y430000D02*
X794060Y430000D01*
X794060Y432850D02*
X801060Y432850D01*
D14*
X864870Y432190D03*
X864870Y449190D03*
X955040Y428380D03*
X955040Y445380D03*
D13*
X912740Y411480D03*
X895740Y411480D03*
D14*
X866140Y394580D03*
X866140Y377580D03*
D13*
X895740Y341630D03*
X912740Y341630D03*
D16*
X911740Y383580D03*
X911740Y388580D03*
X896740Y388580D03*
X896740Y383580D03*
D17*
X911740Y393705D03*
X906740Y393705D03*
X901740Y393705D03*
X896740Y393705D03*
X896740Y378455D03*
X901740Y378455D03*
X906740Y378455D03*
X911740Y378455D03*
D11*
X1050370Y414080D03*
X1050370Y358080D03*
D12*
X1087120Y401080D03*
X1087120Y391080D03*
X1087120Y381080D03*
X1087120Y371080D03*
D13*
X1171820Y363220D03*
X1154820Y363220D03*
D11*
X1276270Y358080D03*
X1276270Y414080D03*
D12*
X1239520Y371080D03*
X1239520Y381080D03*
X1239520Y391080D03*
X1239520Y401080D03*
D14*
X1075690Y430920D03*
X1075690Y447920D03*
D15*
X1060140Y444690D02*
X1053140Y444690D01*
X1053140Y451690D01*
X1060140Y451690D01*
X1060140Y444690D01*
X1060140Y447540D02*
X1053140Y447540D01*
X1053140Y450390D02*
X1060140Y450390D01*
X1060140Y427150D02*
X1053140Y427150D01*
X1053140Y434150D01*
X1060140Y434150D01*
X1060140Y427150D01*
X1060140Y430000D02*
X1053140Y430000D01*
X1053140Y432850D02*
X1060140Y432850D01*
D14*
X1123950Y432190D03*
X1123950Y449190D03*
X1214120Y428380D03*
X1214120Y445380D03*
D13*
X1171820Y411480D03*
X1154820Y411480D03*
D14*
X1125220Y394580D03*
X1125220Y377580D03*
D13*
X1154820Y341630D03*
X1171820Y341630D03*
D16*
X1170820Y383580D03*
X1170820Y388580D03*
X1155820Y388580D03*
X1155820Y383580D03*
D17*
X1170820Y393705D03*
X1165820Y393705D03*
X1160820Y393705D03*
X1155820Y393705D03*
X1155820Y378455D03*
X1160820Y378455D03*
X1165820Y378455D03*
X1170820Y378455D03*
D11*
X1309450Y414080D03*
X1309450Y358080D03*
D12*
X1346200Y401080D03*
X1346200Y391080D03*
X1346200Y381080D03*
X1346200Y371080D03*
D13*
X1430900Y363220D03*
X1413900Y363220D03*
D11*
X1535350Y358080D03*
X1535350Y414080D03*
D12*
X1498600Y371080D03*
X1498600Y381080D03*
X1498600Y391080D03*
X1498600Y401080D03*
D14*
X1334770Y430920D03*
X1334770Y447920D03*
D15*
X1319220Y444690D02*
X1312220Y444690D01*
X1312220Y451690D01*
X1319220Y451690D01*
X1319220Y444690D01*
X1319220Y447540D02*
X1312220Y447540D01*
X1312220Y450390D02*
X1319220Y450390D01*
X1319220Y427150D02*
X1312220Y427150D01*
X1312220Y434150D01*
X1319220Y434150D01*
X1319220Y427150D01*
X1319220Y430000D02*
X1312220Y430000D01*
X1312220Y432850D02*
X1319220Y432850D01*
D14*
X1383030Y432190D03*
X1383030Y449190D03*
X1473200Y428380D03*
X1473200Y445380D03*
D13*
X1430900Y411480D03*
X1413900Y411480D03*
D14*
X1384300Y394580D03*
X1384300Y377580D03*
D13*
X1413900Y341630D03*
X1430900Y341630D03*
D16*
X1429900Y383580D03*
X1429900Y388580D03*
X1414900Y388580D03*
X1414900Y383580D03*
D17*
X1429900Y393705D03*
X1424900Y393705D03*
X1419900Y393705D03*
X1414900Y393705D03*
X1414900Y378455D03*
X1419900Y378455D03*
X1424900Y378455D03*
X1429900Y378455D03*
D11*
X1568530Y414080D03*
X1568530Y358080D03*
D12*
X1605280Y401080D03*
X1605280Y391080D03*
X1605280Y381080D03*
X1605280Y371080D03*
D13*
X1689980Y363220D03*
X1672980Y363220D03*
D11*
X1794430Y358080D03*
X1794430Y414080D03*
D12*
X1757680Y371080D03*
X1757680Y381080D03*
X1757680Y391080D03*
X1757680Y401080D03*
D14*
X1593850Y430920D03*
X1593850Y447920D03*
D15*
X1578300Y444690D02*
X1571300Y444690D01*
X1571300Y451690D01*
X1578300Y451690D01*
X1578300Y444690D01*
X1578300Y447540D02*
X1571300Y447540D01*
X1571300Y450390D02*
X1578300Y450390D01*
X1578300Y427150D02*
X1571300Y427150D01*
X1571300Y434150D01*
X1578300Y434150D01*
X1578300Y427150D01*
X1578300Y430000D02*
X1571300Y430000D01*
X1571300Y432850D02*
X1578300Y432850D01*
D14*
X1642110Y432190D03*
X1642110Y449190D03*
X1732280Y428380D03*
X1732280Y445380D03*
D13*
X1689980Y411480D03*
X1672980Y411480D03*
D14*
X1643380Y394580D03*
X1643380Y377580D03*
D13*
X1672980Y341630D03*
X1689980Y341630D03*
D16*
X1688980Y383580D03*
X1688980Y388580D03*
X1673980Y388580D03*
X1673980Y383580D03*
D17*
X1688980Y393705D03*
X1683980Y393705D03*
X1678980Y393705D03*
X1673980Y393705D03*
X1673980Y378455D03*
X1678980Y378455D03*
X1683980Y378455D03*
X1688980Y378455D03*
D11*
X14050Y673160D03*
X14050Y617160D03*
D12*
X50800Y660160D03*
X50800Y650160D03*
X50800Y640160D03*
X50800Y630160D03*
D13*
X135500Y622300D03*
X118500Y622300D03*
D11*
X239950Y617160D03*
X239950Y673160D03*
D12*
X203200Y630160D03*
X203200Y640160D03*
X203200Y650160D03*
X203200Y660160D03*
D14*
X39370Y690000D03*
X39370Y707000D03*
D15*
X23820Y703770D02*
X16820Y703770D01*
X16820Y710770D01*
X23820Y710770D01*
X23820Y703770D01*
X23820Y706620D02*
X16820Y706620D01*
X16820Y709470D02*
X23820Y709470D01*
X23820Y686230D02*
X16820Y686230D01*
X16820Y693230D01*
X23820Y693230D01*
X23820Y686230D01*
X23820Y689080D02*
X16820Y689080D01*
X16820Y691930D02*
X23820Y691930D01*
D14*
X87630Y691270D03*
X87630Y708270D03*
X177800Y687460D03*
X177800Y704460D03*
D13*
X135500Y670560D03*
X118500Y670560D03*
D14*
X88900Y653660D03*
X88900Y636660D03*
D13*
X118500Y600710D03*
X135500Y600710D03*
D16*
X134500Y642660D03*
X134500Y647660D03*
X119500Y647660D03*
X119500Y642660D03*
D17*
X134500Y652785D03*
X129500Y652785D03*
X124500Y652785D03*
X119500Y652785D03*
X119500Y637535D03*
X124500Y637535D03*
X129500Y637535D03*
X134500Y637535D03*
D11*
X273130Y673160D03*
X273130Y617160D03*
D12*
X309880Y660160D03*
X309880Y650160D03*
X309880Y640160D03*
X309880Y630160D03*
D13*
X394580Y622300D03*
X377580Y622300D03*
D11*
X499030Y617160D03*
X499030Y673160D03*
D12*
X462280Y630160D03*
X462280Y640160D03*
X462280Y650160D03*
X462280Y660160D03*
D14*
X298450Y690000D03*
X298450Y707000D03*
D15*
X282900Y703770D02*
X275900Y703770D01*
X275900Y710770D01*
X282900Y710770D01*
X282900Y703770D01*
X282900Y706620D02*
X275900Y706620D01*
X275900Y709470D02*
X282900Y709470D01*
X282900Y686230D02*
X275900Y686230D01*
X275900Y693230D01*
X282900Y693230D01*
X282900Y686230D01*
X282900Y689080D02*
X275900Y689080D01*
X275900Y691930D02*
X282900Y691930D01*
D14*
X346710Y691270D03*
X346710Y708270D03*
X436880Y687460D03*
X436880Y704460D03*
D13*
X394580Y670560D03*
X377580Y670560D03*
D14*
X347980Y653660D03*
X347980Y636660D03*
D13*
X377580Y600710D03*
X394580Y600710D03*
D16*
X393580Y642660D03*
X393580Y647660D03*
X378580Y647660D03*
X378580Y642660D03*
D17*
X393580Y652785D03*
X388580Y652785D03*
X383580Y652785D03*
X378580Y652785D03*
X378580Y637535D03*
X383580Y637535D03*
X388580Y637535D03*
X393580Y637535D03*
D11*
X532210Y673160D03*
X532210Y617160D03*
D12*
X568960Y660160D03*
X568960Y650160D03*
X568960Y640160D03*
X568960Y630160D03*
D13*
X653660Y622300D03*
X636660Y622300D03*
D11*
X758110Y617160D03*
X758110Y673160D03*
D12*
X721360Y630160D03*
X721360Y640160D03*
X721360Y650160D03*
X721360Y660160D03*
D14*
X557530Y690000D03*
X557530Y707000D03*
D15*
X541980Y703770D02*
X534980Y703770D01*
X534980Y710770D01*
X541980Y710770D01*
X541980Y703770D01*
X541980Y706620D02*
X534980Y706620D01*
X534980Y709470D02*
X541980Y709470D01*
X541980Y686230D02*
X534980Y686230D01*
X534980Y693230D01*
X541980Y693230D01*
X541980Y686230D01*
X541980Y689080D02*
X534980Y689080D01*
X534980Y691930D02*
X541980Y691930D01*
D14*
X605790Y691270D03*
X605790Y708270D03*
X695960Y687460D03*
X695960Y704460D03*
D13*
X653660Y670560D03*
X636660Y670560D03*
D14*
X607060Y653660D03*
X607060Y636660D03*
D13*
X636660Y600710D03*
X653660Y600710D03*
D16*
X652660Y642660D03*
X652660Y647660D03*
X637660Y647660D03*
X637660Y642660D03*
D17*
X652660Y652785D03*
X647660Y652785D03*
X642660Y652785D03*
X637660Y652785D03*
X637660Y637535D03*
X642660Y637535D03*
X647660Y637535D03*
X652660Y637535D03*
D11*
X791290Y673160D03*
X791290Y617160D03*
D12*
X828040Y660160D03*
X828040Y650160D03*
X828040Y640160D03*
X828040Y630160D03*
D13*
X912740Y622300D03*
X895740Y622300D03*
D11*
X1017190Y617160D03*
X1017190Y673160D03*
D12*
X980440Y630160D03*
X980440Y640160D03*
X980440Y650160D03*
X980440Y660160D03*
D14*
X816610Y690000D03*
X816610Y707000D03*
D15*
X801060Y703770D02*
X794060Y703770D01*
X794060Y710770D01*
X801060Y710770D01*
X801060Y703770D01*
X801060Y706620D02*
X794060Y706620D01*
X794060Y709470D02*
X801060Y709470D01*
X801060Y686230D02*
X794060Y686230D01*
X794060Y693230D01*
X801060Y693230D01*
X801060Y686230D01*
X801060Y689080D02*
X794060Y689080D01*
X794060Y691930D02*
X801060Y691930D01*
D14*
X864870Y691270D03*
X864870Y708270D03*
X955040Y687460D03*
X955040Y704460D03*
D13*
X912740Y670560D03*
X895740Y670560D03*
D14*
X866140Y653660D03*
X866140Y636660D03*
D13*
X895740Y600710D03*
X912740Y600710D03*
D16*
X911740Y642660D03*
X911740Y647660D03*
X896740Y647660D03*
X896740Y642660D03*
D17*
X911740Y652785D03*
X906740Y652785D03*
X901740Y652785D03*
X896740Y652785D03*
X896740Y637535D03*
X901740Y637535D03*
X906740Y637535D03*
X911740Y637535D03*
D11*
X1050370Y673160D03*
X1050370Y617160D03*
D12*
X1087120Y660160D03*
X1087120Y650160D03*
X1087120Y640160D03*
X1087120Y630160D03*
D13*
X1171820Y622300D03*
X1154820Y622300D03*
D11*
X1276270Y617160D03*
X1276270Y673160D03*
D12*
X1239520Y630160D03*
X1239520Y640160D03*
X1239520Y650160D03*
X1239520Y660160D03*
D14*
X1075690Y690000D03*
X1075690Y707000D03*
D15*
X1060140Y703770D02*
X1053140Y703770D01*
X1053140Y710770D01*
X1060140Y710770D01*
X1060140Y703770D01*
X1060140Y706620D02*
X1053140Y706620D01*
X1053140Y709470D02*
X1060140Y709470D01*
X1060140Y686230D02*
X1053140Y686230D01*
X1053140Y693230D01*
X1060140Y693230D01*
X1060140Y686230D01*
X1060140Y689080D02*
X1053140Y689080D01*
X1053140Y691930D02*
X1060140Y691930D01*
D14*
X1123950Y691270D03*
X1123950Y708270D03*
X1214120Y687460D03*
X1214120Y704460D03*
D13*
X1171820Y670560D03*
X1154820Y670560D03*
D14*
X1125220Y653660D03*
X1125220Y636660D03*
D13*
X1154820Y600710D03*
X1171820Y600710D03*
D16*
X1170820Y642660D03*
X1170820Y647660D03*
X1155820Y647660D03*
X1155820Y642660D03*
D17*
X1170820Y652785D03*
X1165820Y652785D03*
X1160820Y652785D03*
X1155820Y652785D03*
X1155820Y637535D03*
X1160820Y637535D03*
X1165820Y637535D03*
X1170820Y637535D03*
D11*
X1309450Y673160D03*
X1309450Y617160D03*
D12*
X1346200Y660160D03*
X1346200Y650160D03*
X1346200Y640160D03*
X1346200Y630160D03*
D13*
X1430900Y622300D03*
X1413900Y622300D03*
D11*
X1535350Y617160D03*
X1535350Y673160D03*
D12*
X1498600Y630160D03*
X1498600Y640160D03*
X1498600Y650160D03*
X1498600Y660160D03*
D14*
X1334770Y690000D03*
X1334770Y707000D03*
D15*
X1319220Y703770D02*
X1312220Y703770D01*
X1312220Y710770D01*
X1319220Y710770D01*
X1319220Y703770D01*
X1319220Y706620D02*
X1312220Y706620D01*
X1312220Y709470D02*
X1319220Y709470D01*
X1319220Y686230D02*
X1312220Y686230D01*
X1312220Y693230D01*
X1319220Y693230D01*
X1319220Y686230D01*
X1319220Y689080D02*
X1312220Y689080D01*
X1312220Y691930D02*
X1319220Y691930D01*
D14*
X1383030Y691270D03*
X1383030Y708270D03*
X1473200Y687460D03*
X1473200Y704460D03*
D13*
X1430900Y670560D03*
X1413900Y670560D03*
D14*
X1384300Y653660D03*
X1384300Y636660D03*
D13*
X1413900Y600710D03*
X1430900Y600710D03*
D16*
X1429900Y642660D03*
X1429900Y647660D03*
X1414900Y647660D03*
X1414900Y642660D03*
D17*
X1429900Y652785D03*
X1424900Y652785D03*
X1419900Y652785D03*
X1414900Y652785D03*
X1414900Y637535D03*
X1419900Y637535D03*
X1424900Y637535D03*
X1429900Y637535D03*
D11*
X1568530Y673160D03*
X1568530Y617160D03*
D12*
X1605280Y660160D03*
X1605280Y650160D03*
X1605280Y640160D03*
X1605280Y630160D03*
D13*
X1689980Y622300D03*
X1672980Y622300D03*
D11*
X1794430Y617160D03*
X1794430Y673160D03*
D12*
X1757680Y630160D03*
X1757680Y640160D03*
X1757680Y650160D03*
X1757680Y660160D03*
D14*
X1593850Y690000D03*
X1593850Y707000D03*
D15*
X1578300Y703770D02*
X1571300Y703770D01*
X1571300Y710770D01*
X1578300Y710770D01*
X1578300Y703770D01*
X1578300Y706620D02*
X1571300Y706620D01*
X1571300Y709470D02*
X1578300Y709470D01*
X1578300Y686230D02*
X1571300Y686230D01*
X1571300Y693230D01*
X1578300Y693230D01*
X1578300Y686230D01*
X1578300Y689080D02*
X1571300Y689080D01*
X1571300Y691930D02*
X1578300Y691930D01*
D14*
X1642110Y691270D03*
X1642110Y708270D03*
X1732280Y687460D03*
X1732280Y704460D03*
D13*
X1689980Y670560D03*
X1672980Y670560D03*
D14*
X1643380Y653660D03*
X1643380Y636660D03*
D13*
X1672980Y600710D03*
X1689980Y600710D03*
D16*
X1688980Y642660D03*
X1688980Y647660D03*
X1673980Y647660D03*
X1673980Y642660D03*
D17*
X1688980Y652785D03*
X1683980Y652785D03*
X1678980Y652785D03*
X1673980Y652785D03*
X1673980Y637535D03*
X1678980Y637535D03*
X1683980Y637535D03*
X1688980Y637535D03*
D11*
X14050Y932240D03*
X14050Y876240D03*
D12*
X50800Y919240D03*
X50800Y909240D03*
X50800Y899240D03*
X50800Y889240D03*
D13*
X135500Y881380D03*
X118500Y881380D03*
D11*
X239950Y876240D03*
X239950Y932240D03*
D12*
X203200Y889240D03*
X203200Y899240D03*
X203200Y909240D03*
X203200Y919240D03*
D14*
X39370Y949080D03*
X39370Y966080D03*
D15*
X23820Y962850D02*
X16820Y962850D01*
X16820Y969850D01*
X23820Y969850D01*
X23820Y962850D01*
X23820Y965700D02*
X16820Y965700D01*
X16820Y968550D02*
X23820Y968550D01*
X23820Y945310D02*
X16820Y945310D01*
X16820Y952310D01*
X23820Y952310D01*
X23820Y945310D01*
X23820Y948160D02*
X16820Y948160D01*
X16820Y951010D02*
X23820Y951010D01*
D14*
X87630Y950350D03*
X87630Y967350D03*
X177800Y946540D03*
X177800Y963540D03*
D13*
X135500Y929640D03*
X118500Y929640D03*
D14*
X88900Y912740D03*
X88900Y895740D03*
D13*
X118500Y859790D03*
X135500Y859790D03*
D16*
X134500Y901740D03*
X134500Y906740D03*
X119500Y906740D03*
X119500Y901740D03*
D17*
X134500Y911865D03*
X129500Y911865D03*
X124500Y911865D03*
X119500Y911865D03*
X119500Y896615D03*
X124500Y896615D03*
X129500Y896615D03*
X134500Y896615D03*
D11*
X273130Y932240D03*
X273130Y876240D03*
D12*
X309880Y919240D03*
X309880Y909240D03*
X309880Y899240D03*
X309880Y889240D03*
D13*
X394580Y881380D03*
X377580Y881380D03*
D11*
X499030Y876240D03*
X499030Y932240D03*
D12*
X462280Y889240D03*
X462280Y899240D03*
X462280Y909240D03*
X462280Y919240D03*
D14*
X298450Y949080D03*
X298450Y966080D03*
D15*
X282900Y962850D02*
X275900Y962850D01*
X275900Y969850D01*
X282900Y969850D01*
X282900Y962850D01*
X282900Y965700D02*
X275900Y965700D01*
X275900Y968550D02*
X282900Y968550D01*
X282900Y945310D02*
X275900Y945310D01*
X275900Y952310D01*
X282900Y952310D01*
X282900Y945310D01*
X282900Y948160D02*
X275900Y948160D01*
X275900Y951010D02*
X282900Y951010D01*
D14*
X346710Y950350D03*
X346710Y967350D03*
X436880Y946540D03*
X436880Y963540D03*
D13*
X394580Y929640D03*
X377580Y929640D03*
D14*
X347980Y912740D03*
X347980Y895740D03*
D13*
X377580Y859790D03*
X394580Y859790D03*
D16*
X393580Y901740D03*
X393580Y906740D03*
X378580Y906740D03*
X378580Y901740D03*
D17*
X393580Y911865D03*
X388580Y911865D03*
X383580Y911865D03*
X378580Y911865D03*
X378580Y896615D03*
X383580Y896615D03*
X388580Y896615D03*
X393580Y896615D03*
D11*
X532210Y932240D03*
X532210Y876240D03*
D12*
X568960Y919240D03*
X568960Y909240D03*
X568960Y899240D03*
X568960Y889240D03*
D13*
X653660Y881380D03*
X636660Y881380D03*
D11*
X758110Y876240D03*
X758110Y932240D03*
D12*
X721360Y889240D03*
X721360Y899240D03*
X721360Y909240D03*
X721360Y919240D03*
D14*
X557530Y949080D03*
X557530Y966080D03*
D15*
X541980Y962850D02*
X534980Y962850D01*
X534980Y969850D01*
X541980Y969850D01*
X541980Y962850D01*
X541980Y965700D02*
X534980Y965700D01*
X534980Y968550D02*
X541980Y968550D01*
X541980Y945310D02*
X534980Y945310D01*
X534980Y952310D01*
X541980Y952310D01*
X541980Y945310D01*
X541980Y948160D02*
X534980Y948160D01*
X534980Y951010D02*
X541980Y951010D01*
D14*
X605790Y950350D03*
X605790Y967350D03*
X695960Y946540D03*
X695960Y963540D03*
D13*
X653660Y929640D03*
X636660Y929640D03*
D14*
X607060Y912740D03*
X607060Y895740D03*
D13*
X636660Y859790D03*
X653660Y859790D03*
D16*
X652660Y901740D03*
X652660Y906740D03*
X637660Y906740D03*
X637660Y901740D03*
D17*
X652660Y911865D03*
X647660Y911865D03*
X642660Y911865D03*
X637660Y911865D03*
X637660Y896615D03*
X642660Y896615D03*
X647660Y896615D03*
X652660Y896615D03*
D11*
X791290Y932240D03*
X791290Y876240D03*
D12*
X828040Y919240D03*
X828040Y909240D03*
X828040Y899240D03*
X828040Y889240D03*
D13*
X912740Y881380D03*
X895740Y881380D03*
D11*
X1017190Y876240D03*
X1017190Y932240D03*
D12*
X980440Y889240D03*
X980440Y899240D03*
X980440Y909240D03*
X980440Y919240D03*
D14*
X816610Y949080D03*
X816610Y966080D03*
D15*
X801060Y962850D02*
X794060Y962850D01*
X794060Y969850D01*
X801060Y969850D01*
X801060Y962850D01*
X801060Y965700D02*
X794060Y965700D01*
X794060Y968550D02*
X801060Y968550D01*
X801060Y945310D02*
X794060Y945310D01*
X794060Y952310D01*
X801060Y952310D01*
X801060Y945310D01*
X801060Y948160D02*
X794060Y948160D01*
X794060Y951010D02*
X801060Y951010D01*
D14*
X864870Y950350D03*
X864870Y967350D03*
X955040Y946540D03*
X955040Y963540D03*
D13*
X912740Y929640D03*
X895740Y929640D03*
D14*
X866140Y912740D03*
X866140Y895740D03*
D13*
X895740Y859790D03*
X912740Y859790D03*
D16*
X911740Y901740D03*
X911740Y906740D03*
X896740Y906740D03*
X896740Y901740D03*
D17*
X911740Y911865D03*
X906740Y911865D03*
X901740Y911865D03*
X896740Y911865D03*
X896740Y896615D03*
X901740Y896615D03*
X906740Y896615D03*
X911740Y896615D03*
D11*
X1050370Y932240D03*
X1050370Y876240D03*
D12*
X1087120Y919240D03*
X1087120Y909240D03*
X1087120Y899240D03*
X1087120Y889240D03*
D13*
X1171820Y881380D03*
X1154820Y881380D03*
D11*
X1276270Y876240D03*
X1276270Y932240D03*
D12*
X1239520Y889240D03*
X1239520Y899240D03*
X1239520Y909240D03*
X1239520Y919240D03*
D14*
X1075690Y949080D03*
X1075690Y966080D03*
D15*
X1060140Y962850D02*
X1053140Y962850D01*
X1053140Y969850D01*
X1060140Y969850D01*
X1060140Y962850D01*
X1060140Y965700D02*
X1053140Y965700D01*
X1053140Y968550D02*
X1060140Y968550D01*
X1060140Y945310D02*
X1053140Y945310D01*
X1053140Y952310D01*
X1060140Y952310D01*
X1060140Y945310D01*
X1060140Y948160D02*
X1053140Y948160D01*
X1053140Y951010D02*
X1060140Y951010D01*
D14*
X1123950Y950350D03*
X1123950Y967350D03*
X1214120Y946540D03*
X1214120Y963540D03*
D13*
X1171820Y929640D03*
X1154820Y929640D03*
D14*
X1125220Y912740D03*
X1125220Y895740D03*
D13*
X1154820Y859790D03*
X1171820Y859790D03*
D16*
X1170820Y901740D03*
X1170820Y906740D03*
X1155820Y906740D03*
X1155820Y901740D03*
D17*
X1170820Y911865D03*
X1165820Y911865D03*
X1160820Y911865D03*
X1155820Y911865D03*
X1155820Y896615D03*
X1160820Y896615D03*
X1165820Y896615D03*
X1170820Y896615D03*
D11*
X1309450Y932240D03*
X1309450Y876240D03*
D12*
X1346200Y919240D03*
X1346200Y909240D03*
X1346200Y899240D03*
X1346200Y889240D03*
D13*
X1430900Y881380D03*
X1413900Y881380D03*
D11*
X1535350Y876240D03*
X1535350Y932240D03*
D12*
X1498600Y889240D03*
X1498600Y899240D03*
X1498600Y909240D03*
X1498600Y919240D03*
D14*
X1334770Y949080D03*
X1334770Y966080D03*
D15*
X1319220Y962850D02*
X1312220Y962850D01*
X1312220Y969850D01*
X1319220Y969850D01*
X1319220Y962850D01*
X1319220Y965700D02*
X1312220Y965700D01*
X1312220Y968550D02*
X1319220Y968550D01*
X1319220Y945310D02*
X1312220Y945310D01*
X1312220Y952310D01*
X1319220Y952310D01*
X1319220Y945310D01*
X1319220Y948160D02*
X1312220Y948160D01*
X1312220Y951010D02*
X1319220Y951010D01*
D14*
X1383030Y950350D03*
X1383030Y967350D03*
X1473200Y946540D03*
X1473200Y963540D03*
D13*
X1430900Y929640D03*
X1413900Y929640D03*
D14*
X1384300Y912740D03*
X1384300Y895740D03*
D13*
X1413900Y859790D03*
X1430900Y859790D03*
D16*
X1429900Y901740D03*
X1429900Y906740D03*
X1414900Y906740D03*
X1414900Y901740D03*
D17*
X1429900Y911865D03*
X1424900Y911865D03*
X1419900Y911865D03*
X1414900Y911865D03*
X1414900Y896615D03*
X1419900Y896615D03*
X1424900Y896615D03*
X1429900Y896615D03*
D11*
X1568530Y932240D03*
X1568530Y876240D03*
D12*
X1605280Y919240D03*
X1605280Y909240D03*
X1605280Y899240D03*
X1605280Y889240D03*
D13*
X1689980Y881380D03*
X1672980Y881380D03*
D11*
X1794430Y876240D03*
X1794430Y932240D03*
D12*
X1757680Y889240D03*
X1757680Y899240D03*
X1757680Y909240D03*
X1757680Y919240D03*
D14*
X1593850Y949080D03*
X1593850Y966080D03*
D15*
X1578300Y962850D02*
X1571300Y962850D01*
X1571300Y969850D01*
X1578300Y969850D01*
X1578300Y962850D01*
X1578300Y965700D02*
X1571300Y965700D01*
X1571300Y968550D02*
X1578300Y968550D01*
X1578300Y945310D02*
X1571300Y945310D01*
X1571300Y952310D01*
X1578300Y952310D01*
X1578300Y945310D01*
X1578300Y948160D02*
X1571300Y948160D01*
X1571300Y951010D02*
X1578300Y951010D01*
D14*
X1642110Y950350D03*
X1642110Y967350D03*
X1732280Y946540D03*
X1732280Y963540D03*
D13*
X1689980Y929640D03*
X1672980Y929640D03*
D14*
X1643380Y912740D03*
X1643380Y895740D03*
D13*
X1672980Y859790D03*
X1689980Y859790D03*
D16*
X1688980Y901740D03*
X1688980Y906740D03*
X1673980Y906740D03*
X1673980Y901740D03*
D17*
X1688980Y911865D03*
X1683980Y911865D03*
X1678980Y911865D03*
X1673980Y911865D03*
X1673980Y896615D03*
X1678980Y896615D03*
X1683980Y896615D03*
X1688980Y896615D03*
D11*
X14050Y1191320D03*
X14050Y1135320D03*
D12*
X50800Y1178320D03*
X50800Y1168320D03*
X50800Y1158320D03*
X50800Y1148320D03*
D13*
X135500Y1140460D03*
X118500Y1140460D03*
D11*
X239950Y1135320D03*
X239950Y1191320D03*
D12*
X203200Y1148320D03*
X203200Y1158320D03*
X203200Y1168320D03*
X203200Y1178320D03*
D14*
X39370Y1208160D03*
X39370Y1225160D03*
D15*
X23820Y1221930D02*
X16820Y1221930D01*
X16820Y1228930D01*
X23820Y1228930D01*
X23820Y1221930D01*
X23820Y1224780D02*
X16820Y1224780D01*
X16820Y1227630D02*
X23820Y1227630D01*
X23820Y1204390D02*
X16820Y1204390D01*
X16820Y1211390D01*
X23820Y1211390D01*
X23820Y1204390D01*
X23820Y1207240D02*
X16820Y1207240D01*
X16820Y1210090D02*
X23820Y1210090D01*
D14*
X87630Y1209430D03*
X87630Y1226430D03*
X177800Y1205620D03*
X177800Y1222620D03*
D13*
X135500Y1188720D03*
X118500Y1188720D03*
D14*
X88900Y1171820D03*
X88900Y1154820D03*
D13*
X118500Y1118870D03*
X135500Y1118870D03*
D16*
X134500Y1160820D03*
X134500Y1165820D03*
X119500Y1165820D03*
X119500Y1160820D03*
D17*
X134500Y1170945D03*
X129500Y1170945D03*
X124500Y1170945D03*
X119500Y1170945D03*
X119500Y1155695D03*
X124500Y1155695D03*
X129500Y1155695D03*
X134500Y1155695D03*
D11*
X273130Y1191320D03*
X273130Y1135320D03*
D12*
X309880Y1178320D03*
X309880Y1168320D03*
X309880Y1158320D03*
X309880Y1148320D03*
D13*
X394580Y1140460D03*
X377580Y1140460D03*
D11*
X499030Y1135320D03*
X499030Y1191320D03*
D12*
X462280Y1148320D03*
X462280Y1158320D03*
X462280Y1168320D03*
X462280Y1178320D03*
D14*
X298450Y1208160D03*
X298450Y1225160D03*
D15*
X282900Y1221930D02*
X275900Y1221930D01*
X275900Y1228930D01*
X282900Y1228930D01*
X282900Y1221930D01*
X282900Y1224780D02*
X275900Y1224780D01*
X275900Y1227630D02*
X282900Y1227630D01*
X282900Y1204390D02*
X275900Y1204390D01*
X275900Y1211390D01*
X282900Y1211390D01*
X282900Y1204390D01*
X282900Y1207240D02*
X275900Y1207240D01*
X275900Y1210090D02*
X282900Y1210090D01*
D14*
X346710Y1209430D03*
X346710Y1226430D03*
X436880Y1205620D03*
X436880Y1222620D03*
D13*
X394580Y1188720D03*
X377580Y1188720D03*
D14*
X347980Y1171820D03*
X347980Y1154820D03*
D13*
X377580Y1118870D03*
X394580Y1118870D03*
D16*
X393580Y1160820D03*
X393580Y1165820D03*
X378580Y1165820D03*
X378580Y1160820D03*
D17*
X393580Y1170945D03*
X388580Y1170945D03*
X383580Y1170945D03*
X378580Y1170945D03*
X378580Y1155695D03*
X383580Y1155695D03*
X388580Y1155695D03*
X393580Y1155695D03*
D11*
X532210Y1191320D03*
X532210Y1135320D03*
D12*
X568960Y1178320D03*
X568960Y1168320D03*
X568960Y1158320D03*
X568960Y1148320D03*
D13*
X653660Y1140460D03*
X636660Y1140460D03*
D11*
X758110Y1135320D03*
X758110Y1191320D03*
D12*
X721360Y1148320D03*
X721360Y1158320D03*
X721360Y1168320D03*
X721360Y1178320D03*
D14*
X557530Y1208160D03*
X557530Y1225160D03*
D15*
X541980Y1221930D02*
X534980Y1221930D01*
X534980Y1228930D01*
X541980Y1228930D01*
X541980Y1221930D01*
X541980Y1224780D02*
X534980Y1224780D01*
X534980Y1227630D02*
X541980Y1227630D01*
X541980Y1204390D02*
X534980Y1204390D01*
X534980Y1211390D01*
X541980Y1211390D01*
X541980Y1204390D01*
X541980Y1207240D02*
X534980Y1207240D01*
X534980Y1210090D02*
X541980Y1210090D01*
D14*
X605790Y1209430D03*
X605790Y1226430D03*
X695960Y1205620D03*
X695960Y1222620D03*
D13*
X653660Y1188720D03*
X636660Y1188720D03*
D14*
X607060Y1171820D03*
X607060Y1154820D03*
D13*
X636660Y1118870D03*
X653660Y1118870D03*
D16*
X652660Y1160820D03*
X652660Y1165820D03*
X637660Y1165820D03*
X637660Y1160820D03*
D17*
X652660Y1170945D03*
X647660Y1170945D03*
X642660Y1170945D03*
X637660Y1170945D03*
X637660Y1155695D03*
X642660Y1155695D03*
X647660Y1155695D03*
X652660Y1155695D03*
D11*
X791290Y1191320D03*
X791290Y1135320D03*
D12*
X828040Y1178320D03*
X828040Y1168320D03*
X828040Y1158320D03*
X828040Y1148320D03*
D13*
X912740Y1140460D03*
X895740Y1140460D03*
D11*
X1017190Y1135320D03*
X1017190Y1191320D03*
D12*
X980440Y1148320D03*
X980440Y1158320D03*
X980440Y1168320D03*
X980440Y1178320D03*
D14*
X816610Y1208160D03*
X816610Y1225160D03*
D15*
X801060Y1221930D02*
X794060Y1221930D01*
X794060Y1228930D01*
X801060Y1228930D01*
X801060Y1221930D01*
X801060Y1224780D02*
X794060Y1224780D01*
X794060Y1227630D02*
X801060Y1227630D01*
X801060Y1204390D02*
X794060Y1204390D01*
X794060Y1211390D01*
X801060Y1211390D01*
X801060Y1204390D01*
X801060Y1207240D02*
X794060Y1207240D01*
X794060Y1210090D02*
X801060Y1210090D01*
D14*
X864870Y1209430D03*
X864870Y1226430D03*
X955040Y1205620D03*
X955040Y1222620D03*
D13*
X912740Y1188720D03*
X895740Y1188720D03*
D14*
X866140Y1171820D03*
X866140Y1154820D03*
D13*
X895740Y1118870D03*
X912740Y1118870D03*
D16*
X911740Y1160820D03*
X911740Y1165820D03*
X896740Y1165820D03*
X896740Y1160820D03*
D17*
X911740Y1170945D03*
X906740Y1170945D03*
X901740Y1170945D03*
X896740Y1170945D03*
X896740Y1155695D03*
X901740Y1155695D03*
X906740Y1155695D03*
X911740Y1155695D03*
D11*
X1050370Y1191320D03*
X1050370Y1135320D03*
D12*
X1087120Y1178320D03*
X1087120Y1168320D03*
X1087120Y1158320D03*
X1087120Y1148320D03*
D13*
X1171820Y1140460D03*
X1154820Y1140460D03*
D11*
X1276270Y1135320D03*
X1276270Y1191320D03*
D12*
X1239520Y1148320D03*
X1239520Y1158320D03*
X1239520Y1168320D03*
X1239520Y1178320D03*
D14*
X1075690Y1208160D03*
X1075690Y1225160D03*
D15*
X1060140Y1221930D02*
X1053140Y1221930D01*
X1053140Y1228930D01*
X1060140Y1228930D01*
X1060140Y1221930D01*
X1060140Y1224780D02*
X1053140Y1224780D01*
X1053140Y1227630D02*
X1060140Y1227630D01*
X1060140Y1204390D02*
X1053140Y1204390D01*
X1053140Y1211390D01*
X1060140Y1211390D01*
X1060140Y1204390D01*
X1060140Y1207240D02*
X1053140Y1207240D01*
X1053140Y1210090D02*
X1060140Y1210090D01*
D14*
X1123950Y1209430D03*
X1123950Y1226430D03*
X1214120Y1205620D03*
X1214120Y1222620D03*
D13*
X1171820Y1188720D03*
X1154820Y1188720D03*
D14*
X1125220Y1171820D03*
X1125220Y1154820D03*
D13*
X1154820Y1118870D03*
X1171820Y1118870D03*
D16*
X1170820Y1160820D03*
X1170820Y1165820D03*
X1155820Y1165820D03*
X1155820Y1160820D03*
D17*
X1170820Y1170945D03*
X1165820Y1170945D03*
X1160820Y1170945D03*
X1155820Y1170945D03*
X1155820Y1155695D03*
X1160820Y1155695D03*
X1165820Y1155695D03*
X1170820Y1155695D03*
D11*
X1309450Y1191320D03*
X1309450Y1135320D03*
D12*
X1346200Y1178320D03*
X1346200Y1168320D03*
X1346200Y1158320D03*
X1346200Y1148320D03*
D13*
X1430900Y1140460D03*
X1413900Y1140460D03*
D11*
X1535350Y1135320D03*
X1535350Y1191320D03*
D12*
X1498600Y1148320D03*
X1498600Y1158320D03*
X1498600Y1168320D03*
X1498600Y1178320D03*
D14*
X1334770Y1208160D03*
X1334770Y1225160D03*
D15*
X1319220Y1221930D02*
X1312220Y1221930D01*
X1312220Y1228930D01*
X1319220Y1228930D01*
X1319220Y1221930D01*
X1319220Y1224780D02*
X1312220Y1224780D01*
X1312220Y1227630D02*
X1319220Y1227630D01*
X1319220Y1204390D02*
X1312220Y1204390D01*
X1312220Y1211390D01*
X1319220Y1211390D01*
X1319220Y1204390D01*
X1319220Y1207240D02*
X1312220Y1207240D01*
X1312220Y1210090D02*
X1319220Y1210090D01*
D14*
X1383030Y1209430D03*
X1383030Y1226430D03*
X1473200Y1205620D03*
X1473200Y1222620D03*
D13*
X1430900Y1188720D03*
X1413900Y1188720D03*
D14*
X1384300Y1171820D03*
X1384300Y1154820D03*
D13*
X1413900Y1118870D03*
X1430900Y1118870D03*
D16*
X1429900Y1160820D03*
X1429900Y1165820D03*
X1414900Y1165820D03*
X1414900Y1160820D03*
D17*
X1429900Y1170945D03*
X1424900Y1170945D03*
X1419900Y1170945D03*
X1414900Y1170945D03*
X1414900Y1155695D03*
X1419900Y1155695D03*
X1424900Y1155695D03*
X1429900Y1155695D03*
D11*
X1568530Y1191320D03*
X1568530Y1135320D03*
D12*
X1605280Y1178320D03*
X1605280Y1168320D03*
X1605280Y1158320D03*
X1605280Y1148320D03*
D13*
X1689980Y1140460D03*
X1672980Y1140460D03*
D11*
X1794430Y1135320D03*
X1794430Y1191320D03*
D12*
X1757680Y1148320D03*
X1757680Y1158320D03*
X1757680Y1168320D03*
X1757680Y1178320D03*
D14*
X1593850Y1208160D03*
X1593850Y1225160D03*
D15*
X1578300Y1221930D02*
X1571300Y1221930D01*
X1571300Y1228930D01*
X1578300Y1228930D01*
X1578300Y1221930D01*
X1578300Y1224780D02*
X1571300Y1224780D01*
X1571300Y1227630D02*
X1578300Y1227630D01*
X1578300Y1204390D02*
X1571300Y1204390D01*
X1571300Y1211390D01*
X1578300Y1211390D01*
X1578300Y1204390D01*
X1578300Y1207240D02*
X1571300Y1207240D01*
X1571300Y1210090D02*
X1578300Y1210090D01*
D14*
X1642110Y1209430D03*
X1642110Y1226430D03*
X1732280Y1205620D03*
X1732280Y1222620D03*
D13*
X1689980Y1188720D03*
X1672980Y1188720D03*
D14*
X1643380Y1171820D03*
X1643380Y1154820D03*
D13*
X1672980Y1118870D03*
X1689980Y1118870D03*
D16*
X1688980Y1160820D03*
X1688980Y1165820D03*
X1673980Y1165820D03*
X1673980Y1160820D03*
D17*
X1688980Y1170945D03*
X1683980Y1170945D03*
X1678980Y1170945D03*
X1673980Y1170945D03*
X1673980Y1155695D03*
X1678980Y1155695D03*
X1683980Y1155695D03*
X1688980Y1155695D03*
M02*
