G04 EAGLE Gerber RS-274X export*
G75*
%MOMM*%
%FSLAX34Y34*%
%LPD*%
%INBottom Copper*%
%IPPOS*%
%AMOC8*
5,1,8,0,0,1.08239X$1,22.5*%
G01*
%ADD10C,0.203200*%
%ADD11C,0.635000*%
%ADD12R,0.660400X1.270000*%
%ADD13C,1.879600*%
%ADD14C,0.736600*%
%ADD15C,0.609600*%

G36*
X52565Y4070D02*
X52565Y4070D01*
X52605Y4067D01*
X52723Y4090D01*
X52841Y4105D01*
X52878Y4119D01*
X52917Y4127D01*
X53026Y4178D01*
X53137Y4222D01*
X53169Y4245D01*
X53205Y4262D01*
X53297Y4338D01*
X53394Y4408D01*
X53420Y4439D01*
X53450Y4464D01*
X53521Y4561D01*
X53597Y4653D01*
X53614Y4689D01*
X53638Y4722D01*
X53682Y4833D01*
X53733Y4941D01*
X53740Y4980D01*
X53755Y5017D01*
X53770Y5136D01*
X53792Y5253D01*
X53790Y5293D01*
X53795Y5333D01*
X53780Y5452D01*
X53773Y5571D01*
X53760Y5609D01*
X53755Y5648D01*
X53712Y5760D01*
X53675Y5873D01*
X53653Y5907D01*
X53639Y5944D01*
X53553Y6080D01*
X53289Y6443D01*
X52436Y8117D01*
X51855Y9904D01*
X51815Y10161D01*
X62230Y10161D01*
X62348Y10176D01*
X62467Y10183D01*
X62505Y10196D01*
X62545Y10201D01*
X62656Y10244D01*
X62769Y10281D01*
X62803Y10303D01*
X62841Y10318D01*
X62937Y10388D01*
X63038Y10451D01*
X63066Y10481D01*
X63098Y10504D01*
X63174Y10596D01*
X63256Y10683D01*
X63275Y10718D01*
X63301Y10749D01*
X63352Y10857D01*
X63409Y10961D01*
X63420Y11001D01*
X63437Y11037D01*
X63459Y11154D01*
X63489Y11269D01*
X63493Y11330D01*
X63497Y11350D01*
X63495Y11370D01*
X63499Y11430D01*
X63499Y12701D01*
X64770Y12701D01*
X64888Y12716D01*
X65007Y12723D01*
X65045Y12736D01*
X65085Y12741D01*
X65196Y12785D01*
X65309Y12821D01*
X65344Y12843D01*
X65381Y12858D01*
X65477Y12928D01*
X65578Y12991D01*
X65606Y13021D01*
X65639Y13045D01*
X65714Y13136D01*
X65796Y13223D01*
X65816Y13258D01*
X65841Y13290D01*
X65892Y13397D01*
X65950Y13502D01*
X65960Y13541D01*
X65977Y13577D01*
X65999Y13694D01*
X66029Y13809D01*
X66033Y13870D01*
X66037Y13890D01*
X66035Y13910D01*
X66039Y13970D01*
X66039Y24385D01*
X66296Y24345D01*
X68083Y23764D01*
X69757Y22911D01*
X71278Y21806D01*
X72606Y20478D01*
X73711Y18957D01*
X74564Y17283D01*
X74715Y16818D01*
X74728Y16791D01*
X74735Y16762D01*
X74795Y16647D01*
X74850Y16530D01*
X74869Y16507D01*
X74883Y16481D01*
X74971Y16385D01*
X75053Y16285D01*
X75077Y16268D01*
X75097Y16246D01*
X75206Y16174D01*
X75310Y16098D01*
X75338Y16087D01*
X75363Y16071D01*
X75486Y16029D01*
X75606Y15981D01*
X75636Y15977D01*
X75664Y15968D01*
X75793Y15957D01*
X75921Y15941D01*
X75951Y15945D01*
X75981Y15942D01*
X76109Y15965D01*
X76237Y15981D01*
X76265Y15992D01*
X76294Y15997D01*
X76412Y16050D01*
X76533Y16098D01*
X76557Y16115D01*
X76584Y16127D01*
X76685Y16208D01*
X76790Y16284D01*
X76809Y16307D01*
X76833Y16326D01*
X76910Y16429D01*
X76993Y16529D01*
X77006Y16556D01*
X77024Y16580D01*
X77095Y16725D01*
X78348Y19750D01*
X81849Y23252D01*
X82020Y23322D01*
X82045Y23337D01*
X82073Y23346D01*
X82183Y23415D01*
X82296Y23480D01*
X82317Y23500D01*
X82342Y23516D01*
X82431Y23611D01*
X82524Y23701D01*
X82540Y23726D01*
X82560Y23748D01*
X82623Y23862D01*
X82691Y23972D01*
X82699Y24001D01*
X82714Y24026D01*
X82746Y24152D01*
X82784Y24276D01*
X82786Y24306D01*
X82793Y24334D01*
X82803Y24495D01*
X82803Y62484D01*
X82788Y62602D01*
X82781Y62721D01*
X82768Y62759D01*
X82763Y62800D01*
X82720Y62910D01*
X82683Y63023D01*
X82661Y63058D01*
X82646Y63095D01*
X82577Y63191D01*
X82513Y63292D01*
X82483Y63320D01*
X82460Y63353D01*
X82368Y63429D01*
X82281Y63510D01*
X82246Y63530D01*
X82215Y63555D01*
X82107Y63606D01*
X82003Y63664D01*
X81963Y63674D01*
X81927Y63691D01*
X81810Y63713D01*
X81695Y63743D01*
X81635Y63747D01*
X81615Y63751D01*
X81594Y63749D01*
X81534Y63753D01*
X80067Y63753D01*
X77826Y64681D01*
X64681Y77826D01*
X63753Y80067D01*
X63753Y102285D01*
X63752Y102295D01*
X63753Y102304D01*
X63732Y102453D01*
X63713Y102601D01*
X63710Y102610D01*
X63709Y102619D01*
X63657Y102771D01*
X63118Y104071D01*
X63118Y106749D01*
X63657Y108049D01*
X63659Y108058D01*
X63664Y108066D01*
X63701Y108210D01*
X63741Y108356D01*
X63741Y108365D01*
X63743Y108374D01*
X63753Y108535D01*
X63753Y128955D01*
X63752Y128965D01*
X63753Y128974D01*
X63732Y129123D01*
X63713Y129271D01*
X63710Y129280D01*
X63709Y129289D01*
X63657Y129441D01*
X63118Y130741D01*
X63118Y133419D01*
X64143Y135893D01*
X66037Y137787D01*
X68511Y138812D01*
X71189Y138812D01*
X73663Y137787D01*
X75557Y135893D01*
X76582Y133419D01*
X76582Y130741D01*
X76043Y129441D01*
X76041Y129432D01*
X76036Y129424D01*
X75999Y129279D01*
X75959Y129134D01*
X75959Y129125D01*
X75957Y129116D01*
X75947Y128955D01*
X75947Y108535D01*
X75948Y108525D01*
X75947Y108516D01*
X75968Y108367D01*
X75987Y108219D01*
X75990Y108210D01*
X75991Y108201D01*
X76043Y108049D01*
X76582Y106749D01*
X76582Y104071D01*
X76043Y102771D01*
X76041Y102762D01*
X76036Y102754D01*
X75999Y102609D01*
X75959Y102464D01*
X75959Y102455D01*
X75957Y102446D01*
X75947Y102285D01*
X75947Y84331D01*
X75959Y84233D01*
X75962Y84134D01*
X75979Y84076D01*
X75987Y84016D01*
X76023Y83923D01*
X76051Y83828D01*
X76081Y83776D01*
X76104Y83720D01*
X76162Y83640D01*
X76212Y83554D01*
X76278Y83479D01*
X76290Y83463D01*
X76300Y83455D01*
X76318Y83434D01*
X83434Y76318D01*
X83512Y76258D01*
X83584Y76190D01*
X83637Y76161D01*
X83685Y76124D01*
X83776Y76084D01*
X83862Y76036D01*
X83921Y76021D01*
X83977Y75997D01*
X84075Y75982D01*
X84170Y75957D01*
X84270Y75951D01*
X84291Y75947D01*
X84303Y75949D01*
X84331Y75947D01*
X99391Y75947D01*
X99528Y75964D01*
X99667Y75977D01*
X99686Y75984D01*
X99706Y75987D01*
X99835Y76038D01*
X99966Y76085D01*
X99983Y76096D01*
X100002Y76104D01*
X100114Y76185D01*
X100229Y76263D01*
X100243Y76279D01*
X100259Y76290D01*
X100348Y76398D01*
X100440Y76502D01*
X100449Y76520D01*
X100462Y76535D01*
X100521Y76661D01*
X100584Y76785D01*
X100589Y76805D01*
X100598Y76823D01*
X100624Y76959D01*
X100654Y77095D01*
X100654Y77116D01*
X100657Y77135D01*
X100649Y77274D01*
X100644Y77413D01*
X100639Y77433D01*
X100638Y77453D01*
X100595Y77585D01*
X100556Y77719D01*
X100546Y77736D01*
X100540Y77755D01*
X100465Y77873D01*
X100395Y77993D01*
X100376Y78014D01*
X100369Y78024D01*
X100354Y78038D01*
X100288Y78113D01*
X96265Y82136D01*
X96265Y83555D01*
X96253Y83654D01*
X96250Y83753D01*
X96233Y83811D01*
X96225Y83871D01*
X96189Y83963D01*
X96161Y84058D01*
X96131Y84110D01*
X96108Y84167D01*
X96050Y84247D01*
X96000Y84332D01*
X95934Y84408D01*
X95922Y84424D01*
X95912Y84432D01*
X95894Y84453D01*
X95415Y84931D01*
X95335Y84994D01*
X95271Y85054D01*
X95267Y85056D01*
X95254Y85068D01*
X95206Y85093D01*
X95164Y85126D01*
X95067Y85168D01*
X94974Y85218D01*
X94921Y85231D01*
X94872Y85253D01*
X94767Y85269D01*
X94665Y85295D01*
X94611Y85294D01*
X94558Y85302D01*
X94497Y85297D01*
X94494Y85297D01*
X94485Y85296D01*
X94452Y85293D01*
X94347Y85292D01*
X94263Y85275D01*
X94241Y85273D01*
X94227Y85267D01*
X94189Y85260D01*
X93552Y85089D01*
X91566Y85089D01*
X91566Y93599D01*
X91551Y93717D01*
X91544Y93836D01*
X91531Y93874D01*
X91526Y93914D01*
X91504Y93970D01*
X91526Y94085D01*
X91556Y94201D01*
X91560Y94261D01*
X91564Y94281D01*
X91562Y94301D01*
X91566Y94361D01*
X91566Y102871D01*
X93552Y102871D01*
X94189Y102700D01*
X94294Y102686D01*
X94397Y102663D01*
X94451Y102664D01*
X94504Y102657D01*
X94609Y102669D01*
X94715Y102672D01*
X94767Y102687D01*
X94820Y102693D01*
X94919Y102731D01*
X95020Y102761D01*
X95067Y102788D01*
X95117Y102807D01*
X95203Y102869D01*
X95294Y102922D01*
X95358Y102979D01*
X95376Y102991D01*
X95386Y103003D01*
X95415Y103029D01*
X95478Y103092D01*
X95496Y103115D01*
X95519Y103134D01*
X95593Y103240D01*
X95673Y103343D01*
X95685Y103370D01*
X95702Y103394D01*
X95748Y103515D01*
X95799Y103635D01*
X95804Y103664D01*
X95814Y103691D01*
X95829Y103820D01*
X95849Y103949D01*
X95846Y103978D01*
X95850Y104007D01*
X95831Y104136D01*
X95819Y104265D01*
X95809Y104293D01*
X95805Y104322D01*
X95753Y104475D01*
X94868Y106611D01*
X94868Y109289D01*
X95893Y111763D01*
X97787Y113657D01*
X100261Y114682D01*
X102939Y114682D01*
X103805Y114323D01*
X103873Y114305D01*
X103937Y114277D01*
X104026Y114263D01*
X104112Y114239D01*
X104182Y114238D01*
X104251Y114227D01*
X104340Y114235D01*
X104430Y114234D01*
X104498Y114250D01*
X104567Y114257D01*
X104652Y114287D01*
X104739Y114308D01*
X104801Y114341D01*
X104867Y114364D01*
X104941Y114415D01*
X105020Y114457D01*
X105072Y114504D01*
X105130Y114543D01*
X105189Y114610D01*
X105256Y114671D01*
X105294Y114729D01*
X105340Y114781D01*
X105381Y114861D01*
X105431Y114936D01*
X105453Y115002D01*
X105485Y115065D01*
X105505Y115152D01*
X105534Y115237D01*
X105539Y115307D01*
X105555Y115375D01*
X105552Y115465D01*
X105559Y115554D01*
X105547Y115623D01*
X105545Y115693D01*
X105520Y115779D01*
X105505Y115868D01*
X105476Y115931D01*
X105457Y115998D01*
X105411Y116076D01*
X105374Y116158D01*
X105330Y116212D01*
X105295Y116272D01*
X105189Y116393D01*
X101685Y119897D01*
X101607Y119957D01*
X101535Y120025D01*
X101482Y120054D01*
X101434Y120091D01*
X101343Y120131D01*
X101256Y120179D01*
X101198Y120194D01*
X101142Y120218D01*
X101044Y120233D01*
X100948Y120258D01*
X100848Y120264D01*
X100828Y120268D01*
X100816Y120266D01*
X100788Y120268D01*
X98991Y120268D01*
X96517Y121293D01*
X94623Y123187D01*
X93598Y125661D01*
X93598Y128339D01*
X94623Y130813D01*
X96517Y132707D01*
X98991Y133732D01*
X99949Y133732D01*
X100067Y133747D01*
X100186Y133754D01*
X100224Y133767D01*
X100265Y133772D01*
X100375Y133815D01*
X100488Y133852D01*
X100523Y133874D01*
X100560Y133889D01*
X100656Y133958D01*
X100757Y134022D01*
X100785Y134052D01*
X100818Y134075D01*
X100894Y134167D01*
X100975Y134254D01*
X100995Y134289D01*
X101020Y134320D01*
X101071Y134428D01*
X101129Y134532D01*
X101139Y134572D01*
X101156Y134608D01*
X101178Y134725D01*
X101208Y134840D01*
X101212Y134900D01*
X101216Y134920D01*
X101214Y134941D01*
X101218Y135001D01*
X101218Y135959D01*
X102243Y138433D01*
X104137Y140327D01*
X106611Y141352D01*
X109289Y141352D01*
X111763Y140327D01*
X113657Y138433D01*
X114682Y135959D01*
X114682Y134162D01*
X114694Y134064D01*
X114697Y133965D01*
X114714Y133907D01*
X114722Y133847D01*
X114758Y133755D01*
X114786Y133660D01*
X114816Y133608D01*
X114839Y133551D01*
X114897Y133471D01*
X114947Y133386D01*
X115013Y133310D01*
X115025Y133294D01*
X115035Y133286D01*
X115053Y133265D01*
X139742Y108576D01*
X139820Y108516D01*
X139892Y108448D01*
X139945Y108419D01*
X139993Y108382D01*
X140084Y108342D01*
X140171Y108294D01*
X140229Y108279D01*
X140285Y108255D01*
X140383Y108240D01*
X140479Y108215D01*
X140579Y108209D01*
X140599Y108205D01*
X140611Y108207D01*
X140639Y108205D01*
X157849Y108205D01*
X157947Y108217D01*
X158046Y108220D01*
X158104Y108237D01*
X158164Y108245D01*
X158256Y108281D01*
X158352Y108309D01*
X158404Y108339D01*
X158460Y108362D01*
X158540Y108420D01*
X158626Y108470D01*
X158701Y108536D01*
X158717Y108548D01*
X158725Y108558D01*
X158746Y108576D01*
X160017Y109847D01*
X162491Y110872D01*
X165169Y110872D01*
X167643Y109847D01*
X169537Y107953D01*
X170562Y105479D01*
X170562Y104444D01*
X170579Y104307D01*
X170592Y104168D01*
X170599Y104149D01*
X170602Y104129D01*
X170653Y104000D01*
X170700Y103869D01*
X170711Y103852D01*
X170719Y103833D01*
X170800Y103721D01*
X170878Y103606D01*
X170894Y103592D01*
X170905Y103576D01*
X171013Y103487D01*
X171117Y103395D01*
X171135Y103386D01*
X171150Y103373D01*
X171276Y103314D01*
X171400Y103251D01*
X171420Y103246D01*
X171438Y103237D01*
X171574Y103211D01*
X171710Y103181D01*
X171731Y103181D01*
X171750Y103178D01*
X171889Y103186D01*
X172028Y103191D01*
X172048Y103196D01*
X172068Y103197D01*
X172200Y103240D01*
X172334Y103279D01*
X172351Y103289D01*
X172370Y103295D01*
X172488Y103370D01*
X172608Y103440D01*
X172629Y103459D01*
X172639Y103466D01*
X172653Y103481D01*
X172728Y103547D01*
X179634Y110452D01*
X179694Y110530D01*
X179762Y110602D01*
X179791Y110655D01*
X179828Y110703D01*
X179868Y110794D01*
X179916Y110881D01*
X179931Y110939D01*
X179955Y110995D01*
X179970Y111093D01*
X179995Y111189D01*
X180001Y111289D01*
X180005Y111309D01*
X180003Y111321D01*
X180005Y111349D01*
X180005Y126019D01*
X179993Y126117D01*
X179990Y126216D01*
X179973Y126274D01*
X179965Y126334D01*
X179929Y126426D01*
X179901Y126522D01*
X179871Y126574D01*
X179848Y126630D01*
X179790Y126710D01*
X179740Y126796D01*
X179674Y126871D01*
X179662Y126887D01*
X179652Y126895D01*
X179634Y126916D01*
X178363Y128187D01*
X177338Y130661D01*
X177338Y133339D01*
X178363Y135813D01*
X180382Y137832D01*
X180400Y137855D01*
X180422Y137874D01*
X180497Y137980D01*
X180576Y138083D01*
X180588Y138110D01*
X180605Y138134D01*
X180651Y138255D01*
X180703Y138375D01*
X180707Y138404D01*
X180718Y138432D01*
X180732Y138561D01*
X180753Y138689D01*
X180750Y138718D01*
X180753Y138748D01*
X180735Y138876D01*
X180723Y139005D01*
X180713Y139033D01*
X180709Y139063D01*
X180657Y139215D01*
X179958Y140901D01*
X179958Y143579D01*
X180983Y146053D01*
X182877Y147947D01*
X185351Y148972D01*
X188029Y148972D01*
X190503Y147947D01*
X192397Y146053D01*
X193422Y143579D01*
X193422Y140901D01*
X192767Y139320D01*
X192759Y139291D01*
X192746Y139265D01*
X192717Y139138D01*
X192683Y139013D01*
X192682Y138983D01*
X192676Y138955D01*
X192680Y138825D01*
X192678Y138695D01*
X192685Y138666D01*
X192686Y138637D01*
X192722Y138512D01*
X192752Y138386D01*
X192766Y138359D01*
X192774Y138331D01*
X192840Y138219D01*
X192901Y138105D01*
X192920Y138083D01*
X192935Y138057D01*
X193042Y137936D01*
X194612Y136367D01*
X194612Y106313D01*
X170594Y82295D01*
X169811Y82295D01*
X169713Y82283D01*
X169614Y82280D01*
X169556Y82263D01*
X169496Y82255D01*
X169404Y82219D01*
X169308Y82191D01*
X169256Y82161D01*
X169200Y82138D01*
X169120Y82080D01*
X169034Y82030D01*
X168959Y81964D01*
X168943Y81952D01*
X168935Y81942D01*
X168914Y81924D01*
X167643Y80653D01*
X165169Y79628D01*
X162491Y79628D01*
X160017Y80653D01*
X158746Y81924D01*
X158668Y81984D01*
X158596Y82052D01*
X158543Y82081D01*
X158495Y82118D01*
X158404Y82158D01*
X158317Y82206D01*
X158259Y82221D01*
X158203Y82245D01*
X158105Y82260D01*
X158010Y82285D01*
X157910Y82291D01*
X157889Y82295D01*
X157877Y82293D01*
X157849Y82295D01*
X155117Y82295D01*
X154980Y82278D01*
X154841Y82265D01*
X154822Y82258D01*
X154802Y82255D01*
X154673Y82204D01*
X154542Y82157D01*
X154525Y82146D01*
X154506Y82138D01*
X154394Y82057D01*
X154279Y81979D01*
X154265Y81963D01*
X154249Y81952D01*
X154160Y81844D01*
X154068Y81740D01*
X154059Y81722D01*
X154046Y81707D01*
X153987Y81581D01*
X153924Y81457D01*
X153919Y81437D01*
X153910Y81419D01*
X153884Y81283D01*
X153854Y81147D01*
X153854Y81126D01*
X153851Y81107D01*
X153859Y80968D01*
X153864Y80829D01*
X153869Y80809D01*
X153870Y80789D01*
X153913Y80657D01*
X153952Y80523D01*
X153962Y80506D01*
X153968Y80487D01*
X154043Y80369D01*
X154113Y80249D01*
X154132Y80228D01*
X154139Y80218D01*
X154154Y80204D01*
X154220Y80129D01*
X169165Y65184D01*
X169165Y25337D01*
X169168Y25307D01*
X169166Y25278D01*
X169188Y25150D01*
X169205Y25021D01*
X169215Y24994D01*
X169220Y24965D01*
X169274Y24846D01*
X169322Y24725D01*
X169339Y24702D01*
X169351Y24675D01*
X169432Y24573D01*
X169508Y24468D01*
X169531Y24449D01*
X169550Y24426D01*
X169653Y24348D01*
X169753Y24265D01*
X169780Y24253D01*
X169804Y24235D01*
X169948Y24164D01*
X172150Y23252D01*
X175652Y19751D01*
X176627Y17395D01*
X176696Y17274D01*
X176761Y17152D01*
X176775Y17137D01*
X176785Y17119D01*
X176882Y17019D01*
X176975Y16916D01*
X176992Y16905D01*
X177006Y16891D01*
X177124Y16818D01*
X177241Y16742D01*
X177260Y16735D01*
X177277Y16724D01*
X177410Y16684D01*
X177542Y16638D01*
X177562Y16637D01*
X177581Y16631D01*
X177720Y16624D01*
X177859Y16613D01*
X177879Y16617D01*
X177899Y16616D01*
X178035Y16644D01*
X178172Y16668D01*
X178191Y16676D01*
X178210Y16680D01*
X178335Y16741D01*
X178462Y16798D01*
X178478Y16811D01*
X178496Y16820D01*
X178602Y16910D01*
X178710Y16997D01*
X178723Y17013D01*
X178738Y17026D01*
X178818Y17140D01*
X178902Y17251D01*
X178914Y17276D01*
X178921Y17286D01*
X178928Y17305D01*
X178973Y17395D01*
X179948Y19750D01*
X183450Y23252D01*
X188024Y25147D01*
X192976Y25147D01*
X197550Y23252D01*
X201052Y19750D01*
X202947Y15176D01*
X202947Y10224D01*
X201122Y5820D01*
X201109Y5772D01*
X201088Y5727D01*
X201067Y5619D01*
X201038Y5513D01*
X201038Y5463D01*
X201028Y5414D01*
X201035Y5305D01*
X201033Y5195D01*
X201045Y5147D01*
X201048Y5097D01*
X201082Y4993D01*
X201107Y4886D01*
X201131Y4842D01*
X201146Y4795D01*
X201205Y4702D01*
X201256Y4605D01*
X201290Y4568D01*
X201316Y4526D01*
X201396Y4451D01*
X201470Y4369D01*
X201512Y4342D01*
X201548Y4308D01*
X201644Y4255D01*
X201736Y4195D01*
X201783Y4178D01*
X201826Y4154D01*
X201933Y4127D01*
X202037Y4091D01*
X202086Y4087D01*
X202134Y4075D01*
X202295Y4065D01*
X215369Y4065D01*
X215405Y4069D01*
X215440Y4067D01*
X215562Y4089D01*
X215685Y4105D01*
X215718Y4118D01*
X215753Y4124D01*
X215865Y4176D01*
X215981Y4222D01*
X216009Y4242D01*
X216041Y4257D01*
X216138Y4336D01*
X216238Y4408D01*
X216261Y4436D01*
X216288Y4458D01*
X216361Y4558D01*
X216441Y4653D01*
X216456Y4685D01*
X216477Y4714D01*
X216523Y4829D01*
X216576Y4941D01*
X216583Y4976D01*
X216596Y5009D01*
X216613Y5132D01*
X216636Y5253D01*
X216634Y5289D01*
X216639Y5324D01*
X216624Y5447D01*
X216616Y5571D01*
X216605Y5605D01*
X216601Y5640D01*
X216556Y5756D01*
X216518Y5873D01*
X216499Y5903D01*
X216487Y5936D01*
X216414Y6037D01*
X216348Y6142D01*
X216322Y6166D01*
X216302Y6195D01*
X216185Y6306D01*
X211015Y10644D01*
X207029Y17549D01*
X205645Y25400D01*
X207029Y33251D01*
X211015Y40155D01*
X217122Y45280D01*
X224614Y48007D01*
X232586Y48007D01*
X240078Y45280D01*
X246185Y40156D01*
X247567Y37762D01*
X247655Y37646D01*
X247740Y37528D01*
X247751Y37519D01*
X247759Y37509D01*
X247873Y37418D01*
X247985Y37325D01*
X247998Y37319D01*
X248008Y37311D01*
X248142Y37251D01*
X248273Y37190D01*
X248286Y37187D01*
X248299Y37182D01*
X248443Y37157D01*
X248586Y37130D01*
X248599Y37131D01*
X248612Y37128D01*
X248758Y37141D01*
X248903Y37150D01*
X248916Y37154D01*
X248929Y37155D01*
X249067Y37203D01*
X249205Y37248D01*
X249217Y37255D01*
X249230Y37259D01*
X249351Y37340D01*
X249474Y37418D01*
X249483Y37428D01*
X249495Y37435D01*
X249592Y37543D01*
X249692Y37649D01*
X249699Y37661D01*
X249708Y37671D01*
X249775Y37801D01*
X249846Y37928D01*
X249849Y37941D01*
X249855Y37953D01*
X249889Y38095D01*
X249925Y38236D01*
X249926Y38254D01*
X249928Y38263D01*
X249928Y38280D01*
X249935Y38397D01*
X249935Y61703D01*
X249927Y61772D01*
X249928Y61842D01*
X249907Y61930D01*
X249895Y62019D01*
X249870Y62084D01*
X249853Y62151D01*
X249811Y62231D01*
X249778Y62314D01*
X249737Y62371D01*
X249705Y62432D01*
X249644Y62499D01*
X249592Y62572D01*
X249538Y62616D01*
X249491Y62668D01*
X249416Y62717D01*
X249347Y62774D01*
X249283Y62804D01*
X249225Y62843D01*
X249140Y62872D01*
X249059Y62910D01*
X248990Y62923D01*
X248924Y62946D01*
X248835Y62953D01*
X248747Y62970D01*
X248677Y62965D01*
X248607Y62971D01*
X248519Y62956D01*
X248429Y62950D01*
X248363Y62929D01*
X248294Y62917D01*
X248212Y62880D01*
X248127Y62852D01*
X248068Y62815D01*
X248004Y62786D01*
X247934Y62730D01*
X247858Y62682D01*
X247810Y62631D01*
X247756Y62587D01*
X247701Y62516D01*
X247640Y62450D01*
X247606Y62389D01*
X247564Y62333D01*
X247493Y62189D01*
X246576Y59975D01*
X244825Y58224D01*
X242538Y57276D01*
X240062Y57276D01*
X237775Y58224D01*
X236024Y59975D01*
X235076Y62262D01*
X235076Y64738D01*
X236024Y67025D01*
X237775Y68776D01*
X240062Y69724D01*
X242538Y69724D01*
X244825Y68776D01*
X246576Y67025D01*
X247493Y64811D01*
X247528Y64751D01*
X247554Y64686D01*
X247606Y64613D01*
X247651Y64535D01*
X247699Y64485D01*
X247740Y64428D01*
X247810Y64371D01*
X247872Y64307D01*
X247932Y64270D01*
X247985Y64226D01*
X248067Y64187D01*
X248143Y64140D01*
X248210Y64120D01*
X248273Y64090D01*
X248361Y64073D01*
X248447Y64047D01*
X248517Y64043D01*
X248586Y64030D01*
X248675Y64036D01*
X248765Y64032D01*
X248833Y64046D01*
X248903Y64050D01*
X248988Y64078D01*
X249076Y64096D01*
X249139Y64127D01*
X249205Y64148D01*
X249281Y64196D01*
X249362Y64236D01*
X249415Y64281D01*
X249474Y64318D01*
X249536Y64384D01*
X249604Y64442D01*
X249644Y64499D01*
X249692Y64550D01*
X249735Y64628D01*
X249787Y64702D01*
X249812Y64767D01*
X249846Y64828D01*
X249868Y64915D01*
X249900Y64999D01*
X249908Y65069D01*
X249925Y65136D01*
X249935Y65297D01*
X249935Y215603D01*
X249917Y215748D01*
X249902Y215893D01*
X249897Y215906D01*
X249895Y215919D01*
X249842Y216054D01*
X249791Y216191D01*
X249783Y216202D01*
X249778Y216215D01*
X249693Y216332D01*
X249610Y216452D01*
X249599Y216461D01*
X249592Y216472D01*
X249480Y216565D01*
X249369Y216660D01*
X249357Y216666D01*
X249347Y216675D01*
X249215Y216737D01*
X249084Y216802D01*
X249071Y216805D01*
X249059Y216810D01*
X248917Y216838D01*
X248773Y216868D01*
X248760Y216868D01*
X248747Y216870D01*
X248602Y216861D01*
X248456Y216855D01*
X248442Y216851D01*
X248429Y216850D01*
X248291Y216806D01*
X248151Y216763D01*
X248139Y216756D01*
X248127Y216752D01*
X248004Y216675D01*
X247879Y216599D01*
X247869Y216589D01*
X247858Y216582D01*
X247758Y216476D01*
X247656Y216372D01*
X247646Y216357D01*
X247640Y216351D01*
X247632Y216336D01*
X247567Y216238D01*
X246185Y213845D01*
X240078Y208720D01*
X232586Y205993D01*
X224614Y205993D01*
X217122Y208720D01*
X211015Y213844D01*
X207029Y220749D01*
X205645Y228600D01*
X207029Y236451D01*
X211015Y243355D01*
X216185Y247694D01*
X216209Y247720D01*
X216238Y247740D01*
X216317Y247836D01*
X216401Y247927D01*
X216418Y247958D01*
X216441Y247985D01*
X216494Y248098D01*
X216553Y248207D01*
X216561Y248241D01*
X216576Y248273D01*
X216599Y248395D01*
X216630Y248515D01*
X216629Y248551D01*
X216636Y248586D01*
X216628Y248709D01*
X216627Y248833D01*
X216618Y248868D01*
X216616Y248903D01*
X216578Y249021D01*
X216546Y249141D01*
X216529Y249172D01*
X216518Y249205D01*
X216452Y249310D01*
X216391Y249419D01*
X216367Y249444D01*
X216348Y249474D01*
X216258Y249559D01*
X216172Y249649D01*
X216142Y249668D01*
X216116Y249692D01*
X216008Y249752D01*
X215903Y249818D01*
X215869Y249829D01*
X215838Y249846D01*
X215718Y249877D01*
X215600Y249914D01*
X215564Y249916D01*
X215530Y249925D01*
X215369Y249935D01*
X164195Y249935D01*
X164146Y249929D01*
X164096Y249931D01*
X163989Y249909D01*
X163879Y249895D01*
X163833Y249877D01*
X163785Y249867D01*
X163686Y249819D01*
X163584Y249778D01*
X163544Y249749D01*
X163499Y249727D01*
X163415Y249656D01*
X163326Y249592D01*
X163295Y249553D01*
X163257Y249521D01*
X163194Y249431D01*
X163124Y249347D01*
X163102Y249302D01*
X163074Y249261D01*
X163035Y249158D01*
X162988Y249059D01*
X162979Y249010D01*
X162961Y248964D01*
X162949Y248854D01*
X162928Y248747D01*
X162931Y248697D01*
X162926Y248648D01*
X162941Y248539D01*
X162948Y248429D01*
X162963Y248382D01*
X162970Y248333D01*
X163022Y248180D01*
X164847Y243776D01*
X164847Y238824D01*
X162952Y234250D01*
X159450Y230748D01*
X154876Y228853D01*
X149924Y228853D01*
X145350Y230748D01*
X141848Y234250D01*
X140873Y236605D01*
X140804Y236725D01*
X140739Y236848D01*
X140725Y236863D01*
X140715Y236881D01*
X140618Y236981D01*
X140525Y237084D01*
X140508Y237095D01*
X140494Y237109D01*
X140376Y237182D01*
X140259Y237258D01*
X140240Y237265D01*
X140223Y237276D01*
X140090Y237316D01*
X139958Y237362D01*
X139938Y237363D01*
X139919Y237369D01*
X139780Y237376D01*
X139641Y237387D01*
X139621Y237383D01*
X139601Y237384D01*
X139465Y237356D01*
X139328Y237332D01*
X139309Y237324D01*
X139290Y237320D01*
X139165Y237259D01*
X139038Y237202D01*
X139022Y237189D01*
X139004Y237180D01*
X138898Y237090D01*
X138790Y237003D01*
X138777Y236987D01*
X138762Y236974D01*
X138682Y236860D01*
X138598Y236749D01*
X138586Y236724D01*
X138579Y236714D01*
X138572Y236695D01*
X138527Y236605D01*
X137552Y234250D01*
X134050Y230748D01*
X129476Y228853D01*
X124524Y228853D01*
X119950Y230748D01*
X116448Y234250D01*
X115473Y236605D01*
X115404Y236725D01*
X115339Y236848D01*
X115325Y236863D01*
X115315Y236881D01*
X115218Y236981D01*
X115125Y237084D01*
X115108Y237095D01*
X115094Y237109D01*
X114976Y237182D01*
X114859Y237258D01*
X114840Y237265D01*
X114823Y237276D01*
X114690Y237316D01*
X114558Y237362D01*
X114538Y237363D01*
X114519Y237369D01*
X114380Y237376D01*
X114241Y237387D01*
X114221Y237383D01*
X114201Y237384D01*
X114065Y237356D01*
X113928Y237332D01*
X113909Y237324D01*
X113890Y237320D01*
X113765Y237259D01*
X113638Y237202D01*
X113622Y237189D01*
X113604Y237180D01*
X113498Y237090D01*
X113390Y237003D01*
X113377Y236987D01*
X113362Y236974D01*
X113282Y236860D01*
X113198Y236749D01*
X113186Y236724D01*
X113179Y236714D01*
X113172Y236695D01*
X113127Y236605D01*
X112152Y234250D01*
X108650Y230748D01*
X104076Y228853D01*
X99124Y228853D01*
X94550Y230748D01*
X91048Y234250D01*
X89153Y238824D01*
X89153Y243776D01*
X90978Y248180D01*
X90991Y248228D01*
X91012Y248273D01*
X91033Y248381D01*
X91062Y248487D01*
X91062Y248537D01*
X91072Y248586D01*
X91065Y248695D01*
X91067Y248805D01*
X91055Y248853D01*
X91052Y248903D01*
X91018Y249007D01*
X90993Y249114D01*
X90969Y249158D01*
X90954Y249205D01*
X90895Y249298D01*
X90844Y249395D01*
X90810Y249432D01*
X90784Y249474D01*
X90704Y249549D01*
X90630Y249631D01*
X90588Y249658D01*
X90552Y249692D01*
X90456Y249745D01*
X90364Y249805D01*
X90317Y249822D01*
X90274Y249846D01*
X90167Y249873D01*
X90063Y249909D01*
X90014Y249913D01*
X89966Y249925D01*
X89805Y249935D01*
X65297Y249935D01*
X65228Y249927D01*
X65158Y249928D01*
X65070Y249907D01*
X64981Y249895D01*
X64916Y249870D01*
X64849Y249853D01*
X64769Y249811D01*
X64686Y249778D01*
X64629Y249737D01*
X64568Y249705D01*
X64501Y249644D01*
X64428Y249592D01*
X64384Y249538D01*
X64332Y249491D01*
X64283Y249416D01*
X64226Y249347D01*
X64196Y249283D01*
X64157Y249225D01*
X64128Y249140D01*
X64090Y249059D01*
X64077Y248990D01*
X64054Y248924D01*
X64047Y248835D01*
X64030Y248747D01*
X64035Y248677D01*
X64029Y248607D01*
X64044Y248519D01*
X64050Y248429D01*
X64071Y248363D01*
X64083Y248294D01*
X64120Y248212D01*
X64148Y248127D01*
X64185Y248068D01*
X64214Y248004D01*
X64270Y247934D01*
X64318Y247858D01*
X64369Y247810D01*
X64413Y247756D01*
X64484Y247701D01*
X64550Y247640D01*
X64611Y247606D01*
X64667Y247564D01*
X64811Y247493D01*
X67025Y246576D01*
X68776Y244825D01*
X69724Y242538D01*
X69724Y240062D01*
X68776Y237775D01*
X67025Y236024D01*
X64738Y235076D01*
X62262Y235076D01*
X59975Y236024D01*
X58224Y237775D01*
X57276Y240062D01*
X57276Y242538D01*
X58224Y244825D01*
X59975Y246576D01*
X62189Y247493D01*
X62249Y247528D01*
X62314Y247554D01*
X62387Y247606D01*
X62465Y247651D01*
X62515Y247699D01*
X62572Y247740D01*
X62629Y247810D01*
X62693Y247872D01*
X62730Y247932D01*
X62774Y247985D01*
X62813Y248067D01*
X62860Y248143D01*
X62880Y248210D01*
X62910Y248273D01*
X62927Y248361D01*
X62953Y248447D01*
X62957Y248517D01*
X62970Y248586D01*
X62964Y248675D01*
X62968Y248765D01*
X62954Y248833D01*
X62950Y248903D01*
X62922Y248988D01*
X62904Y249076D01*
X62873Y249139D01*
X62852Y249205D01*
X62804Y249281D01*
X62764Y249362D01*
X62719Y249415D01*
X62682Y249474D01*
X62616Y249536D01*
X62558Y249604D01*
X62501Y249644D01*
X62450Y249692D01*
X62372Y249735D01*
X62298Y249787D01*
X62233Y249812D01*
X62172Y249846D01*
X62085Y249868D01*
X62001Y249900D01*
X61931Y249908D01*
X61864Y249925D01*
X61703Y249935D01*
X38631Y249935D01*
X38595Y249931D01*
X38560Y249933D01*
X38438Y249911D01*
X38315Y249895D01*
X38282Y249882D01*
X38247Y249876D01*
X38135Y249824D01*
X38019Y249778D01*
X37991Y249758D01*
X37959Y249743D01*
X37862Y249664D01*
X37762Y249592D01*
X37739Y249564D01*
X37712Y249542D01*
X37639Y249442D01*
X37559Y249347D01*
X37544Y249315D01*
X37523Y249286D01*
X37477Y249171D01*
X37424Y249059D01*
X37417Y249024D01*
X37404Y248991D01*
X37387Y248868D01*
X37364Y248747D01*
X37366Y248711D01*
X37361Y248676D01*
X37376Y248553D01*
X37384Y248429D01*
X37395Y248395D01*
X37399Y248360D01*
X37444Y248244D01*
X37482Y248127D01*
X37501Y248097D01*
X37513Y248064D01*
X37586Y247963D01*
X37652Y247858D01*
X37678Y247834D01*
X37698Y247805D01*
X37815Y247694D01*
X42985Y243356D01*
X46971Y236451D01*
X48355Y228600D01*
X46971Y220749D01*
X42985Y213845D01*
X36878Y208720D01*
X29386Y205993D01*
X21414Y205993D01*
X13922Y208720D01*
X7815Y213844D01*
X6433Y216238D01*
X6345Y216354D01*
X6260Y216472D01*
X6249Y216481D01*
X6241Y216491D01*
X6127Y216582D01*
X6015Y216675D01*
X6002Y216681D01*
X5992Y216689D01*
X5858Y216749D01*
X5727Y216810D01*
X5714Y216813D01*
X5701Y216818D01*
X5557Y216843D01*
X5414Y216870D01*
X5401Y216869D01*
X5388Y216872D01*
X5242Y216859D01*
X5097Y216850D01*
X5084Y216846D01*
X5071Y216845D01*
X4933Y216797D01*
X4795Y216752D01*
X4783Y216745D01*
X4770Y216741D01*
X4649Y216660D01*
X4526Y216582D01*
X4517Y216572D01*
X4505Y216565D01*
X4408Y216457D01*
X4308Y216351D01*
X4301Y216339D01*
X4292Y216329D01*
X4225Y216199D01*
X4154Y216072D01*
X4151Y216059D01*
X4145Y216047D01*
X4111Y215905D01*
X4075Y215764D01*
X4074Y215746D01*
X4072Y215737D01*
X4072Y215720D01*
X4065Y215603D01*
X4065Y147585D01*
X4080Y147467D01*
X4087Y147348D01*
X4100Y147310D01*
X4105Y147269D01*
X4148Y147159D01*
X4185Y147046D01*
X4207Y147011D01*
X4222Y146974D01*
X4291Y146878D01*
X4355Y146777D01*
X4385Y146749D01*
X4408Y146716D01*
X4500Y146641D01*
X4587Y146559D01*
X4622Y146539D01*
X4653Y146514D01*
X4761Y146463D01*
X4865Y146405D01*
X4905Y146395D01*
X4941Y146378D01*
X5058Y146356D01*
X5173Y146326D01*
X5233Y146322D01*
X5253Y146318D01*
X5274Y146320D01*
X5334Y146316D01*
X9050Y146316D01*
X11444Y143922D01*
X11446Y143908D01*
X11453Y143789D01*
X11466Y143751D01*
X11471Y143710D01*
X11514Y143600D01*
X11551Y143487D01*
X11573Y143452D01*
X11588Y143415D01*
X11657Y143319D01*
X11721Y143218D01*
X11751Y143190D01*
X11774Y143157D01*
X11866Y143081D01*
X11953Y143000D01*
X11988Y142980D01*
X12019Y142955D01*
X12127Y142904D01*
X12231Y142846D01*
X12271Y142836D01*
X12307Y142819D01*
X12424Y142797D01*
X12539Y142767D01*
X12599Y142763D01*
X12619Y142759D01*
X12640Y142761D01*
X12700Y142757D01*
X19727Y142757D01*
X20894Y141589D01*
X20895Y141589D01*
X22108Y140376D01*
X22108Y137008D01*
X20284Y135185D01*
X19732Y134632D01*
X19659Y134538D01*
X19580Y134449D01*
X19562Y134413D01*
X19537Y134381D01*
X19490Y134272D01*
X19435Y134166D01*
X19427Y134126D01*
X19411Y134089D01*
X19392Y133971D01*
X19366Y133855D01*
X19367Y133815D01*
X19361Y133775D01*
X19372Y133657D01*
X19375Y133538D01*
X19387Y133499D01*
X19391Y133458D01*
X19431Y133347D01*
X19464Y133232D01*
X19484Y133197D01*
X19498Y133159D01*
X19565Y133061D01*
X19625Y132958D01*
X19665Y132913D01*
X19677Y132896D01*
X19692Y132882D01*
X19732Y132837D01*
X22108Y130461D01*
X22108Y127428D01*
X22108Y127021D01*
X22108Y126569D01*
X22108Y126568D01*
X22108Y123535D01*
X19355Y120782D01*
X19145Y120572D01*
X19099Y120513D01*
X19046Y120461D01*
X19002Y120388D01*
X18950Y120320D01*
X18920Y120252D01*
X18882Y120188D01*
X18857Y120107D01*
X18823Y120029D01*
X18812Y119955D01*
X18790Y119884D01*
X18787Y119799D01*
X18774Y119715D01*
X18780Y119640D01*
X18777Y119566D01*
X18795Y119482D01*
X18803Y119398D01*
X18828Y119328D01*
X18844Y119255D01*
X18875Y119182D01*
X17716Y115705D01*
X17714Y115696D01*
X17711Y115688D01*
X17684Y115542D01*
X17654Y115393D01*
X17655Y115384D01*
X17653Y115376D01*
X17663Y115226D01*
X17672Y115076D01*
X17674Y115067D01*
X17675Y115058D01*
X17716Y114903D01*
X18873Y111433D01*
X17367Y108421D01*
X14172Y107356D01*
X5902Y111492D01*
X5812Y111523D01*
X5727Y111563D01*
X5663Y111576D01*
X5602Y111597D01*
X5507Y111605D01*
X5414Y111623D01*
X5350Y111619D01*
X5285Y111625D01*
X5191Y111609D01*
X5097Y111603D01*
X5035Y111583D01*
X4971Y111573D01*
X4884Y111535D01*
X4795Y111505D01*
X4740Y111471D01*
X4680Y111444D01*
X4606Y111386D01*
X4526Y111335D01*
X4481Y111288D01*
X4430Y111248D01*
X4373Y111173D01*
X4308Y111104D01*
X4277Y111047D01*
X4237Y110995D01*
X4200Y110908D01*
X4154Y110825D01*
X4138Y110762D01*
X4113Y110702D01*
X4099Y110609D01*
X4075Y110517D01*
X4068Y110406D01*
X4065Y110388D01*
X4066Y110378D01*
X4065Y110357D01*
X4065Y38397D01*
X4083Y38252D01*
X4098Y38107D01*
X4103Y38094D01*
X4105Y38081D01*
X4158Y37946D01*
X4209Y37809D01*
X4217Y37798D01*
X4222Y37785D01*
X4307Y37668D01*
X4390Y37548D01*
X4401Y37539D01*
X4408Y37528D01*
X4521Y37435D01*
X4631Y37340D01*
X4643Y37334D01*
X4653Y37325D01*
X4785Y37263D01*
X4916Y37198D01*
X4929Y37195D01*
X4941Y37190D01*
X5083Y37162D01*
X5227Y37132D01*
X5240Y37132D01*
X5253Y37130D01*
X5398Y37139D01*
X5544Y37145D01*
X5558Y37149D01*
X5571Y37150D01*
X5709Y37194D01*
X5849Y37237D01*
X5861Y37244D01*
X5873Y37248D01*
X5996Y37325D01*
X6121Y37401D01*
X6131Y37411D01*
X6142Y37418D01*
X6242Y37524D01*
X6344Y37628D01*
X6354Y37643D01*
X6360Y37649D01*
X6368Y37664D01*
X6433Y37762D01*
X7815Y40155D01*
X13922Y45280D01*
X21414Y48007D01*
X29386Y48007D01*
X36878Y45280D01*
X42985Y40156D01*
X46971Y33251D01*
X48355Y25400D01*
X46971Y17549D01*
X42985Y10645D01*
X37815Y6306D01*
X37791Y6280D01*
X37762Y6260D01*
X37683Y6164D01*
X37599Y6073D01*
X37582Y6042D01*
X37559Y6015D01*
X37506Y5902D01*
X37447Y5793D01*
X37439Y5759D01*
X37424Y5727D01*
X37401Y5605D01*
X37370Y5485D01*
X37371Y5449D01*
X37364Y5414D01*
X37372Y5291D01*
X37373Y5167D01*
X37382Y5132D01*
X37384Y5097D01*
X37422Y4979D01*
X37454Y4859D01*
X37471Y4828D01*
X37482Y4795D01*
X37548Y4690D01*
X37609Y4581D01*
X37633Y4556D01*
X37652Y4526D01*
X37742Y4441D01*
X37828Y4351D01*
X37858Y4332D01*
X37884Y4308D01*
X37992Y4248D01*
X38097Y4182D01*
X38131Y4171D01*
X38162Y4154D01*
X38282Y4123D01*
X38400Y4086D01*
X38436Y4084D01*
X38470Y4075D01*
X38631Y4065D01*
X52526Y4065D01*
X52565Y4070D01*
G37*
G36*
X127079Y16617D02*
X127079Y16617D01*
X127099Y16616D01*
X127235Y16644D01*
X127372Y16668D01*
X127391Y16676D01*
X127410Y16680D01*
X127535Y16741D01*
X127662Y16798D01*
X127678Y16811D01*
X127696Y16820D01*
X127802Y16910D01*
X127910Y16997D01*
X127923Y17013D01*
X127938Y17026D01*
X128018Y17140D01*
X128102Y17251D01*
X128114Y17276D01*
X128121Y17286D01*
X128128Y17305D01*
X128173Y17395D01*
X129148Y19750D01*
X132650Y23252D01*
X137224Y25147D01*
X142176Y25147D01*
X146750Y23252D01*
X150252Y19750D01*
X151227Y17395D01*
X151296Y17275D01*
X151361Y17152D01*
X151375Y17137D01*
X151385Y17119D01*
X151482Y17019D01*
X151575Y16916D01*
X151592Y16905D01*
X151606Y16891D01*
X151725Y16818D01*
X151841Y16742D01*
X151860Y16735D01*
X151877Y16724D01*
X152010Y16684D01*
X152142Y16638D01*
X152162Y16637D01*
X152181Y16631D01*
X152320Y16624D01*
X152459Y16613D01*
X152479Y16617D01*
X152499Y16616D01*
X152635Y16644D01*
X152772Y16668D01*
X152791Y16676D01*
X152810Y16680D01*
X152936Y16741D01*
X153062Y16798D01*
X153078Y16811D01*
X153096Y16820D01*
X153202Y16910D01*
X153310Y16997D01*
X153323Y17013D01*
X153338Y17026D01*
X153418Y17140D01*
X153502Y17251D01*
X153514Y17276D01*
X153521Y17286D01*
X153528Y17305D01*
X153573Y17395D01*
X154548Y19750D01*
X158050Y23252D01*
X160252Y24164D01*
X160277Y24179D01*
X160305Y24188D01*
X160415Y24257D01*
X160528Y24322D01*
X160549Y24342D01*
X160574Y24358D01*
X160663Y24452D01*
X160756Y24543D01*
X160772Y24568D01*
X160792Y24590D01*
X160855Y24703D01*
X160923Y24814D01*
X160931Y24842D01*
X160946Y24868D01*
X160978Y24994D01*
X161016Y25118D01*
X161018Y25147D01*
X161025Y25176D01*
X161035Y25337D01*
X161035Y61291D01*
X161023Y61389D01*
X161020Y61488D01*
X161003Y61546D01*
X160995Y61606D01*
X160959Y61698D01*
X160931Y61793D01*
X160901Y61845D01*
X160878Y61902D01*
X160820Y61982D01*
X160770Y62067D01*
X160704Y62143D01*
X160692Y62159D01*
X160682Y62167D01*
X160664Y62188D01*
X148548Y74304D01*
X148470Y74364D01*
X148398Y74432D01*
X148345Y74461D01*
X148297Y74498D01*
X148206Y74538D01*
X148119Y74586D01*
X148061Y74601D01*
X148005Y74625D01*
X147907Y74640D01*
X147811Y74665D01*
X147711Y74671D01*
X147691Y74675D01*
X147679Y74673D01*
X147651Y74675D01*
X143077Y74675D01*
X143028Y74669D01*
X142978Y74671D01*
X142871Y74649D01*
X142762Y74635D01*
X142715Y74617D01*
X142667Y74607D01*
X142568Y74559D01*
X142466Y74518D01*
X142426Y74489D01*
X142381Y74467D01*
X142298Y74396D01*
X142209Y74332D01*
X142177Y74293D01*
X142139Y74261D01*
X142076Y74171D01*
X142006Y74087D01*
X141985Y74042D01*
X141956Y74001D01*
X141917Y73898D01*
X141870Y73799D01*
X141861Y73750D01*
X141843Y73704D01*
X141831Y73594D01*
X141811Y73487D01*
X141814Y73437D01*
X141808Y73388D01*
X141823Y73279D01*
X141830Y73169D01*
X141846Y73122D01*
X141853Y73073D01*
X141905Y72920D01*
X142622Y71189D01*
X142622Y68511D01*
X141597Y66037D01*
X139703Y64143D01*
X137229Y63118D01*
X134551Y63118D01*
X133251Y63657D01*
X133242Y63659D01*
X133234Y63664D01*
X133089Y63701D01*
X132944Y63741D01*
X132935Y63741D01*
X132926Y63743D01*
X132765Y63753D01*
X96266Y63753D01*
X96148Y63738D01*
X96029Y63731D01*
X95991Y63718D01*
X95950Y63713D01*
X95840Y63670D01*
X95727Y63633D01*
X95692Y63611D01*
X95655Y63596D01*
X95559Y63527D01*
X95458Y63463D01*
X95430Y63433D01*
X95397Y63410D01*
X95321Y63318D01*
X95240Y63231D01*
X95220Y63196D01*
X95195Y63165D01*
X95144Y63057D01*
X95086Y62953D01*
X95076Y62913D01*
X95059Y62877D01*
X95037Y62760D01*
X95007Y62645D01*
X95003Y62585D01*
X94999Y62565D01*
X95001Y62544D01*
X95000Y62534D01*
X94999Y62531D01*
X94999Y62527D01*
X94997Y62484D01*
X94997Y24495D01*
X95000Y24466D01*
X94998Y24436D01*
X95020Y24308D01*
X95037Y24179D01*
X95047Y24152D01*
X95052Y24123D01*
X95106Y24004D01*
X95154Y23884D01*
X95171Y23860D01*
X95183Y23833D01*
X95264Y23731D01*
X95340Y23626D01*
X95363Y23608D01*
X95382Y23585D01*
X95485Y23506D01*
X95585Y23424D01*
X95612Y23411D01*
X95636Y23393D01*
X95780Y23322D01*
X95951Y23252D01*
X99452Y19750D01*
X100427Y17395D01*
X100496Y17275D01*
X100561Y17152D01*
X100575Y17137D01*
X100585Y17119D01*
X100682Y17019D01*
X100775Y16916D01*
X100792Y16905D01*
X100806Y16891D01*
X100924Y16818D01*
X101041Y16742D01*
X101060Y16735D01*
X101077Y16724D01*
X101210Y16684D01*
X101342Y16638D01*
X101362Y16637D01*
X101381Y16631D01*
X101520Y16624D01*
X101659Y16613D01*
X101679Y16617D01*
X101699Y16616D01*
X101835Y16644D01*
X101972Y16668D01*
X101991Y16676D01*
X102010Y16680D01*
X102135Y16741D01*
X102262Y16798D01*
X102278Y16811D01*
X102296Y16820D01*
X102402Y16910D01*
X102510Y16997D01*
X102523Y17013D01*
X102538Y17026D01*
X102618Y17140D01*
X102702Y17251D01*
X102714Y17276D01*
X102721Y17286D01*
X102728Y17305D01*
X102773Y17395D01*
X103748Y19750D01*
X107250Y23252D01*
X111824Y25147D01*
X116776Y25147D01*
X121350Y23252D01*
X124852Y19750D01*
X125827Y17395D01*
X125896Y17275D01*
X125961Y17152D01*
X125975Y17137D01*
X125985Y17119D01*
X126082Y17019D01*
X126175Y16916D01*
X126192Y16905D01*
X126206Y16891D01*
X126324Y16818D01*
X126441Y16742D01*
X126460Y16735D01*
X126477Y16724D01*
X126610Y16684D01*
X126742Y16638D01*
X126762Y16637D01*
X126781Y16631D01*
X126920Y16624D01*
X127059Y16613D01*
X127079Y16617D01*
G37*
%LPC*%
G36*
X157284Y127183D02*
X157284Y127183D01*
X154810Y128208D01*
X152916Y130102D01*
X151891Y132576D01*
X151891Y135254D01*
X152686Y137173D01*
X152704Y137240D01*
X152732Y137304D01*
X152746Y137393D01*
X152770Y137479D01*
X152771Y137549D01*
X152782Y137618D01*
X152774Y137708D01*
X152775Y137797D01*
X152759Y137865D01*
X152752Y137935D01*
X152722Y138019D01*
X152701Y138106D01*
X152668Y138168D01*
X152645Y138234D01*
X152594Y138308D01*
X152552Y138388D01*
X152505Y138439D01*
X152466Y138497D01*
X152399Y138556D01*
X152338Y138623D01*
X152280Y138661D01*
X152228Y138707D01*
X152148Y138748D01*
X152072Y138798D01*
X152006Y138820D01*
X151944Y138852D01*
X151857Y138872D01*
X151772Y138901D01*
X151702Y138906D01*
X151634Y138922D01*
X151544Y138919D01*
X151455Y138926D01*
X151386Y138914D01*
X151316Y138912D01*
X151230Y138887D01*
X151141Y138872D01*
X151078Y138843D01*
X151011Y138824D01*
X150933Y138778D01*
X150851Y138741D01*
X150797Y138698D01*
X150737Y138662D01*
X150616Y138556D01*
X148593Y136533D01*
X146119Y135508D01*
X143441Y135508D01*
X140967Y136533D01*
X139073Y138427D01*
X138048Y140901D01*
X138048Y143579D01*
X139073Y146053D01*
X140967Y147947D01*
X143502Y148997D01*
X143531Y149007D01*
X143572Y149012D01*
X143682Y149055D01*
X143795Y149092D01*
X143830Y149114D01*
X143867Y149129D01*
X143963Y149198D01*
X144064Y149262D01*
X144092Y149292D01*
X144125Y149315D01*
X144201Y149407D01*
X144282Y149494D01*
X144302Y149529D01*
X144327Y149560D01*
X144378Y149668D01*
X144436Y149772D01*
X144446Y149812D01*
X144463Y149848D01*
X144485Y149965D01*
X144515Y150080D01*
X144519Y150140D01*
X144523Y150160D01*
X144521Y150181D01*
X144525Y150241D01*
X144525Y152896D01*
X144513Y152994D01*
X144510Y153093D01*
X144493Y153151D01*
X144485Y153211D01*
X144449Y153303D01*
X144421Y153399D01*
X144391Y153451D01*
X144368Y153507D01*
X144310Y153587D01*
X144260Y153673D01*
X144194Y153748D01*
X144182Y153764D01*
X144172Y153772D01*
X144154Y153793D01*
X142883Y155064D01*
X141858Y157538D01*
X141858Y160216D01*
X142883Y162690D01*
X144777Y164584D01*
X147312Y165634D01*
X147341Y165644D01*
X147382Y165649D01*
X147492Y165692D01*
X147605Y165729D01*
X147640Y165751D01*
X147677Y165766D01*
X147773Y165835D01*
X147874Y165899D01*
X147902Y165929D01*
X147935Y165952D01*
X148011Y166044D01*
X148092Y166131D01*
X148112Y166166D01*
X148137Y166197D01*
X148188Y166305D01*
X148246Y166409D01*
X148256Y166449D01*
X148273Y166485D01*
X148295Y166602D01*
X148325Y166717D01*
X148329Y166777D01*
X148333Y166797D01*
X148331Y166818D01*
X148335Y166878D01*
X148335Y167709D01*
X149360Y170183D01*
X150745Y171569D01*
X150831Y171678D01*
X150919Y171785D01*
X150928Y171804D01*
X150940Y171820D01*
X150996Y171948D01*
X151055Y172073D01*
X151059Y172093D01*
X151067Y172112D01*
X151089Y172250D01*
X151115Y172386D01*
X151113Y172406D01*
X151117Y172426D01*
X151103Y172565D01*
X151095Y172703D01*
X151089Y172722D01*
X151087Y172742D01*
X151040Y172874D01*
X150997Y173005D01*
X150986Y173023D01*
X150979Y173042D01*
X150901Y173157D01*
X150827Y173274D01*
X150812Y173288D01*
X150801Y173305D01*
X150696Y173397D01*
X150595Y173492D01*
X150577Y173502D01*
X150562Y173515D01*
X150438Y173579D01*
X150317Y173646D01*
X150297Y173651D01*
X150279Y173660D01*
X150143Y173690D01*
X150009Y173725D01*
X149981Y173727D01*
X149969Y173730D01*
X149948Y173729D01*
X149848Y173735D01*
X145034Y173735D01*
X144916Y173720D01*
X144797Y173713D01*
X144759Y173700D01*
X144718Y173695D01*
X144608Y173652D01*
X144495Y173615D01*
X144460Y173593D01*
X144423Y173578D01*
X144327Y173509D01*
X144226Y173445D01*
X144198Y173415D01*
X144165Y173392D01*
X144089Y173300D01*
X144008Y173213D01*
X143988Y173178D01*
X143963Y173147D01*
X143912Y173039D01*
X143854Y172935D01*
X143844Y172895D01*
X143827Y172859D01*
X143805Y172742D01*
X143775Y172627D01*
X143771Y172567D01*
X143767Y172547D01*
X143769Y172526D01*
X143765Y172466D01*
X143765Y170187D01*
X141979Y168401D01*
X134819Y168401D01*
X134769Y168395D01*
X134720Y168397D01*
X134612Y168375D01*
X134503Y168361D01*
X134457Y168343D01*
X134408Y168333D01*
X134310Y168285D01*
X134207Y168244D01*
X134167Y168215D01*
X134122Y168193D01*
X134039Y168122D01*
X133950Y168058D01*
X133918Y168019D01*
X133880Y167987D01*
X133817Y167897D01*
X133747Y167813D01*
X133726Y167768D01*
X133697Y167727D01*
X133658Y167624D01*
X133612Y167525D01*
X133602Y167476D01*
X133585Y167430D01*
X133572Y167320D01*
X133552Y167213D01*
X133555Y167163D01*
X133549Y167114D01*
X133565Y167005D01*
X133572Y166895D01*
X133587Y166848D01*
X133594Y166799D01*
X133646Y166646D01*
X133732Y166439D01*
X133732Y163761D01*
X132707Y161287D01*
X130813Y159393D01*
X128339Y158368D01*
X125661Y158368D01*
X123187Y159393D01*
X121293Y161287D01*
X120268Y163761D01*
X120268Y166439D01*
X120354Y166646D01*
X120367Y166694D01*
X120388Y166739D01*
X120409Y166847D01*
X120438Y166953D01*
X120439Y167003D01*
X120448Y167052D01*
X120441Y167161D01*
X120443Y167271D01*
X120432Y167319D01*
X120428Y167369D01*
X120395Y167473D01*
X120369Y167580D01*
X120346Y167624D01*
X120330Y167671D01*
X120272Y167764D01*
X120220Y167861D01*
X120187Y167898D01*
X120160Y167940D01*
X120080Y168015D01*
X120006Y168097D01*
X119965Y168124D01*
X119929Y168158D01*
X119832Y168211D01*
X119741Y168271D01*
X119694Y168288D01*
X119650Y168312D01*
X119544Y168339D01*
X119440Y168375D01*
X119390Y168379D01*
X119342Y168391D01*
X119181Y168401D01*
X112021Y168401D01*
X110235Y170187D01*
X110235Y180671D01*
X110223Y180769D01*
X110220Y180868D01*
X110203Y180926D01*
X110195Y180986D01*
X110159Y181078D01*
X110131Y181173D01*
X110101Y181225D01*
X110078Y181282D01*
X110020Y181362D01*
X109970Y181447D01*
X109904Y181523D01*
X109892Y181539D01*
X109882Y181547D01*
X109864Y181568D01*
X99018Y192413D01*
X98798Y192634D01*
X98791Y192639D01*
X98785Y192647D01*
X98665Y192737D01*
X98547Y192829D01*
X98538Y192832D01*
X98531Y192838D01*
X98386Y192909D01*
X96517Y193683D01*
X94623Y195577D01*
X93598Y198051D01*
X93598Y200729D01*
X94623Y203203D01*
X96517Y205097D01*
X98991Y206122D01*
X101669Y206122D01*
X104143Y205097D01*
X106037Y203203D01*
X107062Y200729D01*
X107062Y198051D01*
X106747Y197290D01*
X106739Y197261D01*
X106725Y197235D01*
X106697Y197109D01*
X106663Y196983D01*
X106662Y196954D01*
X106656Y196925D01*
X106660Y196795D01*
X106658Y196665D01*
X106664Y196637D01*
X106665Y196607D01*
X106701Y196482D01*
X106732Y196356D01*
X106746Y196330D01*
X106754Y196302D01*
X106820Y196190D01*
X106880Y196075D01*
X106900Y196053D01*
X106915Y196028D01*
X107022Y195907D01*
X115358Y187570D01*
X115436Y187510D01*
X115508Y187442D01*
X115561Y187413D01*
X115609Y187376D01*
X115700Y187336D01*
X115787Y187288D01*
X115845Y187273D01*
X115901Y187249D01*
X115999Y187234D01*
X116095Y187209D01*
X116195Y187203D01*
X116215Y187199D01*
X116227Y187201D01*
X116255Y187199D01*
X121282Y187199D01*
X121362Y187158D01*
X121402Y187149D01*
X121439Y187133D01*
X121556Y187114D01*
X121673Y187088D01*
X121713Y187089D01*
X121753Y187083D01*
X121871Y187094D01*
X121990Y187098D01*
X122029Y187109D01*
X122069Y187113D01*
X122182Y187153D01*
X122296Y187186D01*
X122317Y187199D01*
X131696Y187199D01*
X131776Y187158D01*
X131815Y187149D01*
X131852Y187133D01*
X131970Y187114D01*
X132086Y187088D01*
X132127Y187089D01*
X132167Y187083D01*
X132285Y187094D01*
X132404Y187098D01*
X132443Y187109D01*
X132483Y187113D01*
X132595Y187153D01*
X132710Y187186D01*
X132731Y187199D01*
X141979Y187199D01*
X143765Y185413D01*
X143765Y183134D01*
X143780Y183016D01*
X143787Y182897D01*
X143800Y182859D01*
X143805Y182818D01*
X143848Y182708D01*
X143885Y182595D01*
X143907Y182560D01*
X143922Y182523D01*
X143991Y182427D01*
X144055Y182326D01*
X144085Y182298D01*
X144108Y182265D01*
X144200Y182189D01*
X144287Y182108D01*
X144322Y182088D01*
X144353Y182063D01*
X144461Y182012D01*
X144565Y181954D01*
X144605Y181944D01*
X144641Y181927D01*
X144758Y181905D01*
X144873Y181875D01*
X144933Y181871D01*
X144953Y181867D01*
X144974Y181869D01*
X145034Y181865D01*
X146381Y181865D01*
X146479Y181877D01*
X146578Y181880D01*
X146636Y181897D01*
X146696Y181905D01*
X146788Y181941D01*
X146883Y181969D01*
X146935Y181999D01*
X146992Y182022D01*
X147072Y182080D01*
X147157Y182130D01*
X147233Y182196D01*
X147249Y182208D01*
X147257Y182218D01*
X147278Y182236D01*
X161807Y196765D01*
X161867Y196843D01*
X161935Y196915D01*
X161964Y196968D01*
X162001Y197016D01*
X162041Y197107D01*
X162089Y197194D01*
X162104Y197252D01*
X162128Y197308D01*
X162143Y197406D01*
X162168Y197502D01*
X162174Y197602D01*
X162178Y197622D01*
X162176Y197634D01*
X162178Y197662D01*
X162178Y199459D01*
X163203Y201933D01*
X165097Y203827D01*
X167571Y204852D01*
X170249Y204852D01*
X172723Y203827D01*
X174617Y201933D01*
X175642Y199459D01*
X175642Y196781D01*
X174617Y194307D01*
X172723Y192413D01*
X170249Y191388D01*
X168452Y191388D01*
X168354Y191376D01*
X168255Y191373D01*
X168197Y191356D01*
X168137Y191348D01*
X168045Y191312D01*
X167950Y191284D01*
X167898Y191254D01*
X167841Y191231D01*
X167761Y191173D01*
X167676Y191123D01*
X167600Y191057D01*
X167584Y191045D01*
X167576Y191035D01*
X167555Y191017D01*
X151262Y174723D01*
X151219Y174668D01*
X151169Y174620D01*
X151122Y174543D01*
X151067Y174472D01*
X151039Y174408D01*
X151002Y174348D01*
X150976Y174263D01*
X150940Y174180D01*
X150929Y174111D01*
X150909Y174044D01*
X150905Y173955D01*
X150890Y173866D01*
X150897Y173796D01*
X150894Y173727D01*
X150912Y173639D01*
X150920Y173549D01*
X150944Y173484D01*
X150958Y173415D01*
X150998Y173335D01*
X151028Y173250D01*
X151067Y173192D01*
X151098Y173130D01*
X151156Y173061D01*
X151206Y172987D01*
X151259Y172941D01*
X151304Y172888D01*
X151378Y172836D01*
X151445Y172776D01*
X151507Y172745D01*
X151564Y172705D01*
X151648Y172673D01*
X151728Y172632D01*
X151796Y172617D01*
X151861Y172592D01*
X151951Y172582D01*
X152038Y172562D01*
X152108Y172564D01*
X152178Y172557D01*
X152267Y172569D01*
X152356Y172572D01*
X152423Y172591D01*
X152492Y172601D01*
X152645Y172653D01*
X153728Y173102D01*
X156406Y173102D01*
X158880Y172077D01*
X160774Y170183D01*
X161895Y167476D01*
X161903Y167462D01*
X161937Y167369D01*
X161948Y167352D01*
X161956Y167333D01*
X162037Y167221D01*
X162115Y167106D01*
X162131Y167092D01*
X162142Y167076D01*
X162250Y166987D01*
X162354Y166895D01*
X162372Y166886D01*
X162387Y166873D01*
X162513Y166814D01*
X162637Y166751D01*
X162657Y166746D01*
X162675Y166737D01*
X162812Y166711D01*
X162947Y166681D01*
X162968Y166681D01*
X162987Y166678D01*
X163126Y166686D01*
X163265Y166691D01*
X163285Y166696D01*
X163305Y166697D01*
X163437Y166740D01*
X163571Y166779D01*
X163588Y166789D01*
X163607Y166795D01*
X163725Y166870D01*
X163845Y166940D01*
X163866Y166959D01*
X163876Y166966D01*
X163890Y166981D01*
X163965Y167047D01*
X165871Y168952D01*
X165931Y169030D01*
X165999Y169102D01*
X166028Y169155D01*
X166065Y169203D01*
X166105Y169294D01*
X166153Y169381D01*
X166168Y169439D01*
X166192Y169495D01*
X166207Y169593D01*
X166232Y169689D01*
X166238Y169789D01*
X166242Y169809D01*
X166240Y169821D01*
X166242Y169849D01*
X166242Y172713D01*
X168028Y174499D01*
X177158Y174499D01*
X177508Y174149D01*
X177591Y174084D01*
X177669Y174012D01*
X177717Y173987D01*
X177759Y173954D01*
X177856Y173912D01*
X177949Y173862D01*
X178001Y173849D01*
X178051Y173827D01*
X178156Y173811D01*
X178258Y173785D01*
X178312Y173786D01*
X178365Y173778D01*
X178471Y173787D01*
X178576Y173788D01*
X178660Y173805D01*
X178682Y173807D01*
X178696Y173813D01*
X178734Y173820D01*
X179371Y173991D01*
X181357Y173991D01*
X181357Y169582D01*
X181369Y169484D01*
X181372Y169385D01*
X181389Y169326D01*
X181397Y169266D01*
X181433Y169174D01*
X181460Y169079D01*
X181491Y169027D01*
X181514Y168971D01*
X181572Y168891D01*
X181622Y168805D01*
X181688Y168730D01*
X181700Y168713D01*
X181710Y168705D01*
X181728Y168684D01*
X182491Y167922D01*
X182600Y167837D01*
X182707Y167748D01*
X182726Y167740D01*
X182742Y167727D01*
X182870Y167672D01*
X182995Y167613D01*
X183015Y167609D01*
X183034Y167601D01*
X183172Y167579D01*
X183308Y167553D01*
X183328Y167554D01*
X183348Y167551D01*
X183487Y167564D01*
X183625Y167573D01*
X183644Y167579D01*
X183664Y167581D01*
X183795Y167628D01*
X183927Y167671D01*
X183945Y167682D01*
X183964Y167689D01*
X184078Y167767D01*
X184196Y167841D01*
X184210Y167856D01*
X184227Y167867D01*
X184319Y167971D01*
X184414Y168073D01*
X184424Y168090D01*
X184437Y168106D01*
X184500Y168229D01*
X184568Y168351D01*
X184573Y168371D01*
X184582Y168389D01*
X184612Y168525D01*
X184647Y168659D01*
X184649Y168687D01*
X184652Y168699D01*
X184651Y168720D01*
X184657Y168820D01*
X184657Y173991D01*
X186643Y173991D01*
X187290Y173818D01*
X187869Y173483D01*
X188342Y173010D01*
X188677Y172431D01*
X188850Y171784D01*
X188850Y166750D01*
X184023Y166750D01*
X183905Y166735D01*
X183786Y166728D01*
X183748Y166715D01*
X183707Y166710D01*
X183597Y166667D01*
X183484Y166630D01*
X183449Y166608D01*
X183412Y166593D01*
X183316Y166524D01*
X183215Y166460D01*
X183187Y166430D01*
X183154Y166407D01*
X183078Y166315D01*
X182997Y166228D01*
X182977Y166193D01*
X182952Y166162D01*
X182901Y166054D01*
X182843Y165950D01*
X182833Y165910D01*
X182816Y165874D01*
X182794Y165757D01*
X182764Y165642D01*
X182760Y165582D01*
X182756Y165562D01*
X182758Y165541D01*
X182754Y165481D01*
X182754Y164719D01*
X182769Y164601D01*
X182776Y164482D01*
X182789Y164444D01*
X182794Y164403D01*
X182837Y164293D01*
X182874Y164180D01*
X182896Y164145D01*
X182911Y164108D01*
X182980Y164011D01*
X183044Y163911D01*
X183074Y163883D01*
X183097Y163850D01*
X183189Y163774D01*
X183276Y163693D01*
X183311Y163673D01*
X183342Y163648D01*
X183450Y163597D01*
X183554Y163539D01*
X183594Y163529D01*
X183630Y163512D01*
X183747Y163490D01*
X183862Y163460D01*
X183922Y163456D01*
X183942Y163452D01*
X183963Y163454D01*
X184023Y163450D01*
X188850Y163450D01*
X188850Y158416D01*
X188677Y157769D01*
X188342Y157190D01*
X187869Y156717D01*
X187290Y156382D01*
X186643Y156209D01*
X184657Y156209D01*
X184657Y161380D01*
X184640Y161518D01*
X184627Y161657D01*
X184620Y161676D01*
X184617Y161696D01*
X184566Y161825D01*
X184519Y161956D01*
X184508Y161973D01*
X184500Y161991D01*
X184419Y162104D01*
X184341Y162219D01*
X184325Y162232D01*
X184314Y162249D01*
X184206Y162338D01*
X184102Y162429D01*
X184084Y162439D01*
X184069Y162452D01*
X183943Y162511D01*
X183819Y162574D01*
X183799Y162578D01*
X183781Y162587D01*
X183644Y162613D01*
X183509Y162644D01*
X183488Y162643D01*
X183469Y162647D01*
X183330Y162638D01*
X183191Y162634D01*
X183171Y162628D01*
X183151Y162627D01*
X183019Y162584D01*
X182885Y162546D01*
X182868Y162535D01*
X182849Y162529D01*
X182731Y162455D01*
X182611Y162384D01*
X182590Y162365D01*
X182580Y162359D01*
X182566Y162344D01*
X182491Y162278D01*
X181728Y161516D01*
X181668Y161437D01*
X181600Y161365D01*
X181571Y161312D01*
X181534Y161264D01*
X181494Y161173D01*
X181446Y161087D01*
X181431Y161028D01*
X181407Y160972D01*
X181392Y160875D01*
X181367Y160779D01*
X181361Y160679D01*
X181357Y160658D01*
X181358Y160646D01*
X181357Y160618D01*
X181357Y156209D01*
X179371Y156209D01*
X178734Y156380D01*
X178629Y156394D01*
X178526Y156417D01*
X178472Y156416D01*
X178419Y156423D01*
X178314Y156411D01*
X178208Y156408D01*
X178156Y156393D01*
X178103Y156387D01*
X178004Y156349D01*
X177903Y156319D01*
X177856Y156292D01*
X177806Y156273D01*
X177720Y156211D01*
X177629Y156158D01*
X177565Y156101D01*
X177547Y156089D01*
X177537Y156077D01*
X177508Y156051D01*
X177158Y155701D01*
X168363Y155701D01*
X168334Y155698D01*
X168304Y155700D01*
X168176Y155678D01*
X168048Y155661D01*
X168020Y155651D01*
X167991Y155646D01*
X167872Y155592D01*
X167752Y155544D01*
X167728Y155527D01*
X167701Y155515D01*
X167599Y155434D01*
X167494Y155358D01*
X167476Y155335D01*
X167453Y155316D01*
X167374Y155213D01*
X167292Y155113D01*
X167285Y155097D01*
X165980Y153793D01*
X165920Y153715D01*
X165852Y153643D01*
X165823Y153590D01*
X165786Y153542D01*
X165746Y153451D01*
X165698Y153364D01*
X165683Y153306D01*
X165659Y153250D01*
X165644Y153152D01*
X165619Y153057D01*
X165613Y152957D01*
X165609Y152936D01*
X165611Y152924D01*
X165609Y152896D01*
X165609Y135131D01*
X165598Y135120D01*
X165569Y135067D01*
X165532Y135019D01*
X165492Y134928D01*
X165444Y134841D01*
X165429Y134783D01*
X165405Y134727D01*
X165390Y134629D01*
X165365Y134533D01*
X165359Y134433D01*
X165355Y134413D01*
X165357Y134401D01*
X165355Y134373D01*
X165355Y132576D01*
X164330Y130102D01*
X162436Y128208D01*
X159962Y127183D01*
X157284Y127183D01*
G37*
%LPD*%
%LPC*%
G36*
X51815Y15239D02*
X51815Y15239D01*
X51855Y15496D01*
X52436Y17283D01*
X53289Y18957D01*
X54394Y20478D01*
X55722Y21806D01*
X57243Y22911D01*
X58917Y23764D01*
X60704Y24345D01*
X60961Y24385D01*
X60961Y15239D01*
X51815Y15239D01*
G37*
%LPD*%
G36*
X134067Y176479D02*
X134067Y176479D01*
X134090Y176483D01*
X134097Y176498D01*
X134106Y176504D01*
X134104Y176514D01*
X134111Y176530D01*
X134111Y179070D01*
X134099Y179089D01*
X134096Y179111D01*
X134080Y179118D01*
X134074Y179127D01*
X134064Y179126D01*
X134049Y179133D01*
X119952Y179133D01*
X119933Y179121D01*
X119910Y179117D01*
X119903Y179102D01*
X119894Y179096D01*
X119896Y179086D01*
X119889Y179070D01*
X119889Y176530D01*
X119901Y176511D01*
X119904Y176489D01*
X119920Y176482D01*
X119926Y176473D01*
X119936Y176474D01*
X119952Y176467D01*
X134049Y176467D01*
X134067Y176479D01*
G37*
%LPC*%
G36*
X84073Y95630D02*
X84073Y95630D01*
X84073Y100664D01*
X84246Y101311D01*
X84581Y101890D01*
X85054Y102363D01*
X85633Y102698D01*
X86280Y102871D01*
X88266Y102871D01*
X88266Y95630D01*
X84073Y95630D01*
G37*
%LPD*%
%LPC*%
G36*
X86280Y85089D02*
X86280Y85089D01*
X85633Y85262D01*
X85054Y85597D01*
X84581Y86070D01*
X84246Y86649D01*
X84073Y87296D01*
X84073Y92330D01*
X88266Y92330D01*
X88266Y85089D01*
X86280Y85089D01*
G37*
%LPD*%
G36*
X107397Y92659D02*
X107397Y92659D01*
X107420Y92663D01*
X107427Y92678D01*
X107436Y92684D01*
X107434Y92694D01*
X107441Y92710D01*
X107441Y95250D01*
X107429Y95269D01*
X107426Y95291D01*
X107410Y95298D01*
X107404Y95307D01*
X107394Y95306D01*
X107379Y95313D01*
X98425Y95313D01*
X98406Y95301D01*
X98384Y95297D01*
X98377Y95282D01*
X98368Y95276D01*
X98369Y95266D01*
X98362Y95250D01*
X98362Y92710D01*
X98374Y92691D01*
X98378Y92669D01*
X98393Y92662D01*
X98399Y92653D01*
X98409Y92654D01*
X98425Y92647D01*
X107379Y92647D01*
X107397Y92659D01*
G37*
G36*
X179660Y163779D02*
X179660Y163779D01*
X179683Y163783D01*
X179690Y163798D01*
X179699Y163804D01*
X179697Y163814D01*
X179704Y163830D01*
X179704Y166370D01*
X179692Y166389D01*
X179689Y166411D01*
X179673Y166418D01*
X179667Y166427D01*
X179657Y166426D01*
X179642Y166433D01*
X170815Y166433D01*
X170796Y166421D01*
X170774Y166417D01*
X170767Y166402D01*
X170758Y166396D01*
X170759Y166386D01*
X170752Y166370D01*
X170752Y163830D01*
X170764Y163811D01*
X170768Y163789D01*
X170783Y163782D01*
X170789Y163773D01*
X170799Y163774D01*
X170815Y163767D01*
X179642Y163767D01*
X179660Y163779D01*
G37*
D10*
X14484Y111745D02*
X7366Y115304D01*
X14484Y118863D01*
X16264Y123439D02*
X9146Y123439D01*
X16264Y123439D02*
X18043Y125219D01*
X18043Y128778D01*
X16264Y130557D01*
X9146Y130557D01*
X7366Y128778D01*
X7366Y125219D01*
X9146Y123439D01*
X16264Y130557D01*
X14484Y135133D02*
X18043Y138692D01*
X7366Y138692D01*
X7366Y135133D02*
X7366Y142251D01*
D11*
X63500Y241300D03*
X241300Y63500D03*
D12*
X137414Y177800D03*
X127000Y177800D03*
X116586Y177800D03*
X172593Y165100D03*
X183007Y165100D03*
X89916Y93980D03*
X100330Y93980D03*
X110744Y93980D03*
D13*
X152400Y241300D03*
X127000Y241300D03*
X101600Y241300D03*
X63500Y12700D03*
X88900Y12700D03*
X114300Y12700D03*
X139700Y12700D03*
X165100Y12700D03*
X190500Y12700D03*
D14*
X69850Y132080D03*
D15*
X81280Y69850D02*
X88900Y69850D01*
X81280Y69850D02*
X69850Y81280D01*
X69850Y105410D01*
X69850Y132080D01*
X88900Y69850D02*
X88900Y12700D01*
D14*
X69850Y105410D03*
X135890Y69850D03*
D15*
X88900Y69850D01*
D10*
X127000Y165100D02*
X127000Y177800D01*
D14*
X127000Y165100D03*
X101600Y157480D03*
X217297Y65913D03*
X35560Y147320D03*
X59690Y154940D03*
X153670Y54610D03*
X189230Y76200D03*
X195580Y92710D03*
X242570Y184150D03*
X199390Y154940D03*
X29210Y82550D03*
X87884Y106680D03*
X57150Y90170D03*
X7620Y67310D03*
X197104Y192532D03*
X101600Y50800D03*
D10*
X116586Y177800D02*
X116586Y180594D01*
X100330Y196850D01*
X100330Y199390D01*
D14*
X100330Y199390D03*
X168910Y198120D03*
D10*
X148590Y177800D02*
X137414Y177800D01*
X148590Y177800D02*
X168910Y198120D01*
D14*
X155067Y166370D03*
D10*
X155067Y145923D01*
D14*
X155067Y145923D03*
X148590Y158877D03*
D10*
X148590Y146050D01*
X144780Y142240D01*
D14*
X144780Y142240D03*
X161544Y158877D03*
D10*
X161544Y136836D01*
X158623Y133915D01*
D14*
X158623Y133915D03*
D10*
X161544Y158877D02*
X167767Y165100D01*
X172593Y165100D01*
D14*
X107950Y134620D03*
X163830Y104140D03*
D10*
X138430Y104140D01*
X107950Y134620D01*
D14*
X186690Y142240D03*
X100330Y127000D03*
D10*
X140970Y86360D01*
X163830Y86360D01*
D14*
X163830Y86360D03*
D10*
X168910Y86360D01*
X186690Y138540D02*
X186690Y142240D01*
X186690Y138540D02*
X190547Y134683D01*
X190547Y107997D01*
X168910Y86360D01*
D14*
X184070Y132000D03*
D10*
X184070Y109140D01*
X168910Y93980D01*
X144780Y93980D01*
D14*
X144780Y93980D03*
X101600Y107950D03*
D10*
X100330Y106680D01*
X100330Y93980D01*
X100330Y83820D01*
X105410Y78740D01*
X149860Y78740D02*
X165100Y63500D01*
X149860Y78740D02*
X105410Y78740D01*
X165100Y63500D02*
X165100Y12700D01*
D14*
X120523Y93679D03*
D10*
X111045Y93679D01*
X110744Y93980D01*
M02*
