G04 EAGLE Gerber RS-274X export*
G75*
%MOMM*%
%FSLAX34Y34*%
%LPD*%
%INSoldermask Bottom*%
%IPPOS*%
%AMOC8*
5,1,8,0,0,1.08239X$1,22.5*%
G01*
%ADD10C,3.505200*%
%ADD11C,0.838200*%
%ADD12R,0.863600X1.473200*%
%ADD13C,2.082800*%

G36*
X134050Y175907D02*
X134050Y175907D01*
X134116Y175909D01*
X134159Y175927D01*
X134206Y175935D01*
X134263Y175969D01*
X134323Y175994D01*
X134358Y176025D01*
X134399Y176050D01*
X134441Y176101D01*
X134489Y176145D01*
X134511Y176187D01*
X134540Y176224D01*
X134561Y176286D01*
X134592Y176345D01*
X134600Y176399D01*
X134612Y176436D01*
X134611Y176476D01*
X134619Y176530D01*
X134619Y179070D01*
X134608Y179135D01*
X134606Y179201D01*
X134588Y179244D01*
X134580Y179291D01*
X134546Y179348D01*
X134521Y179408D01*
X134490Y179443D01*
X134465Y179484D01*
X134414Y179526D01*
X134370Y179574D01*
X134328Y179596D01*
X134291Y179625D01*
X134229Y179646D01*
X134170Y179677D01*
X134116Y179685D01*
X134079Y179697D01*
X134039Y179696D01*
X133985Y179704D01*
X130175Y179704D01*
X130110Y179693D01*
X130044Y179691D01*
X130001Y179673D01*
X129954Y179665D01*
X129897Y179631D01*
X129837Y179606D01*
X129802Y179575D01*
X129761Y179550D01*
X129720Y179499D01*
X129671Y179455D01*
X129649Y179413D01*
X129620Y179376D01*
X129599Y179314D01*
X129568Y179255D01*
X129560Y179201D01*
X129548Y179164D01*
X129548Y179161D01*
X129549Y179124D01*
X129541Y179070D01*
X129541Y176530D01*
X129552Y176465D01*
X129554Y176399D01*
X129572Y176356D01*
X129580Y176309D01*
X129614Y176252D01*
X129639Y176192D01*
X129670Y176157D01*
X129695Y176116D01*
X129746Y176075D01*
X129790Y176026D01*
X129832Y176004D01*
X129869Y175975D01*
X129931Y175954D01*
X129990Y175923D01*
X130044Y175915D01*
X130081Y175903D01*
X130121Y175904D01*
X130175Y175896D01*
X133985Y175896D01*
X134050Y175907D01*
G37*
G36*
X123890Y175907D02*
X123890Y175907D01*
X123956Y175909D01*
X123999Y175927D01*
X124046Y175935D01*
X124103Y175969D01*
X124163Y175994D01*
X124198Y176025D01*
X124239Y176050D01*
X124281Y176101D01*
X124329Y176145D01*
X124351Y176187D01*
X124380Y176224D01*
X124401Y176286D01*
X124432Y176345D01*
X124440Y176399D01*
X124452Y176436D01*
X124451Y176476D01*
X124459Y176530D01*
X124459Y179070D01*
X124448Y179135D01*
X124446Y179201D01*
X124428Y179244D01*
X124420Y179291D01*
X124386Y179348D01*
X124361Y179408D01*
X124330Y179443D01*
X124305Y179484D01*
X124254Y179526D01*
X124210Y179574D01*
X124168Y179596D01*
X124131Y179625D01*
X124069Y179646D01*
X124010Y179677D01*
X123956Y179685D01*
X123919Y179697D01*
X123879Y179696D01*
X123825Y179704D01*
X120015Y179704D01*
X119950Y179693D01*
X119884Y179691D01*
X119841Y179673D01*
X119794Y179665D01*
X119737Y179631D01*
X119677Y179606D01*
X119642Y179575D01*
X119601Y179550D01*
X119560Y179499D01*
X119511Y179455D01*
X119489Y179413D01*
X119460Y179376D01*
X119439Y179314D01*
X119408Y179255D01*
X119400Y179201D01*
X119388Y179164D01*
X119388Y179161D01*
X119389Y179124D01*
X119381Y179070D01*
X119381Y176530D01*
X119392Y176465D01*
X119394Y176399D01*
X119412Y176356D01*
X119420Y176309D01*
X119454Y176252D01*
X119479Y176192D01*
X119510Y176157D01*
X119535Y176116D01*
X119586Y176075D01*
X119630Y176026D01*
X119672Y176004D01*
X119709Y175975D01*
X119771Y175954D01*
X119830Y175923D01*
X119884Y175915D01*
X119921Y175903D01*
X119961Y175904D01*
X120015Y175896D01*
X123825Y175896D01*
X123890Y175907D01*
G37*
G36*
X179770Y163207D02*
X179770Y163207D01*
X179836Y163209D01*
X179879Y163227D01*
X179926Y163235D01*
X179983Y163269D01*
X180043Y163294D01*
X180078Y163325D01*
X180119Y163350D01*
X180161Y163401D01*
X180209Y163445D01*
X180231Y163487D01*
X180260Y163524D01*
X180281Y163586D01*
X180312Y163645D01*
X180320Y163699D01*
X180332Y163736D01*
X180331Y163776D01*
X180339Y163830D01*
X180339Y166370D01*
X180328Y166435D01*
X180326Y166501D01*
X180308Y166544D01*
X180300Y166591D01*
X180266Y166648D01*
X180241Y166708D01*
X180210Y166743D01*
X180185Y166784D01*
X180134Y166826D01*
X180090Y166874D01*
X180048Y166896D01*
X180011Y166925D01*
X179949Y166946D01*
X179890Y166977D01*
X179836Y166985D01*
X179799Y166997D01*
X179759Y166996D01*
X179705Y167004D01*
X175895Y167004D01*
X175830Y166993D01*
X175764Y166991D01*
X175721Y166973D01*
X175674Y166965D01*
X175617Y166931D01*
X175557Y166906D01*
X175522Y166875D01*
X175481Y166850D01*
X175440Y166799D01*
X175391Y166755D01*
X175369Y166713D01*
X175340Y166676D01*
X175319Y166614D01*
X175288Y166555D01*
X175280Y166501D01*
X175268Y166464D01*
X175268Y166461D01*
X175269Y166424D01*
X175261Y166370D01*
X175261Y163830D01*
X175272Y163765D01*
X175274Y163699D01*
X175292Y163656D01*
X175300Y163609D01*
X175334Y163552D01*
X175359Y163492D01*
X175390Y163457D01*
X175415Y163416D01*
X175466Y163375D01*
X175510Y163326D01*
X175552Y163304D01*
X175589Y163275D01*
X175651Y163254D01*
X175710Y163223D01*
X175764Y163215D01*
X175801Y163203D01*
X175841Y163204D01*
X175895Y163196D01*
X179705Y163196D01*
X179770Y163207D01*
G37*
G36*
X107380Y92087D02*
X107380Y92087D01*
X107446Y92089D01*
X107489Y92107D01*
X107536Y92115D01*
X107593Y92149D01*
X107653Y92174D01*
X107688Y92205D01*
X107729Y92230D01*
X107771Y92281D01*
X107819Y92325D01*
X107841Y92367D01*
X107870Y92404D01*
X107891Y92466D01*
X107922Y92525D01*
X107930Y92579D01*
X107942Y92616D01*
X107941Y92656D01*
X107949Y92710D01*
X107949Y95250D01*
X107938Y95315D01*
X107936Y95381D01*
X107918Y95424D01*
X107910Y95471D01*
X107876Y95528D01*
X107851Y95588D01*
X107820Y95623D01*
X107795Y95664D01*
X107744Y95706D01*
X107700Y95754D01*
X107658Y95776D01*
X107621Y95805D01*
X107559Y95826D01*
X107500Y95857D01*
X107446Y95865D01*
X107409Y95877D01*
X107369Y95876D01*
X107315Y95884D01*
X103505Y95884D01*
X103440Y95873D01*
X103374Y95871D01*
X103331Y95853D01*
X103284Y95845D01*
X103227Y95811D01*
X103167Y95786D01*
X103132Y95755D01*
X103091Y95730D01*
X103050Y95679D01*
X103001Y95635D01*
X102979Y95593D01*
X102950Y95556D01*
X102929Y95494D01*
X102898Y95435D01*
X102890Y95381D01*
X102878Y95344D01*
X102878Y95341D01*
X102879Y95304D01*
X102871Y95250D01*
X102871Y92710D01*
X102882Y92645D01*
X102884Y92579D01*
X102902Y92536D01*
X102910Y92489D01*
X102944Y92432D01*
X102969Y92372D01*
X103000Y92337D01*
X103025Y92296D01*
X103076Y92255D01*
X103120Y92206D01*
X103162Y92184D01*
X103199Y92155D01*
X103261Y92134D01*
X103320Y92103D01*
X103374Y92095D01*
X103411Y92083D01*
X103451Y92084D01*
X103505Y92076D01*
X107315Y92076D01*
X107380Y92087D01*
G37*
D10*
X25400Y228600D03*
X228600Y228600D03*
D11*
X63500Y241300D03*
X241300Y63500D03*
D12*
X137414Y177800D03*
X127000Y177800D03*
X116586Y177800D03*
X172593Y165100D03*
X183007Y165100D03*
X89916Y93980D03*
X100330Y93980D03*
X110744Y93980D03*
D13*
X152400Y241300D03*
X127000Y241300D03*
X101600Y241300D03*
X63500Y12700D03*
X88900Y12700D03*
X114300Y12700D03*
X139700Y12700D03*
X165100Y12700D03*
X190500Y12700D03*
D10*
X25400Y25400D03*
X228600Y25400D03*
M02*
