M48
;GenerationSoftware,Autodesk,EAGLE,9.6.0*%
;CreationDate,2020-11-11T20:55:53Z*%
FMAT,2
ICI,OFF
METRIC,TZ,000.000
T3C0.381
T2C1.016
T1C3.302
%
G90
M71
T1
X2540Y22860
X22860Y22860
X2540Y2540
X22860Y2540
T2
X10160Y24130
X15240Y24130
X12700Y24130
X6350Y1270
X8890Y1270
X11430Y1270
X13970Y1270
X16510Y1270
X19050Y1270
T3
X2921Y8255
X8788Y10668
X5715Y9017
X762Y6731
X19710Y19253
X10160Y5080
X10033Y19939
X16891Y19812
X15507Y16637
X15507Y14592
X14859Y15888
X3556Y14732
X16154Y15888
X15862Y13391
X10795Y13462
X16383Y10414
X18669Y14224
X10033Y12700
X16383Y8636
X18407Y13200
X14478Y9398
X10160Y10795
X12052Y9368
X6985Y13208
X6985Y10541
X13589Y6985
X12700Y16510
X10160Y15748
X21730Y6591
X14478Y14224
X5969Y15494
X15367Y5461
X18923Y7620
X19558Y9271
X24257Y18415
X19939Y15494
M30